<?xml version="1.0" encoding="utf-8"?>
<!-- Generator: Adobe Illustrator 17.1.0, SVG Export Plug-In . SVG Version: 6.00 Build 0)  -->
<!DOCTYPE svg PUBLIC "-//W3C//DTD SVG 1.1//EN" "http://www.w3.org/Graphics/SVG/1.1/DTD/svg11.dtd">
<svg version="1.1" id="Layer_1" xmlns="http://www.w3.org/2000/svg" xmlns:xlink="http://www.w3.org/1999/xlink" x="0px" y="0px"
	 viewBox="0 0 792 612" enable-background="new 0 0 792 612" xml:space="preserve">
<g>
	<path fill="#555555" d="M324,115.3c0-0.3,0-0.5,0.1-0.7c0.1-0.2,0.2-0.4,0.3-0.5c0.1-0.2,0.2-0.3,0.3-0.5c0.1-0.2,0.1-0.4,0.1-0.6
		c0-0.9-0.1-1.8-0.2-2.7c-0.1-0.9-0.2-1.8-0.4-2.7s-0.3-1.8-0.4-2.7c-0.1-0.9-0.2-1.8-0.2-2.7c0-0.6,0.1-1.1,0.3-1.3
		c0.2-0.2,0.7-0.4,1.3-0.4c0.5,0,0.9,0.1,1.3,0.4c0.3,0.3,0.7,0.6,1,1h0.2c0.2-0.1,0.6-0.3,1.2-0.7c0.6-0.3,1.2-0.7,1.8-1
		c0.6-0.4,1.3-0.7,1.8-1s1-0.5,1.2-0.7c0.5-0.3,1-0.5,1.5-0.7c0.5-0.2,1-0.3,1.6-0.3c0.3,0,0.5,0,0.7,0.1c0.1,0.1,0.2,0.3,0.2,0.7
		v0.1c-0.1,0.6-0.3,1.1-0.6,1.5c-0.3,0.4-0.7,0.7-1.1,1s-0.8,0.5-1.3,0.7c-0.4,0.2-0.8,0.4-1.2,0.7c-0.9,0.6-1.7,1.1-2.3,1.5
		c-0.6,0.4-1.1,0.7-1.6,0.9c-0.4,0.2-0.8,0.4-1,0.6c-0.3,0.2-0.5,0.3-0.6,0.5c0,0.1,0,0.3,0,0.5c0,0.3,0,0.4,0,0.5
		c0,0.9,0,1.8,0,2.7c0,0.9,0.2,1.8,0.5,2.6l10.5-4.9c0.2-0.1,0.4-0.1,0.5-0.2c0.1,0,0.3,0,0.5,0c0.1,0,0.3,0,0.6,0.1
		s0.4,0.2,0.4,0.4c0,0.7-0.2,1.3-0.7,1.8c-0.5,0.5-1,1-1.7,1.5c-0.7,0.4-1.3,0.8-2.1,1.2c-0.7,0.3-1.3,0.6-1.9,0.9
		c-0.1,0.1-0.3,0.1-0.4,0.1c-0.2,0-0.3,0.1-0.3,0.2l-4.7,2.5c-0.2,0.1-0.2,0.2-0.2,0.2c0,0.1,0,0.2,0,0.3c0,0.1,0,0.1,0,0.2
		c0,0.1,0,0.2,0,0.2l0.9,7.4c0.1,0.7-0.1,1.3-0.5,1.7c-0.4,0.4-1,0.6-1.6,0.6c-0.1,0-0.3,0-0.4-0.1s-0.4-0.1-0.5-0.2
		c-0.2-0.1-0.3-0.2-0.5-0.3s-0.2-0.3-0.2-0.5l-1.1-8.8c0-0.1-0.1-0.2-0.2-0.3c-0.1-0.1-0.2-0.2-0.4-0.3s-0.3-0.2-0.4-0.3
		C324.1,115.6,324,115.4,324,115.3z"/>
	<path fill="#555555" d="M342.3,92c0-0.2,0.2-0.4,0.5-0.6c0.3-0.2,0.6-0.2,0.8-0.2c0.4,0,1,0.1,1.5,0.4c0.6,0.3,0.8,0.6,0.8,1.1
		c0,0.5-0.1,0.9-0.2,1s-0.5,0.3-1,0.3c-0.5,0-1.1-0.2-1.6-0.5C342.6,93.1,342.3,92.6,342.3,92z M344.8,124.7c-0.3-3-0.6-5.6-0.8-7.7
		c-0.2-2.1-0.4-3.9-0.5-5.3c-0.2-1.4-0.3-2.6-0.4-3.4c-0.1-0.9-0.2-1.5-0.2-1.9c-0.1-0.4-0.1-0.7-0.1-0.9c0-0.1,0-0.2,0-0.3V105
		c0-0.3,0.1-0.6,0.4-0.8c0.3-0.2,0.6-0.3,0.9-0.3c0.4,0,0.9,0.1,1.5,0.2c0.5,0.2,0.9,0.5,1.1,0.9c0.3,1.5,0.5,3,0.6,4.4
		c0.1,1.5,0.2,3,0.3,4.5c0.1,1.5,0.2,3,0.3,4.5c0.1,1.5,0.4,3,0.7,4.4c0,0.1,0,0.2,0.1,0.4s0.1,0.4,0.1,0.6c0,0.2,0.1,0.4,0.1,0.6
		c0,0.2,0,0.3,0,0.4v0.1c0,0,0,0.1,0,0.1c0,0.4-0.2,0.7-0.5,1.1c-0.3,0.4-0.7,0.5-1,0.4c-0.1,0-0.3-0.1-0.7-0.2
		c-0.3-0.1-0.6-0.1-0.7-0.2c-0.1,0-0.2-0.1-0.4-0.2c-0.2-0.1-0.3-0.2-0.4-0.3c-0.1-0.1-0.2-0.3-0.3-0.4
		C344.7,125,344.7,124.9,344.8,124.7z"/>
	<path fill="#555555" d="M352.5,124.5c-0.1-1.1-0.2-2.5-0.3-4.3c-0.1-1.8-0.3-3.7-0.4-5.6c-0.2-1.9-0.3-3.8-0.5-5.5
		c-0.2-1.7-0.3-3.1-0.4-4c0-0.4,0.2-0.6,0.5-0.8c0.4-0.1,0.7-0.2,1-0.2c0.4,0,0.9,0.1,1.3,0.4c0.5,0.2,0.8,0.6,0.9,1
		c0,0.1,0,0.3,0,0.7c0,0.3,0.1,0.6,0.1,1c0,0.3,0,0.7,0.1,1c0,0.3,0,0.5,0,0.7c0,0.2,0,0.3,0,0.4s0,0.2,0,0.2c0,0.1,0,0.2,0,0.2
		c0,0.1,0.1,0.2,0.1,0.4c0.1-0.1,0.1-0.1,0.2-0.2c0.1-0.1,0.1-0.1,0.2-0.2c0.5-0.7,0.9-1.3,1.4-1.8c0.4-0.5,0.9-1,1.4-1.5
		c0.5-0.5,1-1,1.6-1.5c0.6-0.5,1.3-1.1,2-1.8c0.2-0.1,0.3-0.3,0.4-0.3c0.1-0.1,0.2-0.1,0.2-0.2c0.1,0,0.2-0.1,0.2-0.1
		c0.1,0,0.2,0,0.4,0c0.5,0,1,0.2,1.5,0.5c0.5,0.3,0.8,0.8,0.8,1.4c0,0.2-0.1,0.4-0.2,0.7c-0.2,0.2-0.3,0.4-0.5,0.6
		c-0.2,0.2-0.4,0.4-0.7,0.5c-0.2,0.2-0.4,0.3-0.6,0.3c-0.8,0.7-1.6,1.5-2.5,2.4c-0.9,0.9-1.7,1.8-2.4,2.9c-0.7,1-1.4,2.1-1.8,3.2
		c-0.5,1.1-0.7,2.2-0.7,3.3c0,1,0.1,2,0.2,3c0.1,1,0.2,2,0.2,3v1.6c-0.2,0.2-0.4,0.4-0.6,0.6c-0.2,0.2-0.4,0.2-0.8,0.2
		c-0.5,0-1-0.2-1.5-0.7C352.9,125.4,352.6,125,352.5,124.5z"/>
	<path fill="#555555" d="M367,109.4c-0.1-0.8-0.2-1.6-0.3-2.4c0-0.7,0.2-1.1,0.7-1.3c0.4-0.2,0.9-0.3,1.4-0.3h0.9
		c0.4,0.2,0.8,0.5,0.9,0.8c0.2,0.3,0.3,0.6,0.4,1c0.1,0.4,0.1,0.7,0.1,1.1c0,0.4,0,0.8,0,1.1c0,0.2,0,0.4,0,0.8s0,0.7,0,1.1
		c0,0.4,0,0.7,0.1,1.1c0,0.3,0.1,0.5,0.2,0.6l4-7.4c0.2-0.3,0.4-0.6,0.8-0.8c0.3-0.2,0.7-0.3,1.1-0.2c0.7,0.1,1.2,0.2,1.5,0.4
		c0.3,0.2,0.6,0.4,0.7,0.8s0.2,0.7,0.2,1.1c0,0.4,0,0.9,0.1,1.5c0,0.2,0,0.5,0,1c0,0.5,0.1,1,0.1,1.5s0.1,1,0.1,1.5
		c0,0.5,0.1,0.8,0.1,1h0.2c0.1-0.2,0.2-0.6,0.3-1.2c0.2-0.6,0.4-1.2,0.6-1.9c0.2-0.7,0.4-1.3,0.6-1.9c0.2-0.6,0.3-1,0.4-1.3
		c0-0.1,0.1-0.2,0.2-0.4c0.1-0.2,0.2-0.4,0.3-0.6s0.2-0.4,0.3-0.6c0.1-0.2,0.1-0.3,0.2-0.4c0.2-0.3,0.4-0.5,0.7-0.5
		c0.2,0,0.5,0,0.7,0c0.7,0,1.3,0.2,1.7,0.6c0.4,0.4,0.7,0.8,0.9,1.4c0.2,0.6,0.3,1.2,0.4,1.9s0.2,1.3,0.3,1.9c0,0,0,0,0,0.1
		s0,0.1,0,0.1l2.5,13.1c0.1,0.1,0.2,0.2,0.2,0.3c0,0.1,0,0.2,0,0.4c0,0.3-0.2,0.7-0.5,1s-0.6,0.5-1,0.5c-0.4,0-1-0.2-1.5-0.5
		c-0.6-0.3-0.9-0.7-1-1.3l-2.1-10.6l-0.2-0.4c-0.1,0.2-0.2,0.6-0.4,1.3c-0.2,0.7-0.4,1.6-0.7,2.7c-0.3,1.1-0.6,2.3-0.9,3.6
		c-0.3,1.3-0.7,2.7-1.1,4c-0.1,0.3-0.2,0.5-0.5,0.6c-0.3,0.1-0.5,0.2-0.7,0.2c-0.6,0-1.1-0.1-1.5-0.2c-0.4-0.1-0.7-0.4-0.9-0.7
		c-0.2-0.3-0.4-0.7-0.4-1.1c-0.1-0.4-0.2-0.9-0.2-1.4c0-0.1,0-0.5-0.1-1.3c-0.1-0.7-0.1-1.6-0.2-2.5c-0.1-0.9-0.2-1.9-0.2-2.9
		c-0.1-1-0.2-1.7-0.2-2.3c0-0.1,0-0.2,0-0.3c0-0.1,0-0.1,0-0.2s0-0.1,0-0.2c0-0.1-0.1-0.2-0.2-0.4l-1.3,3.1l-2.1,7.6l-0.4,2.8
		c0,0.2-0.1,0.3-0.2,0.5s-0.3,0.2-0.5,0.3c-0.2,0.1-0.4,0.1-0.5,0.2c-0.2,0-0.3,0-0.4,0c-0.7,0-1.2-0.2-1.7-0.7
		c-0.5-0.5-0.7-1-0.7-1.6c0-0.2-0.1-0.6-0.1-1.2c0-0.6-0.1-1.3-0.1-2.2c-0.1-0.8-0.1-1.7-0.2-2.7c0-0.9-0.1-1.8-0.2-2.7
		c-0.1-0.8-0.1-1.6-0.2-2.2s-0.1-1-0.1-1.3v-0.2C367.1,111,367,110.2,367,109.4z"/>
	<path fill="#555555" d="M403.1,113.9c-0.3,0.5-0.6,1.1-0.9,1.7c-0.3,0.7-0.7,1.4-1.1,2.2c-0.4,0.8-0.8,1.5-1.3,2.3
		c-0.5,0.8-0.9,1.5-1.4,2.1s-1,1.2-1.5,1.6c-0.5,0.4-1.1,0.7-1.7,0.8c-0.2,0-0.5,0-0.8-0.1c-0.3,0-0.6-0.1-0.9-0.2
		c-0.3-0.1-0.5-0.3-0.7-0.4c-0.2-0.2-0.3-0.5-0.3-0.8c0-3.1,0.3-5.8,0.7-8.3c0.4-2.5,1.1-4.7,2-6.6c0.9-1.9,2.1-3.5,3.5-4.7
		c1.4-1.3,3.1-2.2,5.1-2.7c0.1,0,0.2,0,0.3,0c0.2,0,0.3,0,0.3,0c0.9,0,1.5,0.4,2,1.2s0.7,2.2,0.9,4c0.2,1.8,0.3,4.2,0.4,7.1
		c0.1,2.9,0.2,6.4,0.5,10.4c0.1,0.3,0.1,0.6,0.2,0.9c0,0.2,0,0.5,0,0.9c0,0.4-0.1,0.8-0.4,1s-0.6,0.3-1,0.3c-0.9,0-1.5-0.2-1.8-0.7
		c-0.4-0.5-0.6-1.1-0.7-1.9c0,0,0-0.3-0.1-0.7s-0.1-1-0.2-1.5c-0.1-0.6-0.1-1.2-0.2-1.8c-0.1-0.6-0.1-1.1-0.1-1.5v-0.2
		c-0.1-0.3-0.1-0.7-0.1-1.1c0-0.4-0.1-0.9-0.1-1.3c-0.1-0.5-0.1-1-0.1-1.5L403.1,113.9z M402.1,105c-0.8,0.6-1.6,1.4-2.4,2.4
		c-0.8,1-1.3,2-1.7,3c-0.2,0.4-0.3,1.1-0.5,1.8c-0.2,0.8-0.3,1.5-0.5,2.3s-0.2,1.5-0.3,2.1c-0.1,0.6-0.1,1.1-0.1,1.2
		c0,0,0.1,0,0.1-0.1c0-0.1,0.1-0.1,0.1-0.1c1.9-1.8,3.2-3.7,3.9-5.8C401.5,109.8,402,107.5,402.1,105z"/>
	<path fill="#555555" d="M414.8,113.3c-0.4,0-0.8,0.1-1.1,0.3c-0.3,0.2-0.7,0.3-1.2,0.3c-0.1,0-0.2,0-0.5,0c-0.3,0-0.4,0-0.5,0
		c-0.1-0.1-0.3-0.3-0.4-0.4c-0.2-0.1-0.3-0.2-0.4-0.3c-0.2-0.1-0.3-0.2-0.4-0.4c-0.1-0.1-0.2-0.4-0.2-0.6c0-0.4,0.2-0.8,0.5-1.1
		c0.4-0.3,0.8-0.5,1.3-0.7c0.5-0.2,1-0.4,1.5-0.6s0.9-0.4,1.2-0.6v-2c0-2.2-0.1-4.4-0.3-6.7c-0.2-2.2-0.3-4.4-0.3-6.6
		c0-0.6,0.1-1,0.4-1.2c0.3-0.2,0.7-0.3,1.2-0.3c0.6,0,1,0.2,1.3,0.5c0.3,0.3,0.5,0.8,0.6,1.3c0.1,0.5,0.2,1,0.2,1.6c0,0.6,0,1,0,1.4
		c0,0.4,0,1.1,0.1,2.1c0.1,1,0.1,2,0.2,3.1c0.1,1.1,0.1,2.2,0.2,3.1c0.1,1,0.1,1.7,0.1,2.1c0.1,0,0.4-0.1,0.7-0.2
		c0.3-0.1,0.7-0.3,1.1-0.4c0.4-0.1,0.8-0.3,1.1-0.4c0.3-0.1,0.6-0.2,0.7-0.3c0.8-0.3,1.6-0.7,2.4-1.1c0.8-0.4,1.7-0.6,2.6-0.6
		c0.6,0,1.1,0.2,1.4,0.6s0.5,0.9,0.5,1.4c0,0.4-0.2,0.7-0.4,0.9c-0.3,0.2-0.6,0.3-0.9,0.5l-8.2,3.1c-0.1,0.1-0.2,0.1-0.3,0.2
		s-0.2,0.1-0.3,0.2v1.4c0,1,0,2.1,0.1,3.3s0.1,2.2,0.3,3.3c0.1,0.9,0.3,1.8,0.5,2.7c0.2,0.9,0.3,1.8,0.3,2.7c0,0.3-0.1,0.6-0.3,1.1
		s-0.5,0.7-0.9,0.7c-0.8,0-1.5-0.2-2-0.7c-0.5-0.5-0.8-1.1-0.9-1.9c-0.2-1.6-0.3-3.3-0.5-5.1c-0.2-1.9-0.3-3.6-0.5-5.3H414.8z"/>
	<path fill="#555555" d="M439.4,113.9c-0.3,0.5-0.6,1.1-0.9,1.7c-0.3,0.7-0.7,1.4-1.1,2.2c-0.4,0.8-0.8,1.5-1.3,2.3
		c-0.5,0.8-0.9,1.5-1.4,2.1s-1,1.2-1.5,1.6c-0.5,0.4-1.1,0.7-1.7,0.8c-0.2,0-0.5,0-0.8-0.1c-0.3,0-0.6-0.1-0.9-0.2
		c-0.3-0.1-0.5-0.3-0.7-0.4c-0.2-0.2-0.3-0.5-0.3-0.8c0-3.1,0.3-5.8,0.7-8.3c0.4-2.5,1.1-4.7,2-6.6c0.9-1.9,2.1-3.5,3.5-4.7
		c1.4-1.3,3.1-2.2,5.1-2.7c0.1,0,0.2,0,0.3,0c0.2,0,0.3,0,0.3,0c0.9,0,1.5,0.4,2,1.2s0.7,2.2,0.9,4c0.2,1.8,0.3,4.2,0.4,7.1
		c0.1,2.9,0.2,6.4,0.5,10.4c0.1,0.3,0.1,0.6,0.2,0.9c0,0.2,0,0.5,0,0.9c0,0.4-0.1,0.8-0.4,1s-0.6,0.3-1,0.3c-0.9,0-1.5-0.2-1.8-0.7
		c-0.4-0.5-0.6-1.1-0.7-1.9c0,0,0-0.3-0.1-0.7s-0.1-1-0.2-1.5c-0.1-0.6-0.1-1.2-0.2-1.8c-0.1-0.6-0.1-1.1-0.1-1.5v-0.2
		c-0.1-0.3-0.1-0.7-0.1-1.1c0-0.4-0.1-0.9-0.1-1.3c-0.1-0.5-0.1-1-0.1-1.5L439.4,113.9z M438.4,105c-0.8,0.6-1.6,1.4-2.4,2.4
		c-0.8,1-1.3,2-1.7,3c-0.2,0.4-0.3,1.1-0.5,1.8c-0.2,0.8-0.3,1.5-0.5,2.3s-0.2,1.5-0.3,2.1c-0.1,0.6-0.1,1.1-0.1,1.2
		c0,0,0.1,0,0.1-0.1c0-0.1,0.1-0.1,0.1-0.1c1.9-1.8,3.2-3.7,3.9-5.8C437.9,109.8,438.3,107.5,438.4,105z"/>
	<path fill="#555555" d="M448.3,115.1c0-0.5,0.2-0.9,0.5-1.1s0.7-0.4,1.2-0.5l11.3-1.1c0.5,0,1,0.1,1.4,0.3s0.7,0.6,0.7,1.2
		c0,0.2-0.1,0.3-0.3,0.5c-0.2,0.2-0.4,0.3-0.7,0.5c-0.2,0.2-0.5,0.3-0.8,0.4c-0.3,0.1-0.5,0.1-0.6,0.1l-11.1,1.2
		c-0.4,0-0.8-0.1-1.1-0.4C448.5,115.8,448.3,115.5,448.3,115.1z"/>
	<path fill="#555555" d="M472,124.8c0.5-0.7,1-1.2,1.6-1.5c0.6-0.3,1.2-0.6,1.8-0.8c0.6-0.2,1.2-0.4,1.8-0.6c0.6-0.2,1.2-0.5,1.8-1
		c0.3-0.2,0.8-0.4,1.4-0.8c0.6-0.4,1.2-0.8,1.8-1.2c0.6-0.4,1.1-0.9,1.5-1.3c0.4-0.4,0.7-0.8,0.7-1.1c0,0,0,0,0,0
		c-0.1,0-0.1,0-0.1,0l-0.1-0.1c-0.2-0.1-0.4-0.1-0.7-0.2c-0.3-0.1-0.5-0.1-0.6-0.2c-3.9-0.4-7-0.8-9.3-1.2c-2.4-0.3-4.2-0.7-5.4-1.1
		c-1.3-0.4-2.1-0.8-2.5-1.3c-0.4-0.5-0.6-1.2-0.6-1.9c0-0.3,0.1-0.6,0.2-1c0.1-0.4,0.3-0.7,0.4-1.1c0.2-0.4,0.3-0.7,0.5-1
		c0.2-0.3,0.3-0.5,0.5-0.7c0.5-0.6,1.1-1.1,1.9-1.6c0.8-0.5,1.6-0.9,2.5-1.3s1.8-0.7,2.7-0.9c0.9-0.3,1.7-0.5,2.5-0.7
		c0.8-0.1,1.7-0.3,2.5-0.6c0.9-0.3,1.7-0.6,2.5-0.7c0.4,0,0.8,0.2,1,0.5c0.3,0.3,0.4,0.7,0.4,1c0,0.5-0.1,0.9-0.3,1.1
		c-0.2,0.3-0.4,0.4-0.8,0.6s-0.7,0.2-1.1,0.3c-0.4,0.1-0.8,0.2-1.2,0.2c-0.2,0.1-0.6,0.1-1,0.2c-0.4,0.1-0.8,0.2-1.3,0.3
		c-0.4,0.1-0.8,0.2-1.1,0.3c-0.3,0.1-0.5,0.2-0.6,0.2c-0.9,0.4-1.8,0.8-2.6,1.1c-0.8,0.3-1.5,0.7-2.2,1.1c-0.6,0.4-1.1,0.7-1.4,1.1
		c-0.3,0.4-0.5,0.8-0.5,1.3v0c0.3,0.4,1,0.7,2,0.9c1,0.2,2.3,0.4,3.7,0.5c1.4,0.2,2.9,0.3,4.5,0.4c1.6,0.2,3,0.4,4.3,0.7
		c1.3,0.3,2.4,0.7,3.3,1.2c0.9,0.5,1.3,1.2,1.3,2.1c0,0.3-0.1,0.7-0.2,1.2s-0.3,0.8-0.6,1c-0.7,0.8-1.6,1.7-2.7,2.6
		s-2.1,1.7-3.3,2.5c-1.2,0.8-2.4,1.4-3.7,1.9c-1.3,0.5-2.5,0.8-3.8,0.9c-0.4,0-0.8-0.2-1.2-0.5S472,125.3,472,124.8z"/>
	<path fill="#555555" d="M490.4,118.4c-0.6-0.2-1.1-0.5-1.5-0.8c-0.5-0.3-0.7-0.8-0.7-1.5c0-0.2,0-0.3,0.1-0.4
		c0.1-0.1,0.2-0.1,0.2-0.3c0.1-0.1,0.2-0.3,0.4-0.5c0.2-0.2,0.4-0.5,0.6-0.8c0.2-0.3,0.4-0.6,0.6-0.8c0.2-0.3,0.3-0.4,0.4-0.5
		c0-0.4,0-0.9-0.1-1.4c0-0.6,0-1.1,0-1.6c0.1-0.5,0.2-0.9,0.5-1.3c0.3-0.3,0.7-0.5,1.3-0.5c0.4,0,0.7,0.1,0.9,0.4
		c0.2,0.3,0.5,0.4,0.9,0.4h0.2c1.2-1,2.5-1.8,3.8-2.5c1.3-0.7,2.8-1.1,4.4-1.1c1,0,1.9,0.3,2.6,0.9c0.7,0.6,1,1.5,1,2.6
		c0,1.4-0.3,2.8-0.9,4.3c-0.6,1.5-1.4,2.9-2.4,4.3s-2,2.7-3.1,3.9c-1.1,1.2-2.1,2.3-3,3.2c-0.1,0.1-0.2,0.2-0.4,0.4
		s-0.3,0.3-0.5,0.4c-0.2,0.2-0.4,0.3-0.6,0.5l-0.4,10.3c0,0.3,0,0.6,0,0.9c0,0.3-0.1,0.6-0.2,0.8c-0.1,0.3-0.3,0.5-0.4,0.6
		c-0.2,0.2-0.5,0.2-0.8,0.2c-0.2,0-0.4,0-0.7-0.1c-0.3-0.1-0.6-0.2-0.9-0.3c-0.3-0.2-0.5-0.3-0.7-0.5c-0.2-0.2-0.3-0.4-0.3-0.7
		L490.4,118.4z M494.6,121.2h0.2c0,0,0.1-0.1,0.3-0.3c0.2-0.2,0.4-0.4,0.6-0.6c0.2-0.2,0.4-0.5,0.7-0.7c0.2-0.3,0.4-0.5,0.5-0.6
		c0.9-0.7,1.7-1.5,2.5-2.5c0.7-1,1.4-2,1.8-3c0.5-1,0.7-1.9,0.9-2.7c0.1-0.8,0-1.4-0.4-1.7c-0.4-0.3-1-0.3-1.9,0.1
		c-0.9,0.4-2.1,1.3-3.7,2.7c-0.4,0.3-0.7,0.6-1,1c-0.3,0.4-0.5,0.8-0.5,1.3L494.6,121.2z"/>
	<path fill="#555555" d="M515.6,138.8c-0.1-0.6-0.1-1.4-0.1-2.3c0-0.9,0-1.8,0-2.8s0-2,0-3c0-1,0.1-1.9,0.1-2.8v-1.6
		c-0.2-0.2-0.3-0.4-0.5-0.7c-0.2-0.2-0.6-0.7-1.1-1.3c-0.5-0.7-1.3-1.7-2.2-3c-1-1.3-2.2-3.2-3.9-5.6c-0.6-0.7-1-1.2-1.2-1.6
		c-0.2-0.4-0.2-0.8-0.2-1.1c0.1-0.3,0.2-0.5,0.5-0.6c0.3-0.1,0.5-0.2,0.7-0.2c0.6,0,1.1,0.1,1.6,0.4c0.5,0.3,0.9,0.6,1.3,1
		c0.4,0.4,0.7,0.9,1.1,1.4s0.6,1,0.9,1.4c0.2,0.3,0.4,0.6,0.7,1c0.3,0.4,0.5,0.8,0.8,1.2s0.6,0.9,1,1.5l0.5,0.6v-4.7
		c0-1.5,0-3-0.1-4.4c-0.1-1.4-0.1-2.9-0.1-4.3c0-0.4,0.1-0.8,0.4-1c0.3-0.3,0.7-0.4,1.1-0.4c0.5,0.1,0.9,0.2,1.1,0.3
		c0.3,0.1,0.5,0.4,0.8,0.7c0.2,0.3,0.4,0.7,0.3,1.2c0,0.4,0,0.9,0,1.3c0.1,2.8,0.2,5.7,0.3,8.5c0.1,2.8,0.1,5.7,0.1,8.5
		c0,0.3,0,0.8,0,1.6c0,0.8,0,1.8,0,2.8c0,1,0,2.1,0,3.3c0,1.1,0,2.2,0,3.1c0,0.9,0,1.7,0,2.3c0,0.6,0,0.9,0.1,0.9
		c0,0.4-0.2,0.8-0.5,1c-0.3,0.2-0.7,0.3-1.1,0.3c-0.6,0-1-0.1-1.3-0.2c-0.3-0.2-0.5-0.4-0.7-0.7c-0.2-0.3-0.3-0.6-0.3-1
		C515.8,139.6,515.7,139.2,515.6,138.8z"/>
</g>
<g>
	<path fill="#555555" d="M46.8,286.1c0.3-2.3,0.5-4.1,0.7-5.4c0.2-1.3,0.3-2.2,0.4-2.8c0.1-0.7,0.1-1.1,0.1-1.2
		c0.2-0.7,0.4-1.5,0.7-2.4c0.2-0.8,0.5-1.6,0.9-2.4s0.9-1.3,1.5-1.8c0.6-0.5,1.4-0.7,2.4-0.7c0.4,0,0.8,0,1.1,0.1
		c0.3,0.1,0.7,0.2,1,0.3c0.3,0.1,0.6,0.3,0.9,0.5c0.3,0.2,0.6,0.4,0.9,0.7c0.2,0.2,0.4,0.3,0.4,0.4s0.1,0.2,0.1,0.4
		c0,0.3-0.1,0.6-0.3,0.9s-0.5,0.4-0.9,0.4c-0.3,0-0.6-0.1-0.8-0.2s-0.4-0.3-0.6-0.5c-0.2-0.2-0.4-0.4-0.6-0.5
		c-0.2-0.2-0.5-0.2-0.9-0.2c-0.4,0-0.7,0.1-1,0.3s-0.5,0.5-0.7,0.8c-0.2,0.3-0.4,0.6-0.5,1s-0.2,0.7-0.2,1.1l-1.7,11.2
		c0,0,0,0.2,0,0.3c0,0.2,0,0.3,0,0.4c0,0.2,0,0.4,0,0.6s0,0.5,0.1,0.7c0,0.2,0.1,0.5,0.2,0.6c0.1,0.2,0.3,0.3,0.5,0.3
		c0.1,0,0.3,0,0.4-0.1c1.1-0.8,2.1-1.6,2.9-2.6s1.6-2.1,2.3-3.2c0,0,0.1-0.2,0.2-0.3s0.2-0.4,0.3-0.6s0.2-0.4,0.3-0.6
		c0.1-0.2,0.2-0.3,0.2-0.4c0.1-0.3,0.2-0.6,0.3-0.9s0.2-0.6,0.3-0.9s0.3-0.5,0.5-0.7s0.5-0.3,1-0.3c0.3,0,0.6,0.1,0.9,0.4
		c0.3,0.3,0.5,0.6,0.5,1v0.1c-0.6,1.7-1.3,3.2-2.3,4.7c-0.9,1.4-2,2.8-3.1,4.3c-0.7,0.8-1.5,1.5-2.4,2s-1.9,0.8-3.1,0.8h-0.2
		c-1.1-0.4-1.8-1-2.1-1.8c-0.4-0.8-0.5-1.7-0.5-2.8V286.1z"/>
	<path fill="#555555" d="M62.1,286.1l1.3-9c0-0.3,0.2-0.5,0.4-0.7c0.2-0.1,0.5-0.2,0.8-0.2c0.5,0,0.9,0.1,1.2,0.4
		c0.3,0.3,0.6,0.7,0.8,1.1h0c0.3,0,0.5-0.1,0.8-0.2c0.2-0.1,0.5-0.2,0.8-0.2c0.8,0,1.4,0.2,1.9,0.7s1,1,1.3,1.7
		c0.3,0.7,0.6,1.4,0.7,2.2c0.2,0.8,0.2,1.5,0.2,2c0,0.7-0.2,1.5-0.5,2.4c-0.4,0.9-0.8,1.7-1.4,2.5s-1.3,1.4-2,1.9
		c-0.8,0.5-1.5,0.8-2.3,0.8c-0.7,0-1.3-0.2-1.8-0.5c-0.5-0.3-0.9-0.7-1.2-1.2s-0.5-1.1-0.7-1.7s-0.2-1.3-0.2-1.9V286.1z M65,286.3
		c0,0.2,0.1,0.5,0.1,0.8c0,0.3,0.1,0.6,0.2,0.8c0.1,0.2,0.2,0.4,0.4,0.6s0.4,0.1,0.8,0c0.3-0.3,0.6-0.6,1-0.9s0.7-0.7,1-1.1
		s0.6-0.8,0.8-1.3s0.3-0.9,0.3-1.4c0.1-0.8,0-1.5-0.2-2.2s-0.5-1.1-0.9-1.4s-0.8-0.3-1.3-0.1s-1,0.8-1.5,1.8
		c-0.3,0.6-0.5,1.3-0.6,2.1s-0.2,1.6-0.2,2.2V286.3z"/>
	<path fill="#555555" d="M83.9,290.2c-0.3-0.5-0.6-1.1-0.8-2c-0.2-0.8-0.4-1.7-0.6-2.6c-0.2-0.9-0.4-1.8-0.5-2.7
		c-0.2-0.9-0.3-1.6-0.5-2.1s-0.4-0.8-0.6-0.9s-0.5,0.2-0.7,0.9l-3.1,9.4c-0.1,0.3-0.3,0.6-0.4,0.7c-0.2,0.1-0.4,0.2-0.8,0.2
		c-0.2,0-0.4,0-0.6-0.1s-0.4-0.1-0.6-0.3c-0.2-0.1-0.3-0.3-0.5-0.4c-0.1-0.2-0.2-0.4-0.2-0.6c0.1-0.3,0.1-0.8,0.2-1.5
		c0.1-0.8,0.1-1.6,0.1-2.6c0-1,0-2,0.1-3.1c0-1.1,0-2.1,0-3.1c0-0.9,0-1.8-0.1-2.5c0-0.7,0-1.1-0.1-1.4c0-0.2,0-0.5,0-0.7
		c0-0.2,0-0.5,0.1-0.7c0.1-0.2,0.2-0.4,0.3-0.5c0.2-0.1,0.4-0.2,0.7-0.2c0.4,0,0.9,0.2,1.2,0.6s0.6,0.8,0.6,1.2c0,0.6,0,1.2-0.1,1.8
		c-0.1,0.6-0.1,1.2-0.1,1.8c0,0.4,0,0.7,0,0.9s0,0.6,0.1,0.9c0.1-0.2,0.2-0.5,0.4-1c0.2-0.5,0.3-1,0.5-1.5c0.2-0.5,0.4-1,0.5-1.5
		c0.2-0.5,0.3-0.8,0.4-1c0.2-0.5,0.4-0.9,0.7-1.4c0.3-0.4,0.8-0.7,1.3-0.7c0.4,0,0.7,0.1,1,0.3c0.3,0.2,0.5,0.5,0.8,0.8
		s0.4,0.7,0.5,1.1s0.2,0.7,0.3,0.9l1.9,8.8l1.5,4c0,0,0,0.1,0,0.2s0,0.2,0,0.2c0,0.3-0.1,0.6-0.2,0.8c-0.1,0.3-0.4,0.4-0.7,0.4
		c-0.4,0-0.8-0.1-1.2-0.3S84,290.6,83.9,290.2z"/>
	<path fill="#555555" d="M91.8,281.2c-0.3,0-0.6,0.1-0.9,0.2c-0.3,0.2-0.6,0.2-0.9,0.2c0,0-0.2,0-0.4,0c-0.2,0-0.3,0-0.4,0
		c-0.1-0.1-0.2-0.2-0.3-0.3c-0.1-0.1-0.2-0.1-0.4-0.2c-0.1-0.1-0.2-0.2-0.3-0.3c-0.1-0.1-0.1-0.3-0.1-0.5c0-0.4,0.1-0.6,0.4-0.9
		s0.6-0.4,1-0.6c0.4-0.2,0.8-0.3,1.1-0.5s0.7-0.3,0.9-0.5v-1.5c0-1.7-0.1-3.5-0.2-5.2c-0.2-1.7-0.2-3.5-0.2-5.2
		c0-0.5,0.1-0.8,0.4-0.9c0.2-0.1,0.6-0.2,0.9-0.2c0.5,0,0.8,0.1,1,0.4c0.2,0.3,0.4,0.6,0.5,1c0.1,0.4,0.1,0.8,0.1,1.2s0,0.8,0,1.1
		c0,0.3,0,0.8,0.1,1.6c0,0.8,0.1,1.6,0.1,2.5c0,0.9,0.1,1.7,0.1,2.5c0,0.8,0.1,1.3,0.1,1.6c0.1,0,0.3-0.1,0.5-0.2
		c0.3-0.1,0.6-0.2,0.9-0.3c0.3-0.1,0.6-0.2,0.9-0.3c0.3-0.1,0.5-0.2,0.6-0.2c0.6-0.3,1.2-0.5,1.9-0.9c0.7-0.3,1.3-0.5,2-0.5
		c0.5,0,0.8,0.2,1.1,0.5s0.4,0.7,0.4,1.1c0,0.3-0.1,0.5-0.4,0.7c-0.2,0.1-0.5,0.3-0.7,0.4l-6.4,2.4c-0.1,0-0.1,0.1-0.2,0.1
		s-0.1,0.1-0.2,0.2v1.1c0,0.8,0,1.7,0.1,2.5s0.1,1.7,0.2,2.5c0.1,0.7,0.2,1.4,0.4,2.1s0.2,1.4,0.2,2.1c0,0.2-0.1,0.5-0.2,0.8
		s-0.4,0.5-0.7,0.5c-0.6,0-1.1-0.2-1.5-0.6c-0.4-0.4-0.6-0.9-0.7-1.5c-0.1-1.2-0.2-2.6-0.4-4c-0.1-1.5-0.3-2.8-0.4-4.2H91.8z"/>
	<path fill="#555555" d="M103.7,289.9c0-0.8-0.1-2-0.2-3.4s-0.2-2.9-0.4-4.4c-0.1-1.5-0.3-3-0.4-4.3s-0.3-2.4-0.4-3.2
		c0-0.3,0.1-0.5,0.4-0.6s0.6-0.1,0.8-0.1c0.3,0,0.7,0.1,1,0.3c0.4,0.2,0.6,0.4,0.7,0.8c0,0.1,0,0.3,0,0.5c0,0.2,0,0.5,0.1,0.8
		c0,0.3,0,0.5,0.1,0.8c0,0.2,0,0.4,0,0.5c0,0.1,0,0.2,0,0.3s0,0.1,0,0.2s0,0.1,0,0.2c0,0.1,0.1,0.2,0.1,0.4c0,0,0.1-0.1,0.2-0.2
		c0.1-0.1,0.1-0.1,0.1-0.1c0.4-0.5,0.7-1,1.1-1.4s0.7-0.8,1.1-1.2c0.4-0.4,0.8-0.8,1.2-1.2s1-0.9,1.6-1.4c0.1-0.1,0.2-0.2,0.3-0.3
		s0.1-0.1,0.2-0.1c0.1,0,0.1-0.1,0.2-0.1s0.2,0,0.3,0c0.4,0,0.8,0.1,1.2,0.4c0.4,0.3,0.6,0.6,0.6,1.1c0,0.2-0.1,0.3-0.2,0.5
		c-0.1,0.2-0.3,0.3-0.4,0.5c-0.2,0.2-0.3,0.3-0.5,0.4s-0.3,0.2-0.5,0.2c-0.6,0.5-1.3,1.2-1.9,1.8c-0.7,0.7-1.3,1.4-1.9,2.2
		c-0.6,0.8-1.1,1.6-1.4,2.5c-0.4,0.9-0.6,1.7-0.6,2.6c0,0.8,0.1,1.6,0.2,2.4c0.1,0.8,0.2,1.6,0.2,2.4v1.2c-0.2,0.2-0.4,0.3-0.5,0.5
		s-0.3,0.2-0.6,0.2c-0.4,0-0.8-0.2-1.2-0.5C104,290.6,103.8,290.3,103.7,289.9z"/>
	<path fill="#555555" d="M113.3,286.1l1.3-9c0-0.3,0.2-0.5,0.4-0.7c0.2-0.1,0.5-0.2,0.8-0.2c0.5,0,0.9,0.1,1.2,0.4
		c0.3,0.3,0.6,0.7,0.8,1.1h0c0.3,0,0.5-0.1,0.8-0.2c0.2-0.1,0.5-0.2,0.8-0.2c0.8,0,1.4,0.2,1.9,0.7s1,1,1.3,1.7
		c0.3,0.7,0.6,1.4,0.7,2.2c0.2,0.8,0.2,1.5,0.2,2c0,0.7-0.2,1.5-0.5,2.4c-0.4,0.9-0.8,1.7-1.4,2.5s-1.3,1.4-2,1.9
		c-0.8,0.5-1.5,0.8-2.3,0.8c-0.7,0-1.3-0.2-1.8-0.5c-0.5-0.3-0.9-0.7-1.2-1.2s-0.5-1.1-0.7-1.7s-0.2-1.3-0.2-1.9V286.1z
		 M116.3,286.3c0,0.2,0.1,0.5,0.1,0.8c0,0.3,0.1,0.6,0.2,0.8c0.1,0.2,0.2,0.4,0.4,0.6s0.4,0.1,0.8,0c0.3-0.3,0.6-0.6,1-0.9
		s0.7-0.7,1-1.1s0.6-0.8,0.8-1.3s0.3-0.9,0.3-1.4c0.1-0.8,0-1.5-0.2-2.2s-0.5-1.1-0.9-1.4s-0.8-0.3-1.3-0.1s-1,0.8-1.5,1.8
		c-0.3,0.6-0.5,1.3-0.6,2.1s-0.2,1.6-0.2,2.2V286.3z"/>
	<path fill="#555555" d="M125.4,289c0-1,0-1.9,0.1-2.9c0-0.9,0.1-1.9,0.1-2.9c-0.1-2.7-0.1-5.3-0.1-7.9c0-2.6-0.1-5.2-0.4-7.9
		c0-0.4,0.1-0.7,0.3-0.9s0.5-0.2,0.9-0.2c0.5,0,1,0.2,1.4,0.5s0.6,0.8,0.6,1.3c0,3.3,0,6.6,0.1,9.9c0.1,3.3,0.2,6.6,0.2,9.9v2.7
		c-0.1,0.2-0.3,0.4-0.6,0.6c-0.3,0.2-0.5,0.3-0.8,0.2c-0.7-0.1-1.2-0.4-1.5-0.8C125.5,290.2,125.4,289.6,125.4,289z"/>
	<path fill="#555555" d="M130.8,289c0-1,0-1.9,0.1-2.9c0-0.9,0.1-1.9,0.1-2.9c-0.1-2.7-0.1-5.3-0.1-7.9c0-2.6-0.1-5.2-0.4-7.9
		c0-0.4,0.1-0.7,0.3-0.9s0.5-0.2,0.9-0.2c0.5,0,1,0.2,1.4,0.5s0.6,0.8,0.6,1.3c0,3.3,0,6.6,0.1,9.9c0.1,3.3,0.2,6.6,0.2,9.9v2.7
		c-0.1,0.2-0.3,0.4-0.6,0.6c-0.3,0.2-0.5,0.3-0.8,0.2c-0.7-0.1-1.2-0.4-1.5-0.8C130.9,290.2,130.8,289.6,130.8,289z"/>
	<path fill="#555555" d="M150.5,281.5c0,0.4-0.1,0.8-0.2,1c-0.1,0.2-0.2,0.4-0.3,0.6s-0.3,0.4-0.6,0.6c-0.3,0.2-0.6,0.5-1.1,0.8
		c-0.4,0.4-1,0.8-1.7,1.4c-0.7,0.6-1.5,1.3-2.4,2.3c-0.4,0.4-0.8,0.7-1.2,1.1c-0.4,0.4-0.8,0.7-1.2,1c-0.4,0.3-0.9,0.5-1.4,0.7
		c-0.5,0.2-1,0.3-1.5,0.3c-1,0-1.7-0.3-2.2-1c-0.5-0.7-0.7-1.5-0.7-2.4c0-0.6,0-1.1,0.1-1.5s0.1-0.9,0.3-1.5
		c-0.3-0.2-0.5-0.4-0.7-0.6c-0.2-0.2-0.3-0.4-0.3-0.7c0-0.3,0.1-0.5,0.2-0.6c0.1-0.1,0.3-0.2,0.5-0.2s0.3-0.1,0.5-0.1
		c0.2,0,0.3-0.1,0.4-0.3c0-0.1,0.1-0.4,0.3-0.8c0.1-0.4,0.3-0.8,0.4-1.2s0.3-0.8,0.4-1.2c0.1-0.4,0.2-0.6,0.3-0.8
		c0.2-0.4,0.3-0.8,0.5-1.2c0.2-0.4,0.4-0.8,0.7-1.1c0.3-0.3,0.6-0.6,0.9-0.8c0.4-0.2,0.8-0.3,1.3-0.3c0.3,0,0.6,0.1,1,0.4
		c0.4,0.3,0.8,0.6,1.2,0.9c0.4,0.4,0.7,0.7,0.9,1.1c0.3,0.4,0.4,0.7,0.4,1c0,0.4-0.1,0.7-0.2,1c-0.2,0.3-0.4,0.6-0.6,0.8
		s-0.5,0.5-0.8,0.7s-0.5,0.4-0.8,0.6c0,0-0.1,0-0.1,0.1s-0.1,0.1-0.2,0.1c0,0-0.1,0.1-0.2,0.2c-0.1,0.1-0.2,0.2-0.3,0.3
		c-0.1,0.1-0.2,0.2-0.3,0.3c-0.1,0.1-0.1,0.2-0.2,0.2c-0.1,0.1-0.2,0.2-0.4,0.3c-0.2,0.2-0.4,0.3-0.7,0.5c-0.2,0.2-0.5,0.3-0.7,0.5
		c-0.2,0.2-0.3,0.3-0.4,0.3l-0.1,0.3c0,0.1-0.1,0.3-0.1,0.6s-0.1,0.7-0.1,1.1c0,0.4-0.1,0.8-0.1,1.2s-0.1,0.7-0.1,1c0,0,0,0,0,0.1
		c0,0,0.1,0.1,0.1,0.1c0.2,0,0.4-0.1,0.5-0.2c0.2-0.2,0.3-0.3,0.5-0.4l5.6-5.2l1.4-2.2c0.1-0.2,0.3-0.3,0.7-0.5
		c0.3-0.2,0.7-0.3,1-0.3s0.7,0.1,0.9,0.3C150.4,280.3,150.5,280.8,150.5,281.5z M142.8,278.7c0.1-0.1,0.2-0.2,0.1-0.4
		c0-0.2-0.1-0.4-0.2-0.5s-0.2-0.2-0.4-0.3c-0.2,0-0.3,0.1-0.5,0.3c-0.1,0.1-0.2,0.3-0.4,0.6s-0.4,0.6-0.5,0.9s-0.3,0.5-0.4,0.8
		c-0.1,0.2-0.1,0.3-0.1,0.2L142.8,278.7z"/>
	<path fill="#555555" d="M153.1,289.9c0-0.8-0.1-2-0.2-3.4s-0.2-2.9-0.4-4.4c-0.1-1.5-0.3-3-0.4-4.3s-0.3-2.4-0.4-3.2
		c0-0.3,0.1-0.5,0.4-0.6s0.6-0.1,0.8-0.1c0.3,0,0.7,0.1,1,0.3c0.4,0.2,0.6,0.4,0.7,0.8c0,0.1,0,0.3,0,0.5c0,0.2,0,0.5,0.1,0.8
		c0,0.3,0,0.5,0.1,0.8c0,0.2,0,0.4,0,0.5c0,0.1,0,0.2,0,0.3s0,0.1,0,0.2s0,0.1,0,0.2c0,0.1,0.1,0.2,0.1,0.4c0,0,0.1-0.1,0.2-0.2
		c0.1-0.1,0.1-0.1,0.1-0.1c0.4-0.5,0.7-1,1.1-1.4s0.7-0.8,1.1-1.2c0.4-0.4,0.8-0.8,1.2-1.2s1-0.9,1.6-1.4c0.1-0.1,0.2-0.2,0.3-0.3
		s0.1-0.1,0.2-0.1c0.1,0,0.1-0.1,0.2-0.1s0.2,0,0.3,0c0.4,0,0.8,0.1,1.2,0.4c0.4,0.3,0.6,0.6,0.6,1.1c0,0.2-0.1,0.3-0.2,0.5
		c-0.1,0.2-0.3,0.3-0.4,0.5c-0.2,0.2-0.3,0.3-0.5,0.4s-0.3,0.2-0.5,0.2c-0.6,0.5-1.3,1.2-1.9,1.8c-0.7,0.7-1.3,1.4-1.9,2.2
		c-0.6,0.8-1.1,1.6-1.4,2.5c-0.4,0.9-0.6,1.7-0.6,2.6c0,0.8,0.1,1.6,0.2,2.4c0.1,0.8,0.2,1.6,0.2,2.4v1.2c-0.2,0.2-0.4,0.3-0.5,0.5
		s-0.3,0.2-0.6,0.2c-0.4,0-0.8-0.2-1.2-0.5C153.4,290.6,153.2,290.3,153.1,289.9z"/>
</g>
<g>
	<path fill="#555555" d="M286.8,286.1c0.3-2.3,0.5-4.1,0.7-5.4c0.2-1.3,0.3-2.2,0.4-2.8c0.1-0.7,0.1-1.1,0.1-1.2
		c0.2-0.7,0.4-1.5,0.7-2.4c0.2-0.8,0.5-1.6,0.9-2.4s0.9-1.3,1.5-1.8c0.6-0.5,1.4-0.7,2.4-0.7c0.4,0,0.8,0,1.1,0.1
		c0.3,0.1,0.7,0.2,1,0.3c0.3,0.1,0.6,0.3,0.9,0.5c0.3,0.2,0.6,0.4,0.9,0.7c0.2,0.2,0.4,0.3,0.4,0.4s0.1,0.2,0.1,0.4
		c0,0.3-0.1,0.6-0.3,0.9s-0.5,0.4-0.9,0.4c-0.3,0-0.6-0.1-0.8-0.2s-0.4-0.3-0.6-0.5c-0.2-0.2-0.4-0.4-0.6-0.5
		c-0.2-0.2-0.5-0.2-0.9-0.2c-0.4,0-0.7,0.1-1,0.3s-0.5,0.5-0.7,0.8c-0.2,0.3-0.4,0.6-0.5,1s-0.2,0.7-0.2,1.1l-1.7,11.2
		c0,0,0,0.2,0,0.3c0,0.2,0,0.3,0,0.4c0,0.2,0,0.4,0,0.6s0,0.5,0.1,0.7c0,0.2,0.1,0.5,0.2,0.6c0.1,0.2,0.3,0.3,0.5,0.3
		c0.1,0,0.3,0,0.4-0.1c1.1-0.8,2.1-1.6,2.9-2.6s1.6-2.1,2.3-3.2c0,0,0.1-0.2,0.2-0.3s0.2-0.4,0.3-0.6s0.2-0.4,0.3-0.6
		c0.1-0.2,0.2-0.3,0.2-0.4c0.1-0.3,0.2-0.6,0.3-0.9s0.2-0.6,0.3-0.9s0.3-0.5,0.5-0.7s0.5-0.3,1-0.3c0.3,0,0.6,0.1,0.9,0.4
		c0.3,0.3,0.5,0.6,0.5,1v0.1c-0.6,1.7-1.3,3.2-2.3,4.7c-0.9,1.4-2,2.8-3.1,4.3c-0.7,0.8-1.5,1.5-2.4,2s-1.9,0.8-3.1,0.8h-0.2
		c-1.1-0.4-1.8-1-2.1-1.8c-0.4-0.8-0.5-1.7-0.5-2.8V286.1z"/>
	<path fill="#555555" d="M302.1,286.1l1.3-9c0-0.3,0.2-0.5,0.4-0.7c0.2-0.1,0.5-0.2,0.8-0.2c0.5,0,0.9,0.1,1.2,0.4
		c0.3,0.3,0.6,0.7,0.8,1.1h0c0.3,0,0.5-0.1,0.8-0.2c0.2-0.1,0.5-0.2,0.8-0.2c0.8,0,1.4,0.2,1.9,0.7s1,1,1.3,1.7
		c0.3,0.7,0.6,1.4,0.7,2.2c0.2,0.8,0.2,1.5,0.2,2c0,0.7-0.2,1.5-0.5,2.4c-0.4,0.9-0.8,1.7-1.4,2.5s-1.3,1.4-2,1.9
		c-0.8,0.5-1.5,0.8-2.3,0.8c-0.7,0-1.3-0.2-1.8-0.5c-0.5-0.3-0.9-0.7-1.2-1.2s-0.5-1.1-0.7-1.7s-0.2-1.3-0.2-1.9V286.1z M305,286.3
		c0,0.2,0.1,0.5,0.1,0.8c0,0.3,0.1,0.6,0.2,0.8c0.1,0.2,0.2,0.4,0.4,0.6s0.4,0.1,0.8,0c0.3-0.3,0.6-0.6,1-0.9s0.7-0.7,1-1.1
		s0.6-0.8,0.8-1.3s0.3-0.9,0.3-1.4c0.1-0.8,0-1.5-0.2-2.2s-0.5-1.1-0.9-1.4s-0.8-0.3-1.3-0.1s-1,0.8-1.5,1.8
		c-0.3,0.6-0.5,1.3-0.6,2.1s-0.2,1.6-0.2,2.2V286.3z"/>
	<path fill="#555555" d="M314.2,278.1c-0.1-0.6-0.1-1.2-0.3-1.8c0-0.5,0.2-0.8,0.5-1c0.3-0.1,0.7-0.2,1.1-0.2h0.7
		c0.4,0.2,0.6,0.4,0.7,0.6s0.2,0.5,0.3,0.8c0,0.3,0.1,0.6,0.1,0.9c0,0.3,0,0.6,0,0.9c0,0.1,0,0.3,0,0.6s0,0.6,0,0.9
		c0,0.3,0,0.6,0.1,0.8s0.1,0.4,0.2,0.5l3.1-5.8c0.1-0.3,0.3-0.5,0.6-0.7c0.3-0.2,0.6-0.2,0.9-0.2c0.5,0,0.9,0.1,1.2,0.3
		c0.3,0.2,0.4,0.4,0.5,0.6s0.2,0.5,0.2,0.9c0,0.4,0,0.7,0.1,1.2c0,0.1,0,0.4,0,0.8c0,0.4,0.1,0.8,0.1,1.2s0.1,0.8,0.1,1.2
		s0.1,0.6,0.1,0.8h0.1c0-0.2,0.1-0.5,0.3-0.9c0.1-0.5,0.3-1,0.4-1.5c0.2-0.5,0.3-1,0.5-1.5s0.2-0.8,0.3-1c0,0,0.1-0.1,0.1-0.3
		s0.1-0.3,0.2-0.5s0.1-0.3,0.2-0.5s0.1-0.3,0.1-0.3c0.2-0.3,0.3-0.4,0.5-0.4s0.4,0,0.6,0c0.6,0,1,0.1,1.4,0.4s0.6,0.7,0.7,1.1
		c0.2,0.4,0.3,0.9,0.3,1.5s0.2,1,0.2,1.5c0,0,0,0,0,0.1s0,0.1,0,0.1l1.9,10.2c0.1,0.1,0.1,0.2,0.2,0.2c0,0.1,0,0.2,0,0.3
		c0,0.3-0.1,0.5-0.4,0.8s-0.5,0.4-0.8,0.4c-0.4,0-0.8-0.1-1.2-0.4s-0.7-0.6-0.8-1l-1.6-8.3l-0.2-0.3c0,0.1-0.1,0.5-0.3,1
		c-0.2,0.6-0.3,1.2-0.5,2.1s-0.5,1.8-0.7,2.8c-0.3,1-0.5,2.1-0.8,3.2c0,0.2-0.2,0.4-0.4,0.5c-0.2,0.1-0.4,0.2-0.6,0.2
		c-0.5,0-0.9-0.1-1.2-0.2c-0.3-0.1-0.5-0.3-0.7-0.5c-0.2-0.2-0.3-0.5-0.4-0.8s-0.1-0.7-0.2-1.1c0-0.1,0-0.4-0.1-1
		c0-0.6-0.1-1.2-0.2-2c-0.1-0.7-0.1-1.5-0.2-2.2s-0.1-1.3-0.1-1.8c0-0.1,0-0.2,0-0.2s0-0.1,0-0.1s0-0.1,0-0.1c0-0.1-0.1-0.2-0.1-0.3
		l-1,2.4l-1.6,5.9l-0.4,2.2c0,0.1-0.1,0.3-0.2,0.4s-0.2,0.2-0.4,0.2s-0.3,0.1-0.4,0.1s-0.3,0-0.4,0c-0.5,0-1-0.2-1.3-0.6
		c-0.4-0.4-0.6-0.8-0.6-1.2c0-0.2,0-0.5-0.1-1c0-0.5-0.1-1-0.1-1.7c0-0.7-0.1-1.3-0.1-2.1s-0.1-1.4-0.1-2.1c0-0.7-0.1-1.2-0.1-1.7
		s-0.1-0.8-0.1-1V280C314.3,279.4,314.3,278.8,314.2,278.1z"/>
	<path fill="#555555" d="M334.6,278.1c-0.1-0.6-0.1-1.2-0.3-1.8c0-0.5,0.2-0.8,0.5-1c0.3-0.1,0.7-0.2,1.1-0.2h0.7
		c0.4,0.2,0.6,0.4,0.7,0.6s0.2,0.5,0.3,0.8c0,0.3,0.1,0.6,0.1,0.9c0,0.3,0,0.6,0,0.9c0,0.1,0,0.3,0,0.6s0,0.6,0,0.9
		c0,0.3,0,0.6,0.1,0.8s0.1,0.4,0.2,0.5l3.1-5.8c0.1-0.3,0.3-0.5,0.6-0.7c0.3-0.2,0.6-0.2,0.9-0.2c0.5,0,0.9,0.1,1.2,0.3
		c0.3,0.2,0.4,0.4,0.5,0.6s0.2,0.5,0.2,0.9c0,0.4,0,0.7,0.1,1.2c0,0.1,0,0.4,0,0.8c0,0.4,0.1,0.8,0.1,1.2s0.1,0.8,0.1,1.2
		s0.1,0.6,0.1,0.8h0.1c0-0.2,0.1-0.5,0.3-0.9c0.1-0.5,0.3-1,0.4-1.5c0.2-0.5,0.3-1,0.5-1.5s0.2-0.8,0.3-1c0,0,0.1-0.1,0.1-0.3
		s0.1-0.3,0.2-0.5s0.1-0.3,0.2-0.5s0.1-0.3,0.1-0.3c0.2-0.3,0.3-0.4,0.5-0.4s0.4,0,0.6,0c0.6,0,1,0.1,1.4,0.4s0.6,0.7,0.7,1.1
		c0.2,0.4,0.3,0.9,0.3,1.5s0.2,1,0.2,1.5c0,0,0,0,0,0.1s0,0.1,0,0.1l1.9,10.2c0.1,0.1,0.1,0.2,0.2,0.2c0,0.1,0,0.2,0,0.3
		c0,0.3-0.1,0.5-0.4,0.8s-0.5,0.4-0.8,0.4c-0.4,0-0.8-0.1-1.2-0.4s-0.7-0.6-0.8-1l-1.6-8.3l-0.2-0.3c0,0.1-0.1,0.5-0.3,1
		c-0.2,0.6-0.3,1.2-0.5,2.1s-0.5,1.8-0.7,2.8c-0.3,1-0.5,2.1-0.8,3.2c0,0.2-0.2,0.4-0.4,0.5c-0.2,0.1-0.4,0.2-0.6,0.2
		c-0.5,0-0.9-0.1-1.2-0.2c-0.3-0.1-0.5-0.3-0.7-0.5c-0.2-0.2-0.3-0.5-0.4-0.8s-0.1-0.7-0.2-1.1c0-0.1,0-0.4-0.1-1
		c0-0.6-0.1-1.2-0.2-2c-0.1-0.7-0.1-1.5-0.2-2.2s-0.1-1.3-0.1-1.8c0-0.1,0-0.2,0-0.2s0-0.1,0-0.1s0-0.1,0-0.1c0-0.1-0.1-0.2-0.1-0.3
		l-1,2.4l-1.6,5.9l-0.4,2.2c0,0.1-0.1,0.3-0.2,0.4s-0.2,0.2-0.4,0.2s-0.3,0.1-0.4,0.1s-0.3,0-0.4,0c-0.5,0-1-0.2-1.3-0.6
		c-0.4-0.4-0.6-0.8-0.6-1.2c0-0.2,0-0.5-0.1-1c0-0.5-0.1-1-0.1-1.7c0-0.7-0.1-1.3-0.1-2.1s-0.1-1.4-0.1-2.1c0-0.7-0.1-1.2-0.1-1.7
		s-0.1-0.8-0.1-1V280C334.7,279.4,334.7,278.8,334.6,278.1z"/>
	<path fill="#555555" d="M361.7,288.1c-0.2,0.4-0.3,0.7-0.5,1.1c-0.2,0.4-0.4,0.8-0.6,1.1s-0.5,0.6-0.8,0.8
		c-0.3,0.2-0.7,0.3-1.2,0.3c-0.8,0-1.5-0.2-2-0.6c-0.5-0.4-1-0.9-1.3-1.5c-0.3-0.6-0.6-1.3-0.7-2s-0.2-1.4-0.2-2l0.3-8.5
		c0-0.2,0-0.3,0.1-0.5s0.2-0.3,0.4-0.5s0.4-0.3,0.6-0.4c0.2-0.1,0.4-0.1,0.6-0.1c0.5,0,1,0.2,1.4,0.5c0.4,0.3,0.6,0.8,0.6,1.3v0.4
		c-0.3,0.4-0.5,1-0.7,1.7c-0.2,0.7-0.3,1.4-0.4,2.2s-0.2,1.6-0.2,2.4c0,0.8,0,1.6,0.1,2.2c0.1,0.7,0.2,1.3,0.4,1.7
		c0.2,0.5,0.4,0.8,0.7,0.9c0.1,0,0.3-0.1,0.5-0.2s0.5-0.3,0.8-0.7s0.6-0.8,0.9-1.4c0.3-0.6,0.6-1.4,0.8-2.4c0.2-1,0.4-2.2,0.5-3.6
		c0.1-1.4,0.2-3.1,0.1-5.1c0.1-0.3,0.2-0.4,0.4-0.4s0.4,0,0.5,0c0.2,0,0.4,0,0.5,0s0.3,0.1,0.5,0.3c0.1,0.1,0.2,0.3,0.4,0.5
		s0.2,0.4,0.2,0.4l0.6,15.6c0,0.4-0.1,0.6-0.3,0.9c-0.2,0.2-0.5,0.4-0.8,0.4c-0.1,0-0.3,0-0.4,0c-0.2,0-0.3-0.1-0.5-0.1
		c-0.2-0.1-0.3-0.2-0.4-0.3c-0.1-0.1-0.2-0.2-0.2-0.4l-0.6-3.5L361.7,288.1z"/>
	<path fill="#555555" d="M377,290.2c-0.3-0.5-0.6-1.1-0.8-2c-0.2-0.8-0.4-1.7-0.6-2.6c-0.2-0.9-0.4-1.8-0.5-2.7
		c-0.2-0.9-0.3-1.6-0.5-2.1s-0.4-0.8-0.6-0.9s-0.5,0.2-0.7,0.9l-3.1,9.4c-0.1,0.3-0.3,0.6-0.4,0.7c-0.2,0.1-0.4,0.2-0.8,0.2
		c-0.2,0-0.4,0-0.6-0.1s-0.4-0.1-0.6-0.3c-0.2-0.1-0.3-0.3-0.5-0.4c-0.1-0.2-0.2-0.4-0.2-0.6c0.1-0.3,0.1-0.8,0.2-1.5
		c0.1-0.8,0.1-1.6,0.1-2.6c0-1,0-2,0.1-3.1c0-1.1,0-2.1,0-3.1c0-0.9,0-1.8-0.1-2.5c0-0.7,0-1.1-0.1-1.4c0-0.2,0-0.5,0-0.7
		c0-0.2,0-0.5,0.1-0.7c0.1-0.2,0.2-0.4,0.3-0.5c0.2-0.1,0.4-0.2,0.7-0.2c0.4,0,0.9,0.2,1.2,0.6s0.6,0.8,0.6,1.2c0,0.6,0,1.2-0.1,1.8
		c-0.1,0.6-0.1,1.2-0.1,1.8c0,0.4,0,0.7,0,0.9s0,0.6,0.1,0.9c0.1-0.2,0.2-0.5,0.4-1c0.2-0.5,0.3-1,0.5-1.5c0.2-0.5,0.4-1,0.5-1.5
		c0.2-0.5,0.3-0.8,0.4-1c0.2-0.5,0.4-0.9,0.7-1.4c0.3-0.4,0.8-0.7,1.3-0.7c0.4,0,0.7,0.1,1,0.3c0.3,0.2,0.5,0.5,0.8,0.8
		s0.4,0.7,0.5,1.1s0.2,0.7,0.3,0.9l1.9,8.8l1.5,4c0,0,0,0.1,0,0.2s0,0.2,0,0.2c0,0.3-0.1,0.6-0.2,0.8c-0.1,0.3-0.4,0.4-0.7,0.4
		c-0.4,0-0.8-0.1-1.2-0.3S377.2,290.6,377,290.2z"/>
	<path fill="#555555" d="M381.2,264.5c0-0.2,0.1-0.3,0.4-0.4c0.3-0.1,0.5-0.2,0.6-0.2c0.4,0,0.7,0.1,1.2,0.3
		c0.4,0.2,0.7,0.5,0.7,0.9s-0.1,0.7-0.2,0.8s-0.4,0.2-0.8,0.2c-0.4,0-0.8-0.1-1.3-0.4C381.5,265.4,381.2,265,381.2,264.5z
		 M383.2,290.1c-0.2-2.3-0.4-4.3-0.6-6c-0.2-1.7-0.3-3.1-0.4-4.2c-0.1-1.1-0.2-2-0.3-2.7c-0.1-0.7-0.1-1.2-0.2-1.5
		c0-0.3-0.1-0.6-0.1-0.7c0-0.1,0-0.2,0-0.2v-0.1c0-0.3,0.1-0.5,0.3-0.7c0.2-0.2,0.5-0.3,0.7-0.3c0.4,0,0.7,0.1,1.1,0.2
		c0.4,0.1,0.7,0.4,0.8,0.7c0.2,1.1,0.4,2.3,0.4,3.5c0.1,1.2,0.2,2.3,0.2,3.5c0.1,1.2,0.1,2.3,0.2,3.5s0.3,2.3,0.6,3.5
		c0,0,0,0.1,0.1,0.3s0.1,0.3,0.1,0.5s0.1,0.3,0.1,0.5c0,0.1,0,0.2,0,0.3v0.1c0,0,0,0,0,0.1c0,0.3-0.1,0.6-0.4,0.8
		c-0.3,0.3-0.5,0.4-0.8,0.4c-0.1,0-0.2-0.1-0.5-0.1c-0.3-0.1-0.5-0.1-0.5-0.2c-0.1,0-0.2-0.1-0.3-0.2c-0.1-0.1-0.2-0.2-0.3-0.3
		s-0.2-0.2-0.3-0.3S383.1,290.2,383.2,290.1z"/>
	<path fill="#555555" d="M387.6,287.2c-0.2-0.7-0.2-1.5,0-2.5s0.5-1.9,0.8-2.9s0.9-1.9,1.4-2.8c0.6-0.9,1.2-1.6,1.8-2.1
		c0.6-0.5,1.3-0.8,2-0.9s1.3,0.2,1.9,0.9c0,0,0,0.1,0,0.2c0,0.1,0,0.3,0.1,0.6c0,0.3,0,0.7,0.1,1.2c0,0.5,0,1.2,0,2.2
		c0,0,0.1,0.1,0.1,0.2s0.1,0.2,0.1,0.2c-0.1,0.3-0.2,0.5-0.4,0.7c-0.2,0.2-0.5,0.3-0.8,0.3c-0.4,0-0.7-0.1-1-0.2s-0.4-0.4-0.5-0.9
		c0-0.1,0.1-0.2,0-0.4c0-0.2-0.1-0.5-0.1-0.8c-0.1-0.3-0.1-0.6-0.2-0.8c0-0.3-0.1-0.5-0.1-0.7c0,0-0.1,0-0.1,0.1s-0.1,0.1-0.1,0.1
		c-0.4,0.7-0.8,1.5-1.1,2.3c-0.3,0.9-0.6,1.7-0.8,2.6s-0.2,1.8-0.2,2.6c0.1,0.9,0.3,1.7,0.8,2.4c0.3,0,0.6-0.1,0.9-0.4
		s0.5-0.5,0.7-0.8c0.4-0.5,0.8-0.9,1.2-1.4s0.7-1,1.1-1.5c0.1-0.2,0.2-0.4,0.3-0.6s0.2-0.3,0.3-0.5s0.2-0.2,0.4-0.3
		c0.2-0.1,0.4-0.1,0.7-0.1c0.4,0,0.7,0.1,1.1,0.3s0.5,0.5,0.5,0.9c0,0.5-0.2,1.2-0.7,2s-1.1,1.6-1.8,2.3c-0.7,0.8-1.4,1.4-2.2,1.9
		s-1.5,0.8-2,0.8c-0.6,0-1.1-0.1-1.6-0.3s-1-0.5-1.4-0.9s-0.7-0.8-0.9-1.3C387.8,288.4,387.6,287.8,387.6,287.2z"/>
	<path fill="#555555" d="M408.3,281.6c-0.2,0.4-0.5,0.8-0.7,1.4s-0.6,1.1-0.9,1.7s-0.6,1.2-1,1.8s-0.7,1.1-1.1,1.6s-0.8,0.9-1.2,1.2
		s-0.9,0.5-1.3,0.6c-0.2,0-0.4,0-0.6-0.1s-0.5-0.1-0.7-0.2s-0.4-0.2-0.6-0.4s-0.2-0.4-0.2-0.6c0-2.4,0.2-4.6,0.5-6.5
		s0.8-3.7,1.5-5.2s1.6-2.7,2.7-3.7s2.4-1.7,4-2.1c0,0,0.1,0,0.3,0s0.2,0,0.3,0c0.7,0,1.2,0.3,1.5,1s0.6,1.7,0.7,3.2s0.3,3.3,0.3,5.6
		s0.2,5,0.4,8.1c0.1,0.3,0.1,0.5,0.1,0.7s0,0.4,0,0.7c0,0.4-0.1,0.6-0.3,0.8s-0.5,0.3-0.8,0.3c-0.7,0-1.2-0.2-1.4-0.6
		s-0.5-0.9-0.6-1.5c0,0,0-0.2-0.1-0.6s-0.1-0.8-0.1-1.2s-0.1-0.9-0.2-1.4s-0.1-0.9-0.1-1.2v-0.1c0-0.2-0.1-0.5-0.1-0.9s0-0.7-0.1-1
		c0-0.4-0.1-0.8-0.1-1.2L408.3,281.6z M407.5,274.7c-0.6,0.5-1.3,1.1-1.9,1.9s-1,1.6-1.3,2.3c-0.1,0.4-0.2,0.8-0.4,1.4
		s-0.3,1.2-0.4,1.8s-0.2,1.1-0.3,1.7s-0.1,0.8-0.1,1c0,0,0.1,0,0.1-0.1s0.1-0.1,0.1-0.1c1.5-1.4,2.5-2.9,3.1-4.6
		S407.4,276.6,407.5,274.7z"/>
	<path fill="#555555" d="M417.5,281.2c-0.3,0-0.6,0.1-0.9,0.2s-0.6,0.2-0.9,0.2c0,0-0.2,0-0.4,0s-0.3,0-0.4,0
		c-0.1-0.1-0.2-0.2-0.3-0.3s-0.2-0.1-0.4-0.2s-0.2-0.2-0.3-0.3s-0.1-0.3-0.1-0.5c0-0.4,0.1-0.6,0.4-0.9s0.6-0.4,1-0.6
		s0.8-0.3,1.1-0.5s0.7-0.3,0.9-0.5v-1.5c0-1.7-0.1-3.5-0.2-5.2s-0.2-3.5-0.2-5.2c0-0.5,0.1-0.8,0.4-0.9s0.6-0.2,0.9-0.2
		c0.5,0,0.8,0.1,1,0.4s0.4,0.6,0.5,1s0.1,0.8,0.1,1.2s0,0.8,0,1.1c0,0.3,0,0.8,0.1,1.6s0.1,1.6,0.1,2.5s0.1,1.7,0.1,2.5
		s0.1,1.3,0.1,1.6c0.1,0,0.3-0.1,0.5-0.2s0.6-0.2,0.9-0.3s0.6-0.2,0.9-0.3s0.5-0.2,0.6-0.2c0.6-0.3,1.2-0.5,1.9-0.9s1.3-0.5,2-0.5
		c0.5,0,0.8,0.2,1.1,0.5s0.4,0.7,0.4,1.1c0,0.3-0.1,0.5-0.4,0.7s-0.5,0.3-0.7,0.4l-6.4,2.4c-0.1,0-0.1,0.1-0.2,0.1s-0.1,0.1-0.2,0.2
		v1.1c0,0.8,0,1.7,0.1,2.5s0.1,1.7,0.2,2.5c0.1,0.7,0.2,1.4,0.4,2.1s0.2,1.4,0.2,2.1c0,0.2-0.1,0.5-0.2,0.8s-0.4,0.5-0.7,0.5
		c-0.6,0-1.1-0.2-1.5-0.6s-0.6-0.9-0.7-1.5c-0.1-1.2-0.2-2.6-0.4-4s-0.3-2.8-0.4-4.2H417.5z"/>
	<path fill="#555555" d="M429.3,264.5c0-0.2,0.1-0.3,0.4-0.4s0.5-0.2,0.6-0.2c0.4,0,0.7,0.1,1.2,0.3s0.7,0.5,0.7,0.9
		s-0.1,0.7-0.2,0.8s-0.4,0.2-0.8,0.2c-0.4,0-0.8-0.1-1.3-0.4S429.3,265,429.3,264.5z M431.3,290.1c-0.2-2.3-0.4-4.3-0.6-6
		s-0.3-3.1-0.4-4.2s-0.2-2-0.3-2.7s-0.1-1.2-0.2-1.5s-0.1-0.6-0.1-0.7s0-0.2,0-0.2v-0.1c0-0.3,0.1-0.5,0.3-0.7s0.5-0.3,0.7-0.3
		c0.4,0,0.7,0.1,1.1,0.2s0.7,0.4,0.8,0.7c0.2,1.1,0.4,2.3,0.4,3.5s0.2,2.3,0.2,3.5s0.1,2.3,0.2,3.5s0.3,2.3,0.6,3.5
		c0,0,0,0.1,0.1,0.3s0.1,0.3,0.1,0.5s0.1,0.3,0.1,0.5s0,0.2,0,0.3v0.1c0,0,0,0,0,0.1c0,0.3-0.1,0.6-0.4,0.8s-0.5,0.4-0.8,0.4
		c-0.1,0-0.2-0.1-0.5-0.1s-0.5-0.1-0.5-0.2c-0.1,0-0.2-0.1-0.3-0.2s-0.2-0.2-0.3-0.3s-0.2-0.2-0.3-0.3S431.2,290.2,431.3,290.1z"/>
	<path fill="#555555" d="M435.8,286.1l1.3-9c0-0.3,0.2-0.5,0.4-0.7s0.5-0.2,0.8-0.2c0.5,0,0.9,0.1,1.2,0.4s0.6,0.7,0.8,1.1h0
		c0.3,0,0.5-0.1,0.8-0.2s0.5-0.2,0.8-0.2c0.8,0,1.4,0.2,1.9,0.7s1,1,1.3,1.7s0.6,1.4,0.7,2.2s0.2,1.5,0.2,2c0,0.7-0.2,1.5-0.5,2.4
		s-0.8,1.7-1.4,2.5s-1.3,1.4-2,1.9s-1.5,0.8-2.3,0.8c-0.7,0-1.3-0.2-1.8-0.5s-0.9-0.7-1.2-1.2s-0.5-1.1-0.7-1.7s-0.2-1.3-0.2-1.9
		V286.1z M438.8,286.3c0,0.2,0.1,0.5,0.1,0.8s0.1,0.6,0.2,0.8s0.2,0.4,0.4,0.6s0.4,0.1,0.8,0c0.3-0.3,0.6-0.6,1-0.9s0.7-0.7,1-1.1
		s0.6-0.8,0.8-1.3s0.3-0.9,0.3-1.4c0.1-0.8,0-1.5-0.2-2.2s-0.5-1.1-0.9-1.4s-0.8-0.3-1.3-0.1s-1,0.8-1.5,1.8
		c-0.3,0.6-0.5,1.3-0.6,2.1s-0.2,1.6-0.2,2.2V286.3z"/>
	<path fill="#555555" d="M457.6,290.2c-0.3-0.5-0.6-1.1-0.8-2s-0.4-1.7-0.6-2.6s-0.4-1.8-0.5-2.7s-0.3-1.6-0.5-2.1s-0.4-0.8-0.6-0.9
		s-0.5,0.2-0.7,0.9l-3.1,9.4c-0.1,0.3-0.3,0.6-0.4,0.7s-0.4,0.2-0.8,0.2c-0.2,0-0.4,0-0.6-0.1s-0.4-0.1-0.6-0.3s-0.3-0.3-0.5-0.4
		s-0.2-0.4-0.2-0.6c0.1-0.3,0.1-0.8,0.2-1.5s0.1-1.6,0.1-2.6s0-2,0.1-3.1s0-2.1,0-3.1s0-1.8-0.1-2.5s0-1.1-0.1-1.4
		c0-0.2,0-0.5,0-0.7s0-0.5,0.1-0.7s0.2-0.4,0.3-0.5s0.4-0.2,0.7-0.2c0.4,0,0.9,0.2,1.2,0.6s0.6,0.8,0.6,1.2c0,0.6,0,1.2-0.1,1.8
		s-0.1,1.2-0.1,1.8c0,0.4,0,0.7,0,0.9s0,0.6,0.1,0.9c0.1-0.2,0.2-0.5,0.4-1s0.3-1,0.5-1.5s0.4-1,0.5-1.5s0.3-0.8,0.4-1
		c0.2-0.5,0.4-0.9,0.7-1.4s0.8-0.7,1.3-0.7c0.4,0,0.7,0.1,1,0.3s0.5,0.5,0.8,0.8s0.4,0.7,0.5,1.1s0.2,0.7,0.3,0.9l1.9,8.8l1.5,4
		c0,0,0,0.1,0,0.2s0,0.2,0,0.2c0,0.3-0.1,0.6-0.2,0.8s-0.4,0.4-0.7,0.4c-0.4,0-0.8-0.1-1.2-0.3S457.8,290.6,457.6,290.2z"/>
	<path fill="#555555" d="M467.4,290.1c0-0.1,0-0.2,0-0.3s0.1-0.2,0.2-0.3c0.3-0.4,0.6-0.7,0.9-1.1s0.7-0.8,1-1.2s0.6-0.8,0.9-1.2
		s0.5-0.8,0.7-1.3v-0.2l-4.6,0.9h-0.5c-0.3,0-0.7,0-1.2-0.1s-0.9-0.1-1.4-0.3s-0.8-0.4-1.2-0.7s-0.5-0.7-0.5-1.1
		c0-0.5,0.3-1.1,0.8-1.8s1.2-1.3,1.9-1.9s1.5-1.2,2.2-1.8s1.3-1,1.8-1.3c0.5-0.3,1.1-0.5,1.8-0.7s1.3-0.3,1.9-0.3
		c0.5,0,0.9,0.1,1.2,0.3s0.5,0.5,0.5,1c0,0.2,0,0.4-0.1,0.6s-0.2,0.3-0.4,0.4c-0.8-0.1-1.5,0-2.1,0.2s-1.3,0.4-1.9,0.8
		s-1.1,0.8-1.7,1.2s-1,1-1.5,1.5c-0.1,0.2-0.3,0.4-0.5,0.7s-0.3,0.5-0.3,0.5v0c0.6,0,1.2-0.1,1.8-0.2s1.2-0.2,1.8-0.4
		s1.2-0.3,1.8-0.4s1.2-0.2,1.8-0.2c0.2,0,0.5,0,0.8,0.1s0.5,0.1,0.8,0.2s0.4,0.3,0.6,0.5s0.2,0.5,0.2,0.8c0,0.4-0.1,0.9-0.3,1.3
		s-0.6,0.9-1,1.5s-1,1.3-1.7,2.1s-1.5,1.9-2.4,3.2c0,0.1-0.2,0.1-0.3,0.1s-0.3,0-0.4,0c-0.3,0-0.7-0.1-1-0.4
		S467.4,290.5,467.4,290.1z"/>
</g>
<g>
	<path fill="#555555" d="M588.6,282.4h-0.1c0,1,0,1.9,0.1,2.8s0.1,1.9,0.1,2.9c0,0.3,0,0.6,0,0.8s-0.1,0.5-0.1,0.7s-0.2,0.4-0.4,0.5
		s-0.4,0.2-0.8,0.2c-0.7,0-1.1-0.3-1.4-1c-0.1-1.1-0.2-2.2-0.2-3.3s-0.1-2.2-0.2-3.3c0-0.3-0.2-0.6-0.4-0.9s-0.3-0.6-0.3-0.9
		c0-0.2,0.1-0.4,0.2-0.5s0.2-0.3,0.2-0.6c0-1.8-0.1-3.6-0.2-5.4s-0.2-3.6-0.2-5.4v-0.6c0.2-0.2,0.3-0.4,0.5-0.4s0.4-0.1,0.7-0.1
		c0.7,0,1.1,0.2,1.3,0.6s0.3,0.9,0.3,1.5l0.3,9.4c0,0.1,0.1,0.2,0.1,0.3s0.1,0.2,0.3,0.2c0.2,0,0.5,0,0.9-0.1s0.9-0.2,1.4-0.3
		s0.9-0.2,1.3-0.4s0.6-0.3,0.7-0.4c0-0.2,0-0.5,0-0.9s0-0.7,0-0.9c0-1,0-2,0-2.9s-0.1-1.9-0.1-2.9c0-0.2,0-0.6-0.1-1.2
		s-0.1-1.3-0.2-2s-0.1-1.4-0.2-2s-0.1-1-0.1-1.2c0,0,0-0.1,0-0.2s0-0.2,0-0.3c0-0.3,0.1-0.5,0.3-0.7s0.5-0.2,0.7-0.2
		c0.6,0,1,0.2,1.2,0.5s0.5,0.8,0.6,1.3c0,0.3,0.1,0.7,0.1,1.3s0.1,1.3,0.2,2s0.1,1.4,0.2,2s0.1,1,0.1,1.3v0.6c0,0.1,0,0.3,0.1,0.7
		s0.1,0.6,0.1,0.7v14.4c0.1,0.4,0.2,0.7,0.2,1s0.1,0.6,0.1,0.9c0,0.3-0.1,0.6-0.2,0.9s-0.4,0.5-0.8,0.5c-0.3,0-0.6-0.1-0.9-0.2
		s-0.5-0.4-0.7-0.6s-0.4-0.5-0.5-0.9s-0.2-0.6-0.2-1v-7.2L588.6,282.4z"/>
	<path fill="#555555" d="M605.9,281.6c-0.2,0.4-0.5,0.8-0.7,1.4s-0.6,1.1-0.9,1.7s-0.6,1.2-1,1.8s-0.7,1.1-1.1,1.6s-0.8,0.9-1.2,1.2
		s-0.9,0.5-1.3,0.6c-0.2,0-0.4,0-0.6-0.1s-0.5-0.1-0.7-0.2s-0.4-0.2-0.6-0.4s-0.2-0.4-0.2-0.6c0-2.4,0.2-4.6,0.5-6.5
		s0.8-3.7,1.5-5.2s1.6-2.7,2.7-3.7s2.4-1.7,4-2.1c0,0,0.1,0,0.3,0s0.2,0,0.3,0c0.7,0,1.2,0.3,1.5,1s0.6,1.7,0.7,3.2s0.3,3.3,0.3,5.6
		s0.2,5,0.4,8.1c0.1,0.3,0.1,0.5,0.1,0.7s0,0.4,0,0.7c0,0.4-0.1,0.6-0.3,0.8s-0.5,0.3-0.8,0.3c-0.7,0-1.2-0.2-1.4-0.6
		s-0.5-0.9-0.6-1.5c0,0,0-0.2-0.1-0.6s-0.1-0.8-0.1-1.2s-0.1-0.9-0.2-1.4s-0.1-0.9-0.1-1.2v-0.1c0-0.2-0.1-0.5-0.1-0.9s0-0.7-0.1-1
		c0-0.4-0.1-0.8-0.1-1.2L605.9,281.6z M605.1,274.7c-0.6,0.5-1.3,1.1-1.9,1.9s-1,1.6-1.3,2.3c-0.1,0.4-0.2,0.8-0.4,1.4
		s-0.3,1.2-0.4,1.8s-0.2,1.1-0.3,1.7s-0.1,0.8-0.1,1c0,0,0.1,0,0.1-0.1s0.1-0.1,0.1-0.1c1.5-1.4,2.5-2.9,3.1-4.6
		S605,276.6,605.1,274.7z"/>
	<path fill="#555555" d="M613.3,289.9c0-0.8-0.1-2-0.2-3.4s-0.2-2.9-0.4-4.4s-0.3-3-0.4-4.3s-0.3-2.4-0.4-3.2c0-0.3,0.1-0.5,0.4-0.6
		s0.6-0.1,0.8-0.1c0.3,0,0.7,0.1,1,0.3s0.6,0.4,0.7,0.8c0,0.1,0,0.3,0,0.5s0,0.5,0.1,0.8s0,0.5,0.1,0.8s0,0.4,0,0.5
		c0,0.1,0,0.2,0,0.3s0,0.1,0,0.2s0,0.1,0,0.2s0.1,0.2,0.1,0.4c0,0,0.1-0.1,0.2-0.2s0.1-0.1,0.1-0.1c0.4-0.5,0.7-1,1.1-1.4
		s0.7-0.8,1.1-1.2s0.8-0.8,1.2-1.2s1-0.9,1.6-1.4c0.1-0.1,0.2-0.2,0.3-0.3s0.1-0.1,0.2-0.1s0.1-0.1,0.2-0.1s0.2,0,0.3,0
		c0.4,0,0.8,0.1,1.2,0.4s0.6,0.6,0.6,1.1c0,0.2-0.1,0.3-0.2,0.5s-0.3,0.3-0.4,0.5s-0.3,0.3-0.5,0.4s-0.3,0.2-0.5,0.2
		c-0.6,0.5-1.3,1.2-1.9,1.8s-1.3,1.4-1.9,2.2s-1.1,1.6-1.4,2.5s-0.6,1.7-0.6,2.6c0,0.8,0.1,1.6,0.2,2.4s0.2,1.6,0.2,2.4v1.2
		c-0.2,0.2-0.4,0.3-0.5,0.5s-0.3,0.2-0.6,0.2c-0.4,0-0.8-0.2-1.2-0.5S613.4,290.3,613.3,289.9z"/>
	<path fill="#555555" d="M631.7,285.9c0,0-0.2,0.3-0.5,0.8c-0.3,0.5-0.7,1.1-1.2,1.7s-1.1,1.2-1.7,1.7s-1.4,0.8-2.1,0.8
		c-1,0-1.9-0.3-2.6-0.9c-0.7-0.6-1-1.5-1-2.6c0-0.6,0-1.2,0.2-2c0.2-0.8,0.5-1.6,0.9-2.4s0.9-1.6,1.4-2.4c0.5-0.8,1.1-1.5,1.8-2
		s1.3-1,2-1.3c0.7-0.3,1.4-0.3,2.1-0.1v-0.5c0-0.6,0-1.2-0.1-1.9s-0.1-1.4-0.1-2.2s-0.1-1.8-0.1-2.9s-0.1-2.4-0.1-3.9
		c0.1-0.3,0.2-0.4,0.4-0.5s0.4-0.1,0.6-0.1c0.5,0,1,0.2,1.3,0.5s0.5,0.8,0.6,1.3c0,0.8-0.1,1.6-0.1,2.4c0,0.8,0.1,1.8,0.1,2.8
		s0.2,2.2,0.3,3.6c0.2,1.3,0.3,2.9,0.6,4.7c0.2,1.8,0.5,3.9,0.8,6.3c0.3,2.4,0.7,5.1,1.2,8.2v1.2c0,0.1-0.1,0.2-0.2,0.3
		s-0.2,0.1-0.4,0.2c-0.2,0-0.3,0.1-0.5,0.1c-0.2,0-0.3,0-0.3,0c-0.4,0-0.7-0.1-1.1-0.3c-0.4-0.2-0.6-0.5-0.7-0.8l-1.3-9.4
		c0-0.1,0-0.1-0.1-0.1C631.8,285.9,631.7,285.9,631.7,285.9z M625.5,286.7c0,0.1,0,0.2,0,0.4c0,0.2,0,0.4,0,0.5c0,0.2,0,0.4,0.1,0.5
		c0,0.1,0.1,0.2,0.3,0.2c0.6,0,1.2-0.2,1.8-0.7c0.6-0.5,1.2-1,1.7-1.7c0.5-0.7,0.9-1.4,1.3-2.2c0.3-0.8,0.5-1.5,0.6-2.1
		s-0.1-1.1-0.5-1.5c-0.3-0.3-0.9-0.4-1.7-0.2c-1,0.9-1.8,1.9-2.5,3.1S625.5,285.3,625.5,286.7z"/>
	<path fill="#555555" d="M641.5,289.8c-0.1-0.5-0.6-1.9-1.2-4.1c-0.7-2.2-1.6-5.4-2.8-9.6c0,0,0-0.1-0.1-0.3s-0.1-0.3-0.1-0.3
		c0-0.3,0.3-0.5,0.6-0.5c0.4-0.1,0.7-0.1,0.8-0.1c0.5,0.1,0.9,0.2,1.1,0.5s0.5,0.6,0.6,1.1l2,6.7l0.1,0.2c0.3-0.5,0.4-1,0.5-1.6
		c0-0.6,0.1-1.2,0.2-1.8c0.1-0.6,0.2-1.1,0.5-1.6c0.2-0.5,0.7-0.8,1.3-1c0.1,0,0.3,0,0.5,0.1c0.2,0.1,0.3,0.1,0.5,0.2
		c0.2,0.1,0.3,0.2,0.4,0.4c0.1,0.1,0.2,0.3,0.2,0.4l1.9,6.1l0.4,0.5c0.1-0.4,0.2-1.1,0.4-2c0.2-0.9,0.3-1.9,0.5-2.9
		c0.2-1,0.3-2,0.4-2.8c0.1-0.9,0.2-1.5,0.2-1.8c0,0,0-0.1,0-0.2c0-0.1,0-0.2,0-0.2c0.2-0.2,0.4-0.4,0.8-0.5c0.3-0.1,0.6-0.1,0.9-0.1
		c0.1,0,0.2,0.1,0.4,0.2c0.2,0.1,0.3,0.2,0.4,0.3s0.3,0.3,0.3,0.4c0.1,0.1,0.1,0.3,0.1,0.4l-2,14.4c0,0.1-0.1,0.3-0.2,0.3
		s-0.3,0.2-0.5,0.2s-0.4,0.1-0.5,0.1s-0.3,0-0.4,0c-0.6-0.2-1-0.6-1.5-1c-0.4-0.5-0.8-1-1.1-1.6s-0.6-1.2-0.8-1.8s-0.5-1.2-0.8-1.7
		l-0.1,0c-0.2,0.2-0.3,0.5-0.4,1.1s-0.2,1.2-0.3,1.8s-0.1,1.2-0.2,1.7c0,0.5-0.1,0.8-0.1,0.8c0,0.3-0.3,0.6-0.7,0.8s-0.7,0.3-1,0.2
		c-0.3,0-0.6-0.2-0.9-0.5S641.6,290,641.5,289.8z"/>
	<path fill="#555555" d="M663.3,281.6c-0.2,0.4-0.5,0.8-0.7,1.4c-0.3,0.5-0.6,1.1-0.9,1.7c-0.3,0.6-0.6,1.2-1,1.8
		c-0.4,0.6-0.7,1.1-1.1,1.6s-0.8,0.9-1.2,1.2s-0.9,0.5-1.3,0.6c-0.2,0-0.4,0-0.6-0.1c-0.2,0-0.5-0.1-0.7-0.2
		c-0.2-0.1-0.4-0.2-0.6-0.4c-0.2-0.2-0.2-0.4-0.2-0.6c0-2.4,0.2-4.6,0.5-6.5c0.3-2,0.8-3.7,1.5-5.2s1.6-2.7,2.7-3.7
		c1.1-1,2.4-1.7,4-2.1c0,0,0.1,0,0.3,0c0.1,0,0.2,0,0.3,0c0.7,0,1.2,0.3,1.5,1s0.5,1.7,0.7,3.2c0.2,1.4,0.3,3.3,0.3,5.6
		c0.1,2.3,0.2,5,0.4,8.1c0.1,0.3,0.1,0.5,0.1,0.7c0,0.2,0,0.4,0,0.7c0,0.4-0.1,0.6-0.3,0.8s-0.5,0.3-0.8,0.3c-0.7,0-1.2-0.2-1.4-0.6
		s-0.5-0.9-0.6-1.5c0,0,0-0.2-0.1-0.6s-0.1-0.8-0.1-1.2c-0.1-0.5-0.1-0.9-0.2-1.4c0-0.5-0.1-0.9-0.1-1.2v-0.1c0-0.2-0.1-0.5-0.1-0.9
		c0-0.4,0-0.7-0.1-1c0-0.4-0.1-0.8-0.1-1.2L663.3,281.6z M662.6,274.7c-0.6,0.5-1.3,1.1-1.9,1.9c-0.6,0.8-1,1.6-1.3,2.3
		c-0.1,0.4-0.2,0.8-0.4,1.4s-0.3,1.2-0.4,1.8s-0.2,1.1-0.3,1.7s-0.1,0.8-0.1,1c0,0,0.1,0,0.1-0.1s0.1-0.1,0.1-0.1
		c1.5-1.4,2.5-2.9,3.1-4.6S662.5,276.6,662.6,274.7z"/>
	<path fill="#555555" d="M670.8,289.9c0-0.8-0.1-2-0.2-3.4s-0.2-2.9-0.4-4.4c-0.1-1.5-0.3-3-0.4-4.3s-0.3-2.4-0.4-3.2
		c0-0.3,0.1-0.5,0.4-0.6s0.5-0.1,0.8-0.1c0.3,0,0.7,0.1,1,0.3c0.4,0.2,0.6,0.4,0.7,0.8c0,0.1,0,0.3,0,0.5c0,0.2,0,0.5,0.1,0.8
		c0,0.3,0,0.5,0.1,0.8c0,0.2,0,0.4,0,0.5c0,0.1,0,0.2,0,0.3s0,0.1,0,0.2s0,0.1,0,0.2c0,0.1,0.1,0.2,0.1,0.4c0,0,0.1-0.1,0.2-0.2
		c0.1-0.1,0.1-0.1,0.1-0.1c0.4-0.5,0.7-1,1.1-1.4s0.7-0.8,1.1-1.2c0.4-0.4,0.8-0.8,1.2-1.2s1-0.9,1.6-1.4c0.1-0.1,0.2-0.2,0.3-0.3
		s0.1-0.1,0.2-0.1c0.1,0,0.1-0.1,0.2-0.1s0.2,0,0.3,0c0.4,0,0.8,0.1,1.2,0.4c0.4,0.3,0.6,0.6,0.6,1.1c0,0.2-0.1,0.3-0.2,0.5
		c-0.1,0.2-0.3,0.3-0.4,0.5c-0.2,0.2-0.3,0.3-0.5,0.4s-0.3,0.2-0.5,0.2c-0.6,0.5-1.3,1.2-1.9,1.8c-0.7,0.7-1.3,1.4-1.9,2.2
		c-0.6,0.8-1.1,1.6-1.4,2.5c-0.4,0.9-0.6,1.7-0.6,2.6c0,0.8,0.1,1.6,0.2,2.4c0.1,0.8,0.2,1.6,0.2,2.4v1.2c-0.2,0.2-0.4,0.3-0.5,0.5
		s-0.3,0.2-0.6,0.2c-0.4,0-0.8-0.2-1.2-0.5C671.1,290.6,670.9,290.3,670.8,289.9z"/>
	<path fill="#555555" d="M696.4,281.5c0,0.4-0.1,0.8-0.2,1c-0.1,0.2-0.2,0.4-0.3,0.6s-0.3,0.4-0.6,0.6c-0.3,0.2-0.6,0.5-1.1,0.8
		c-0.4,0.4-1,0.8-1.7,1.4c-0.7,0.6-1.5,1.3-2.4,2.3c-0.4,0.4-0.8,0.7-1.2,1.1c-0.4,0.4-0.8,0.7-1.2,1c-0.4,0.3-0.9,0.5-1.4,0.7
		c-0.5,0.2-1,0.3-1.5,0.3c-1,0-1.7-0.3-2.2-1c-0.5-0.7-0.7-1.5-0.7-2.4c0-0.6,0-1.1,0.1-1.5s0.1-0.9,0.3-1.5
		c-0.3-0.2-0.5-0.4-0.7-0.6c-0.2-0.2-0.3-0.4-0.3-0.7c0-0.3,0.1-0.5,0.2-0.6c0.1-0.1,0.3-0.2,0.5-0.2s0.3-0.1,0.5-0.1
		c0.2,0,0.3-0.1,0.4-0.3c0-0.1,0.1-0.4,0.3-0.8c0.1-0.4,0.3-0.8,0.4-1.2s0.3-0.8,0.4-1.2c0.1-0.4,0.2-0.6,0.3-0.8
		c0.2-0.4,0.3-0.8,0.5-1.2c0.2-0.4,0.4-0.8,0.7-1.1c0.3-0.3,0.6-0.6,0.9-0.8c0.4-0.2,0.8-0.3,1.3-0.3c0.3,0,0.6,0.1,1,0.4
		c0.4,0.3,0.8,0.6,1.2,0.9c0.4,0.4,0.7,0.7,0.9,1.1c0.3,0.4,0.4,0.7,0.4,1c0,0.4-0.1,0.7-0.2,1c-0.2,0.3-0.4,0.6-0.6,0.8
		s-0.5,0.5-0.8,0.7s-0.5,0.4-0.8,0.6c0,0-0.1,0-0.1,0.1s-0.1,0.1-0.2,0.1c0,0-0.1,0.1-0.2,0.2c-0.1,0.1-0.2,0.2-0.3,0.3
		c-0.1,0.1-0.2,0.2-0.3,0.3c-0.1,0.1-0.1,0.2-0.2,0.2c-0.1,0.1-0.2,0.2-0.4,0.3c-0.2,0.2-0.4,0.3-0.7,0.5c-0.2,0.2-0.5,0.3-0.7,0.5
		c-0.2,0.2-0.3,0.3-0.4,0.3l-0.1,0.3c0,0.1-0.1,0.3-0.1,0.6s-0.1,0.7-0.1,1.1c0,0.4-0.1,0.8-0.1,1.2s-0.1,0.7-0.1,1c0,0,0,0,0,0.1
		c0,0,0.1,0.1,0.1,0.1c0.2,0,0.4-0.1,0.5-0.2c0.2-0.2,0.3-0.3,0.5-0.4l5.6-5.2l1.4-2.2c0.1-0.2,0.3-0.3,0.7-0.5
		c0.3-0.2,0.7-0.3,1-0.3s0.7,0.1,0.9,0.3C696.3,280.3,696.4,280.8,696.4,281.5z M688.7,278.7c0.1-0.1,0.2-0.2,0.1-0.4
		c0-0.2-0.1-0.4-0.2-0.5s-0.2-0.2-0.4-0.3c-0.2,0-0.3,0.1-0.5,0.3c-0.1,0.1-0.2,0.3-0.4,0.6s-0.4,0.6-0.5,0.9s-0.3,0.5-0.4,0.8
		c-0.1,0.2-0.1,0.3-0.1,0.2L688.7,278.7z"/>
</g>
<g>
	<g>
		<path fill="#FC5A38" d="M35.2,138.4c0,4,0,8,0,12c0,2,1.7,3.8,3.8,3.8c47.8,0,95.7,0,143.5,0c26.5,0,53,0,79.5,0
			c2,0,3.8-1.7,3.8-3.8c0-4,0-8,0-12c0-4.8-7.5-4.8-7.5,0c0,4,0,8,0,12c1.2-1.2,2.5-2.5,3.8-3.8c-47.8,0-95.7,0-143.5,0
			c-26.5,0-53,0-79.5,0c1.2,1.2,2.5,2.5,3.8,3.8c0-4,0-8,0-12C42.8,133.6,35.2,133.6,35.2,138.4L35.2,138.4z"/>
	</g>
</g>
<g>
	<g>
		<path fill="#F6DD3B" d="M302.2,140.4c0,4,0,8,0,12c0,2,1.7,3.8,3.8,3.8c47,0,93.9,0,140.9,0c31.7,0,63.4,0,95.1,0
			c2,0,3.8-1.7,3.8-3.8c0-4,0-8,0-12c0-4.8-7.5-4.8-7.5,0c0,4,0,8,0,12c1.2-1.2,2.5-2.5,3.8-3.8c-47,0-93.9,0-140.9,0
			c-31.7,0-63.4,0-95.1,0c1.2,1.2,2.5,2.5,3.8,3.8c0-4,0-8,0-12C309.8,135.6,302.2,135.6,302.2,140.4L302.2,140.4z"/>
	</g>
</g>
<g>
	<g>
		<path fill="#47BC8A" d="M579.2,140.4c0,4,0,8,0,12c0,2,1.7,3.8,3.8,3.8c49.2,0,98.5,0,147.7,0c3.8,0,7.5,0,11.3,0
			c2,0,3.8-1.7,3.8-3.8c0-4,0-8,0-12c0-4.8-7.5-4.8-7.5,0c0,4,0,8,0,12c1.2-1.2,2.5-2.5,3.8-3.8c-49.2,0-98.5,0-147.7,0
			c-3.8,0-7.5,0-11.3,0c1.2,1.2,2.5,2.5,3.8,3.8c0-4,0-8,0-12C586.8,135.6,579.2,135.6,579.2,140.4L579.2,140.4z"/>
	</g>
</g>
<g>
	<g>
		<path fill="#FC5A38" d="M174.9,255.7c26.5-15.7,33-48.9,27.9-77.1c-0.9-4.8-8.1-2.7-7.2,2c4.5,24.9-1.1,54.8-24.4,68.7
			C167,251.7,170.7,258.2,174.9,255.7L174.9,255.7z"/>
	</g>
</g>
<g>
	<g>
		<path fill="#FC5A38" d="M197.8,172.9c5.8,6.9,11.6,13.8,17.4,20.7c2.7,3.2,7.3-1.4,4.6-4.6c-5.8-6.9-11.6-13.8-17.4-20.7
			C199.7,165.1,195.1,169.7,197.8,172.9L197.8,172.9z"/>
	</g>
</g>
<g>
	<g>
		<path fill="#FC5A38" d="M196.9,168.3c-6.9,5.8-13.8,11.6-20.7,17.4c-3.7,3.1,1.6,8.4,5.3,5.3c6.9-5.8,13.8-11.6,20.7-17.4
			C205.9,170.4,200.6,165.2,196.9,168.3L196.9,168.3z"/>
	</g>
</g>
<g>
	<g>
		<path fill="#F6DD3B" d="M391.8,183.8c-0.6,0.5,0.6-0.4-0.4,0.3c-0.6,0.4-1.1,0.8-1.7,1.3c-1.8,1.3-3.5,2.6-5.2,4
			c-4.8,3.8-9.2,8.1-13.1,12.8c-10.5,12.6-16.4,28.2-15.2,44.8c0.4,4.8,7.9,4.8,7.5,0c-1.2-15.8,4.7-30.1,15-41.8
			c5.5-6.3,12.3-10.5,18.4-16C400.7,185.8,395.4,180.5,391.8,183.8L391.8,183.8z"/>
	</g>
</g>
<g>
	<g>
		<path fill="#F6DD3B" d="M394.3,180.9c1.5,8.9,3,17.8,4.6,26.7c0.8,4.8,8,2.7,7.2-2c-1.5-8.9-3-17.8-4.6-26.7
			C400.7,174.2,393.5,176.2,394.3,180.9L394.3,180.9z"/>
	</g>
</g>
<g>
	<g>
		<path fill="#F6DD3B" d="M396.5,177c-8.9,1.5-17.8,3-26.7,4.6c-3.8,0.7-2.2,6.4,1.6,5.8c8.9-1.5,17.8-3,26.7-4.6
			C401.9,182.2,400.3,176.4,396.5,177L396.5,177z"/>
	</g>
</g>
<g>
	<g>
		<path fill="#47BC8A" d="M724.9,283.4c5.1-10.7,8.8-21.5,10.1-33.4c2.5-22.2-6.1-43.3-21.8-58.9c-3.4-3.4-8.7,1.9-5.3,5.3
			c14.9,14.9,21.8,33.8,19.5,54.7c-1.1,10-4.7,19.4-9,28.5C716.4,284,722.8,287.8,724.9,283.4L724.9,283.4z"/>
	</g>
</g>
<g>
	<g>
		<path fill="#47BC8A" d="M704.2,189.4c8.8,2.2,17.5,4.3,26.3,6.5c4.1,1,5.8-5.3,1.7-6.3c-8.8-2.2-17.5-4.3-26.3-6.5
			C701.9,182.2,700.2,188.4,704.2,189.4L704.2,189.4z"/>
	</g>
</g>
<g>
	<g>
		<path fill="#47BC8A" d="M701.2,185.9c-2.2,8.8-4.3,17.5-6.5,26.3c-1.2,4.7,6.1,6.7,7.2,2c2.2-8.8,4.3-17.5,6.5-26.3
			C709.6,183.2,702.4,181.2,701.2,185.9L701.2,185.9z"/>
	</g>
</g>
<g>
	<path fill="#555555" d="M56.4,115c0-0.4,0.1-0.8,0.3-1.1c0.2-0.4,0.6-0.5,1-0.5c0.3,0,0.5,0.1,0.7,0.3s0.3,0.4,0.5,0.7
		c0.1,0.3,0.3,0.5,0.4,0.8c0.1,0.3,0.3,0.5,0.4,0.6c0.2,0.2,0.6,0.6,1.1,1.2c0.5,0.6,1.1,1.2,1.6,1.9c0.5,0.7,1,1.3,1.5,1.8
		c0.4,0.6,0.7,0.9,0.8,1c0.1,0.1,0.1,0.2,0.3,0.3c0.1,0.1,0.2,0.2,0.3,0.3l0.2-0.2c0,0,0-0.2,0-0.4c0-0.3,0-0.6,0-0.9
		c0-0.3,0-0.7,0-1c0-0.3,0-0.6,0-0.8c0-2.6,0-5.1-0.1-7.7c-0.1-2.5-0.1-5.1-0.1-7.7v-6.3c0.1-0.4,0.3-0.7,0.6-0.9
		c0.3-0.2,0.6-0.3,1-0.3c0.4,0,0.8,0.1,1.2,0.3s0.7,0.5,0.8,0.9c-0.1,3.7,0,7.4,0.2,11.1c0.2,3.6,0.2,7.3,0.2,11c0,0.4,0,1.1,0,1.9
		c0,0.8-0.1,1.6-0.2,2.4s-0.4,1.5-0.8,2.1c-0.4,0.6-0.9,0.9-1.6,0.9c-0.1,0-0.1,0-0.2,0c-0.1,0-0.2,0-0.2,0
		c-0.2-0.1-0.4-0.2-0.8-0.4c-0.4-0.2-0.6-0.4-0.7-0.5l-7.4-8.3c-0.4-0.4-0.6-0.7-0.7-1.1S56.4,115.4,56.4,115z"/>
	<path fill="#555555" d="M71.7,119.6l1.7-11.5c0.1-0.4,0.2-0.7,0.5-0.9c0.3-0.2,0.6-0.3,1-0.3c0.7,0,1.2,0.2,1.6,0.6
		c0.4,0.4,0.7,0.8,1,1.4h0c0.4,0,0.7-0.1,1-0.2c0.3-0.1,0.6-0.2,1.1-0.2c1,0,1.8,0.3,2.4,0.9c0.7,0.6,1.2,1.3,1.6,2.2
		c0.4,0.9,0.7,1.8,0.9,2.8c0.2,1,0.3,1.9,0.3,2.6c0,0.9-0.2,1.9-0.7,3c-0.5,1.1-1.1,2.2-1.8,3.1s-1.6,1.8-2.6,2.5
		c-1,0.7-1.9,1-2.9,1c-0.9,0-1.7-0.2-2.3-0.6c-0.6-0.4-1.2-1-1.6-1.6c-0.4-0.6-0.7-1.4-0.9-2.2s-0.3-1.6-0.3-2.4V119.6z M75.5,119.8
		c0.1,0.3,0.1,0.6,0.2,1c0.1,0.4,0.1,0.7,0.3,1.1c0.1,0.3,0.3,0.6,0.5,0.7c0.2,0.2,0.5,0.2,1,0c0.4-0.4,0.8-0.8,1.3-1.2
		s0.9-0.9,1.3-1.4c0.4-0.5,0.7-1,1-1.6c0.3-0.6,0.4-1.2,0.4-1.8c0.1-1,0-2-0.2-2.8s-0.7-1.5-1.1-1.8c-0.5-0.4-1.1-0.4-1.7-0.1
		c-0.6,0.3-1.3,1.1-1.9,2.3c-0.4,0.8-0.6,1.7-0.7,2.7s-0.2,2-0.2,2.9V119.8z"/>
	<path fill="#555555" d="M87.4,104.5c0.1-1.8,0-3.6-0.2-5.4c-0.2-1.8-0.3-3.6-0.3-5.3c0-0.6,0.2-0.9,0.5-1.1
		c0.3-0.1,0.7-0.2,1.1-0.2c0.6,0,1.1,0.2,1.5,0.5c0.4,0.3,0.6,0.8,0.7,1.4c0.3,3.3,0.4,6.5,0.5,9.7s0.3,6.4,0.7,9.7
		c0.9-1.7,1.8-3.1,2.8-4.2c1-1.1,1.9-1.8,2.8-2.2c0.9-0.4,1.7-0.3,2.4,0.2c0.7,0.5,1.3,1.5,1.8,2.9c0.4,1.5,0.7,3.4,0.8,5.9
		c0.1,2.5-0.1,5.6-0.4,9.3c-0.2,0-0.5,0-0.8,0c-0.3,0-0.6,0-0.9,0c-0.3,0-0.5-0.1-0.7-0.2c-0.2-0.1-0.3-0.3-0.4-0.5
		c0.2-2.2,0.4-4.1,0.4-5.7c0-1.5,0-2.8-0.1-3.8c-0.1-1-0.3-1.7-0.5-2.3c-0.2-0.5-0.4-0.9-0.7-1.1c-0.2-0.2-0.5-0.4-0.7-0.4
		c-0.2,0-0.4,0-0.5,0c-0.7,0.2-1.3,0.8-1.9,1.8c-0.6,0.9-1.1,2-1.5,3.2c-0.4,1.2-0.7,2.5-0.9,3.9c-0.2,1.4-0.2,2.6-0.2,3.7
		c0,0.2-0.1,0.5-0.1,0.7c0,0.2-0.1,0.5-0.2,0.7c-0.1,0.2-0.2,0.4-0.4,0.5c-0.2,0.1-0.4,0.2-0.7,0.2c-0.6,0-1.1-0.1-1.5-0.3
		c-0.4-0.2-0.7-0.5-0.9-0.9c-0.2-0.4-0.3-0.8-0.4-1.3c0-0.5,0-1,0-1.5L87.4,104.5z"/>
	<path fill="#555555" d="M117,124.9c-0.4-0.6-0.8-1.4-1.1-2.5c-0.3-1.1-0.6-2.2-0.8-3.4c-0.3-1.2-0.5-2.3-0.7-3.5
		c-0.2-1.1-0.4-2-0.7-2.7s-0.5-1.1-0.7-1.1s-0.6,0.3-0.9,1.2l-3.9,12c-0.2,0.4-0.3,0.7-0.5,0.9c-0.2,0.2-0.6,0.2-1,0.2
		c-0.2,0-0.5,0-0.8-0.1c-0.3-0.1-0.5-0.2-0.8-0.3c-0.2-0.1-0.4-0.3-0.6-0.5c-0.2-0.2-0.3-0.4-0.3-0.7c0.1-0.4,0.2-1,0.2-2
		c0.1-1,0.1-2.1,0.2-3.3c0-1.3,0.1-2.6,0.1-4c0-1.4,0-2.7,0-3.9c0-1.2,0-2.3-0.1-3.1c0-0.9-0.1-1.5-0.1-1.7c0-0.3,0-0.6,0-0.9
		c0-0.3,0.1-0.6,0.1-0.9c0.1-0.3,0.2-0.5,0.4-0.7c0.2-0.2,0.5-0.2,0.9-0.2c0.6,0,1.1,0.2,1.6,0.7c0.5,0.5,0.7,1,0.7,1.5
		c0,0.8,0,1.5-0.1,2.3c-0.1,0.8-0.1,1.5-0.1,2.3c0,0.5,0,0.9,0,1.2c0,0.3,0.1,0.7,0.2,1.2c0.1-0.2,0.2-0.7,0.4-1.3
		c0.2-0.6,0.4-1.2,0.7-1.9c0.3-0.7,0.5-1.3,0.7-1.9c0.2-0.6,0.4-1,0.4-1.2c0.2-0.6,0.5-1.2,0.9-1.7c0.4-0.6,1-0.9,1.7-0.9
		c0.4,0,0.9,0.1,1.2,0.4c0.4,0.3,0.7,0.6,1,1.1c0.3,0.4,0.5,0.9,0.7,1.3c0.2,0.5,0.3,0.9,0.4,1.2l2.4,11.2l1.9,5.1c0,0,0,0.1,0,0.2
		s0,0.2,0,0.3c0,0.4-0.1,0.7-0.2,1.1c-0.2,0.3-0.5,0.5-0.9,0.5c-0.5,0-1-0.1-1.6-0.4C117.5,125.7,117.2,125.4,117,124.9z"/>
	<path fill="#555555" d="M135.6,124.9c-0.4-0.6-0.8-1.4-1.1-2.5c-0.3-1.1-0.6-2.2-0.8-3.4c-0.3-1.2-0.5-2.3-0.7-3.5
		c-0.2-1.1-0.4-2-0.7-2.7s-0.5-1.1-0.7-1.1s-0.6,0.3-0.9,1.2l-3.9,12c-0.2,0.4-0.3,0.7-0.5,0.9c-0.2,0.2-0.6,0.2-1,0.2
		c-0.2,0-0.5,0-0.8-0.1c-0.3-0.1-0.5-0.2-0.8-0.3c-0.2-0.1-0.4-0.3-0.6-0.5c-0.2-0.2-0.3-0.4-0.3-0.7c0.1-0.4,0.2-1,0.2-2
		c0.1-1,0.1-2.1,0.2-3.3c0-1.3,0.1-2.6,0.1-4c0-1.4,0-2.7,0-3.9c0-1.2,0-2.3-0.1-3.1c0-0.9-0.1-1.5-0.1-1.7c0-0.3,0-0.6,0-0.9
		c0-0.3,0.1-0.6,0.1-0.9c0.1-0.3,0.2-0.5,0.4-0.7c0.2-0.2,0.5-0.2,0.9-0.2c0.6,0,1.1,0.2,1.6,0.7c0.5,0.5,0.7,1,0.7,1.5
		c0,0.8,0,1.5-0.1,2.3c-0.1,0.8-0.1,1.5-0.1,2.3c0,0.5,0,0.9,0,1.2c0,0.3,0.1,0.7,0.2,1.2c0.1-0.2,0.2-0.7,0.4-1.3
		c0.2-0.6,0.4-1.2,0.7-1.9c0.3-0.7,0.5-1.3,0.7-1.9c0.2-0.6,0.4-1,0.4-1.2c0.2-0.6,0.5-1.2,0.9-1.7c0.4-0.6,1-0.9,1.7-0.9
		c0.4,0,0.9,0.1,1.2,0.4c0.4,0.3,0.7,0.6,1,1.1c0.3,0.4,0.5,0.9,0.7,1.3c0.2,0.5,0.3,0.9,0.4,1.2l2.4,11.2l1.9,5.1c0,0,0,0.1,0,0.2
		s0,0.2,0,0.3c0,0.4-0.1,0.7-0.2,1.1c-0.2,0.3-0.5,0.5-0.9,0.5c-0.5,0-1-0.1-1.6-0.4C136.1,125.7,135.8,125.4,135.6,124.9z"/>
	<path fill="#555555" d="M149.4,138.8c-0.1-0.6-0.1-1.4-0.1-2.3c0-0.9,0-1.8,0-2.8s0-2,0-3c0-1,0.1-1.9,0.1-2.8v-1.6
		c-0.2-0.2-0.3-0.4-0.5-0.7c-0.2-0.2-0.6-0.7-1.1-1.3c-0.5-0.7-1.3-1.7-2.2-3c-1-1.3-2.2-3.2-3.9-5.6c-0.6-0.7-1-1.2-1.2-1.6
		c-0.2-0.4-0.2-0.8-0.2-1.1c0.1-0.3,0.2-0.5,0.5-0.6c0.3-0.1,0.5-0.2,0.7-0.2c0.6,0,1.1,0.1,1.6,0.4c0.5,0.3,0.9,0.6,1.3,1
		c0.4,0.4,0.7,0.9,1.1,1.4s0.6,1,0.9,1.4c0.2,0.3,0.4,0.6,0.7,1c0.3,0.4,0.5,0.8,0.8,1.2s0.6,0.9,1,1.5l0.5,0.6v-4.7
		c0-1.5,0-3-0.1-4.4c-0.1-1.4-0.1-2.9-0.1-4.3c0-0.4,0.1-0.8,0.4-1c0.3-0.3,0.7-0.4,1.1-0.4c0.5,0.1,0.9,0.2,1.1,0.3
		c0.3,0.1,0.5,0.4,0.8,0.7c0.2,0.3,0.4,0.7,0.3,1.2c0,0.4,0,0.9,0,1.3c0.1,2.8,0.2,5.7,0.3,8.5c0.1,2.8,0.1,5.7,0.1,8.5
		c0,0.3,0,0.8,0,1.6c0,0.8,0,1.8,0,2.8c0,1,0,2.1,0,3.3c0,1.1,0,2.2,0,3.1c0,0.9,0,1.7,0,2.3c0,0.6,0,0.9,0.1,0.9
		c0,0.4-0.2,0.8-0.5,1c-0.3,0.2-0.7,0.3-1.1,0.3c-0.6,0-1-0.1-1.3-0.2c-0.3-0.2-0.5-0.4-0.7-0.7c-0.2-0.3-0.3-0.6-0.3-1
		C149.7,139.6,149.6,139.2,149.4,138.8z"/>
	<path fill="#555555" d="M157.2,115.1c0-0.5,0.2-0.9,0.5-1.1s0.7-0.4,1.2-0.5l11.3-1.1c0.5,0,1,0.1,1.4,0.3s0.7,0.6,0.7,1.2
		c0,0.2-0.1,0.3-0.3,0.5c-0.2,0.2-0.4,0.3-0.7,0.5c-0.2,0.2-0.5,0.3-0.8,0.4c-0.3,0.1-0.5,0.1-0.6,0.1l-11.1,1.2
		c-0.4,0-0.8-0.1-1.1-0.4C157.4,115.8,157.2,115.5,157.2,115.1z"/>
	<path fill="#555555" d="M174.7,115.3c0-0.3,0-0.5,0.1-0.7c0.1-0.2,0.2-0.4,0.3-0.5c0.1-0.2,0.2-0.3,0.3-0.5
		c0.1-0.2,0.1-0.4,0.1-0.6c0-0.9-0.1-1.8-0.2-2.7c-0.1-0.9-0.2-1.8-0.4-2.7s-0.3-1.8-0.4-2.7c-0.1-0.9-0.2-1.8-0.2-2.7
		c0-0.6,0.1-1.1,0.3-1.3c0.2-0.2,0.7-0.4,1.3-0.4c0.5,0,0.9,0.1,1.3,0.4c0.3,0.3,0.7,0.6,1,1h0.2c0.2-0.1,0.6-0.3,1.2-0.7
		c0.6-0.3,1.2-0.7,1.8-1c0.6-0.4,1.3-0.7,1.8-1s1-0.5,1.2-0.7c0.5-0.3,1-0.5,1.5-0.7c0.5-0.2,1-0.3,1.6-0.3c0.3,0,0.5,0,0.7,0.1
		c0.1,0.1,0.2,0.3,0.2,0.7v0.1c-0.1,0.6-0.3,1.1-0.6,1.5c-0.3,0.4-0.7,0.7-1.1,1s-0.8,0.5-1.3,0.7c-0.4,0.2-0.8,0.4-1.2,0.7
		c-0.9,0.6-1.7,1.1-2.3,1.5c-0.6,0.4-1.1,0.7-1.6,0.9c-0.4,0.2-0.8,0.4-1,0.6c-0.3,0.2-0.5,0.3-0.6,0.5c0,0.1,0,0.3,0,0.5
		c0,0.3,0,0.4,0,0.5c0,0.9,0,1.8,0,2.7c0,0.9,0.2,1.8,0.5,2.6l10.5-4.9c0.2-0.1,0.4-0.1,0.5-0.2c0.1,0,0.3,0,0.5,0
		c0.1,0,0.3,0,0.6,0.1s0.4,0.2,0.4,0.4c0,0.7-0.2,1.3-0.7,1.8c-0.5,0.5-1,1-1.7,1.5c-0.7,0.4-1.3,0.8-2.1,1.2
		c-0.7,0.3-1.3,0.6-1.9,0.9c-0.1,0.1-0.3,0.1-0.4,0.1c-0.2,0-0.3,0.1-0.3,0.2l-4.7,2.5c-0.2,0.1-0.2,0.2-0.2,0.2c0,0.1,0,0.2,0,0.3
		c0,0.1,0,0.1,0,0.2c0,0.1,0,0.2,0,0.2l0.9,7.4c0.1,0.7-0.1,1.3-0.5,1.7c-0.4,0.4-1,0.6-1.6,0.6c-0.1,0-0.3,0-0.4-0.1
		s-0.4-0.1-0.5-0.2c-0.2-0.1-0.3-0.2-0.5-0.3s-0.2-0.3-0.2-0.5l-1.1-8.8c0-0.1-0.1-0.2-0.2-0.3c-0.1-0.1-0.2-0.2-0.4-0.3
		s-0.3-0.2-0.4-0.3C174.7,115.6,174.7,115.4,174.7,115.3z"/>
	<path fill="#555555" d="M192.9,92c0-0.2,0.2-0.4,0.5-0.6c0.3-0.2,0.6-0.2,0.8-0.2c0.4,0,1,0.1,1.5,0.4c0.6,0.3,0.8,0.6,0.8,1.1
		c0,0.5-0.1,0.9-0.2,1s-0.5,0.3-1,0.3c-0.5,0-1.1-0.2-1.6-0.5C193.2,93.1,192.9,92.6,192.9,92z M195.5,124.7c-0.3-3-0.6-5.6-0.8-7.7
		c-0.2-2.1-0.4-3.9-0.5-5.3c-0.2-1.4-0.3-2.6-0.4-3.4c-0.1-0.9-0.2-1.5-0.2-1.9c-0.1-0.4-0.1-0.7-0.1-0.9c0-0.1,0-0.2,0-0.3V105
		c0-0.3,0.1-0.6,0.4-0.8c0.3-0.2,0.6-0.3,0.9-0.3c0.4,0,0.9,0.1,1.5,0.2c0.5,0.2,0.9,0.5,1.1,0.9c0.3,1.5,0.5,3,0.6,4.4
		c0.1,1.5,0.2,3,0.3,4.5c0.1,1.5,0.2,3,0.3,4.5c0.1,1.5,0.4,3,0.7,4.4c0,0.1,0,0.2,0.1,0.4s0.1,0.4,0.1,0.6c0,0.2,0.1,0.4,0.1,0.6
		c0,0.2,0,0.3,0,0.4v0.1c0,0,0,0.1,0,0.1c0,0.4-0.2,0.7-0.5,1.1c-0.3,0.4-0.7,0.5-1,0.4c-0.1,0-0.3-0.1-0.7-0.2
		c-0.3-0.1-0.6-0.1-0.7-0.2c-0.1,0-0.2-0.1-0.4-0.2c-0.2-0.1-0.3-0.2-0.4-0.3c-0.1-0.1-0.2-0.3-0.3-0.4
		C195.4,125,195.4,124.9,195.5,124.7z"/>
	<path fill="#555555" d="M205.8,120l-4.9-12c0,0,0-0.1,0-0.1v-0.2c0-0.3,0.1-0.5,0.2-0.7c0.2-0.2,0.4-0.4,0.6-0.5c0.1,0,0.2,0,0.4,0
		c0.2,0,0.3,0,0.4,0c0.6,0,1,0.1,1.2,0.3c0.3,0.2,0.6,0.4,1,0.7c0.1,0.4,0.3,0.9,0.5,1.4c0.2,0.5,0.4,1.1,0.7,1.8
		c0.3,0.7,0.7,1.7,1.1,2.8c0.4,1.1,1,2.5,1.7,4.2l0.2,0.2c0.1-0.1,0.2-0.3,0.2-0.6c0.1-0.2,0.2-0.7,0.4-1.3c0.2-0.6,0.5-1.5,0.8-2.6
		c0.4-1.1,0.9-2.7,1.5-4.6c0.2-0.4,0.4-0.8,0.5-1.3c0.1-0.5,0.2-1,0.3-1.4c0.1-0.4,0.3-0.8,0.6-1.1c0.3-0.3,0.7-0.4,1.2-0.4
		c0.5,0,1,0.2,1.5,0.6c0.5,0.4,0.7,0.9,0.7,1.5c0,0.3-0.1,0.6-0.3,0.9s-0.4,0.6-0.5,0.8l-5.5,18.2h-0.3c-0.1,0-0.3,0-0.5,0
		c-0.2,0-0.5-0.1-0.7-0.2c-0.2-0.1-0.4-0.2-0.6-0.2s-0.3-0.2-0.3-0.3l-2.1-5.5V120z"/>
	<path fill="#555555" d="M237.3,113.7c-0.1,0.5-0.1,1-0.2,1.3c-0.1,0.3-0.2,0.6-0.4,0.8c-0.2,0.2-0.4,0.5-0.8,0.7
		c-0.3,0.3-0.8,0.6-1.3,1.1c-0.6,0.5-1.3,1.1-2.1,1.8c-0.8,0.7-1.9,1.7-3.1,2.9c-0.5,0.4-1,0.9-1.5,1.4c-0.5,0.5-1,0.9-1.6,1.3
		c-0.6,0.4-1.1,0.7-1.7,0.9c-0.6,0.2-1.2,0.4-1.9,0.4c-1.3,0-2.2-0.4-2.8-1.3c-0.6-0.9-0.9-1.9-0.9-3c0-0.7,0-1.4,0.1-1.9
		c0-0.5,0.2-1.2,0.3-2c-0.3-0.3-0.6-0.6-0.9-0.8c-0.2-0.2-0.4-0.5-0.4-0.9c0-0.4,0.1-0.6,0.2-0.7c0.2-0.1,0.4-0.2,0.6-0.2
		s0.4-0.1,0.7-0.2c0.2-0.1,0.4-0.2,0.4-0.4c0.1-0.2,0.2-0.5,0.3-1c0.2-0.5,0.3-1,0.5-1.5c0.2-0.5,0.4-1,0.5-1.5
		c0.2-0.5,0.3-0.8,0.3-1c0.2-0.5,0.4-1,0.7-1.5c0.3-0.5,0.6-1,0.9-1.4c0.3-0.4,0.7-0.8,1.2-1c0.5-0.3,1-0.4,1.6-0.4
		c0.4,0,0.8,0.2,1.3,0.5c0.5,0.3,1,0.7,1.5,1.2c0.5,0.5,0.9,1,1.2,1.5c0.3,0.5,0.5,0.9,0.5,1.3c0,0.4-0.1,0.9-0.3,1.2
		c-0.2,0.4-0.5,0.7-0.8,1s-0.7,0.6-1,0.9s-0.7,0.5-1,0.8c0,0-0.1,0-0.2,0.1c-0.1,0.1-0.2,0.1-0.2,0.1c0,0-0.1,0.1-0.2,0.2
		c-0.1,0.1-0.2,0.2-0.3,0.3c-0.1,0.1-0.2,0.2-0.3,0.4c-0.1,0.1-0.2,0.2-0.2,0.2c-0.1,0.1-0.3,0.2-0.5,0.4c-0.3,0.2-0.5,0.4-0.8,0.6
		c-0.3,0.2-0.6,0.4-0.8,0.6c-0.3,0.2-0.4,0.3-0.5,0.4l-0.2,0.4c-0.1,0.1-0.1,0.4-0.2,0.8s-0.1,0.9-0.2,1.4c-0.1,0.5-0.1,1-0.2,1.5
		c0,0.5-0.1,1-0.1,1.3c0,0,0,0.1,0,0.1c0.1,0.1,0.1,0.1,0.1,0.1c0.2,0,0.5-0.1,0.7-0.3c0.2-0.2,0.4-0.4,0.7-0.4l7.2-6.6l1.8-2.8
		c0.1-0.2,0.4-0.4,0.9-0.7c0.4-0.3,0.9-0.4,1.3-0.4c0.4,0,0.8,0.1,1.2,0.4C237.2,112.2,237.3,112.8,237.3,113.7z M227.4,110.2
		c0.1-0.1,0.2-0.3,0.2-0.5c0-0.2-0.1-0.4-0.2-0.6s-0.3-0.3-0.5-0.3c-0.2,0-0.4,0.1-0.6,0.3c-0.1,0.1-0.2,0.4-0.5,0.7
		s-0.4,0.7-0.7,1.1c-0.2,0.4-0.4,0.7-0.6,1c-0.2,0.3-0.2,0.4-0.1,0.3L227.4,110.2z"/>
</g>
<g>
	<path fill="#555555" d="M607.1,123.6c0-1.8,0.1-3.6,0.4-5.3c0.2-1.8,0.4-3.5,0.6-5.3c0-0.1,0-0.3,0-0.6c0-0.3,0.1-0.7,0.1-1
		s0.1-0.7,0.1-1s0.1-0.5,0.1-0.6v-0.2l1.9-14c-0.1-0.6,0-1.1,0.3-1.6c0.3-0.5,0.7-0.7,1.4-0.7c0.7-0.1,1.4,0,1.9,0.3
		c0.5,0.3,0.9,0.7,1.2,1.1c0.3,0.4,0.6,0.9,0.8,1.5c0.2,0.5,0.4,1,0.7,1.5c0.1,0.4,0.3,0.9,0.6,1.5c0.2,0.6,0.5,1.3,0.8,2.2
		c0.3,0.9,0.7,1.9,1.1,3.2c0.4,1.3,0.9,2.8,1.5,4.6l0.2,0.2c0.2-0.1,0.6-0.3,1.2-0.6s1.2-0.6,1.8-0.9c0.6-0.3,1.2-0.6,1.8-0.9
		c0.6-0.3,1-0.4,1.2-0.5c0-0.1,0.1-0.1,0.2-0.2s0.2-0.1,0.3-0.1h0.1c0.3,0,0.5,0.1,0.7,0.3c0.1,0.2,0.2,0.4,0.2,0.7
		c0,0.3-0.1,0.6-0.2,0.9c-0.2,0.2-0.3,0.5-0.5,0.7c-0.2,0.2-0.4,0.4-0.6,0.6s-0.4,0.4-0.5,0.6l-4.4,2.2c-0.1,0.2-0.2,0.3-0.2,0.4
		c0,0.2,0.1,0.6,0.4,1.1c0.3,0.5,0.5,0.9,0.6,1.2c0.1,0.2,0.2,0.5,0.4,1c0.2,0.5,0.4,1,0.7,1.5c0.2,0.5,0.5,1,0.7,1.5
		c0.2,0.5,0.4,0.8,0.5,1v0.1c0,1.1-0.5,1.6-1.6,1.6c-0.3,0-0.7,0-1-0.1c-0.4-0.1-0.6-0.3-0.8-0.7l-3-6.4h-0.4
		c-1.1,0.9-2.4,1.7-3.6,2.6c-1.3,0.8-2.6,1.6-4,2.2c-0.2,1.1-0.3,2.2-0.4,3.3c0,1.1,0,2.2,0,3.3c-0.2,0.3-0.5,0.6-0.7,0.7
		c-0.2,0.2-0.6,0.2-1,0.2c-0.4,0-0.7-0.1-0.9-0.3c-0.2-0.2-0.4-0.4-0.4-0.7c-0.1-0.3-0.1-0.6-0.1-0.9
		C607.1,124.2,607.1,123.9,607.1,123.6z M611.1,114.9c0.9-0.4,1.8-0.8,2.6-1.4c0.9-0.6,1.7-1.2,2.4-1.7c0.1-0.1,0.2-0.1,0.3-0.2
		c0.1-0.1,0.3-0.1,0.4-0.2c0.1-0.1,0.3-0.2,0.4-0.3v-0.4L613.2,99l-0.2-0.2c-0.1,0.2-0.2,0.7-0.3,1.5c-0.1,0.8-0.3,1.9-0.4,3.3
		c-0.2,1.3-0.3,2.9-0.5,4.6c-0.2,1.7-0.4,3.6-0.6,5.6V114.9z"/>
	<path fill="#555555" d="M631.9,124.5c-0.1-1.1-0.2-2.5-0.3-4.3c-0.1-1.8-0.3-3.7-0.4-5.6c-0.2-1.9-0.3-3.8-0.5-5.5
		c-0.2-1.7-0.3-3.1-0.4-4c0-0.4,0.2-0.6,0.5-0.8c0.4-0.1,0.7-0.2,1-0.2c0.4,0,0.9,0.1,1.3,0.4c0.5,0.2,0.8,0.6,0.9,1
		c0,0.1,0,0.3,0,0.7c0,0.3,0.1,0.6,0.1,1c0,0.3,0,0.7,0.1,1c0,0.3,0,0.5,0,0.7c0,0.2,0,0.3,0,0.4s0,0.2,0,0.2c0,0.1,0,0.2,0,0.2
		c0,0.1,0.1,0.2,0.1,0.4c0.1-0.1,0.1-0.1,0.2-0.2c0.1-0.1,0.1-0.1,0.2-0.2c0.5-0.7,0.9-1.3,1.4-1.8c0.4-0.5,0.9-1,1.4-1.5
		c0.5-0.5,1-1,1.6-1.5c0.6-0.5,1.3-1.1,2-1.8c0.2-0.1,0.3-0.3,0.4-0.3c0.1-0.1,0.2-0.1,0.2-0.2c0.1,0,0.2-0.1,0.2-0.1
		c0.1,0,0.2,0,0.4,0c0.5,0,1,0.2,1.5,0.5c0.5,0.3,0.8,0.8,0.8,1.4c0,0.2-0.1,0.4-0.2,0.7c-0.2,0.2-0.3,0.4-0.5,0.6
		c-0.2,0.2-0.4,0.4-0.7,0.5c-0.2,0.2-0.4,0.3-0.6,0.3c-0.8,0.7-1.6,1.5-2.5,2.4c-0.9,0.9-1.7,1.8-2.4,2.9c-0.7,1-1.4,2.1-1.8,3.2
		c-0.5,1.1-0.7,2.2-0.7,3.3c0,1,0.1,2,0.2,3c0.1,1,0.2,2,0.2,3v1.6c-0.2,0.2-0.4,0.4-0.6,0.6c-0.2,0.2-0.4,0.2-0.8,0.2
		c-0.5,0-1-0.2-1.5-0.7C632.4,125.4,632.1,125,631.9,124.5z"/>
	<path fill="#555555" d="M654.9,119.3c0,0-0.2,0.3-0.6,1c-0.4,0.7-0.9,1.4-1.5,2.2c-0.6,0.8-1.4,1.5-2.2,2.2c-0.9,0.7-1.8,1-2.7,1
		c-1.3,0-2.4-0.4-3.3-1.2c-0.9-0.8-1.3-1.9-1.3-3.3c-0.1-0.7,0-1.6,0.3-2.6c0.3-1,0.6-2,1.1-3.1c0.5-1.1,1.1-2.1,1.8-3.1
		c0.7-1,1.5-1.9,2.3-2.6c0.8-0.7,1.7-1.3,2.5-1.6c0.9-0.4,1.8-0.4,2.7-0.2v-0.6c0-0.8,0-1.6-0.1-2.4c0-0.8-0.1-1.8-0.1-2.8
		c0-1.1-0.1-2.3-0.1-3.7s-0.1-3.1-0.1-5c0.1-0.3,0.2-0.5,0.5-0.7c0.2-0.1,0.5-0.2,0.7-0.2c0.7,0,1.2,0.2,1.6,0.7s0.7,1,0.7,1.7
		c-0.1,1-0.1,2.1-0.1,3.1c0,1.1,0.1,2.3,0.2,3.6s0.2,2.9,0.4,4.6c0.2,1.7,0.4,3.7,0.7,6c0.3,2.3,0.7,5,1.1,8c0.4,3,0.9,6.5,1.5,10.4
		v1.5c0,0.2-0.1,0.3-0.2,0.4s-0.3,0.2-0.5,0.2c-0.2,0-0.4,0.1-0.6,0.1c-0.2,0-0.3,0-0.4,0c-0.4,0-0.9-0.1-1.4-0.4
		c-0.5-0.3-0.8-0.6-0.9-1.1l-1.7-12c0-0.1,0-0.1-0.1-0.2C655,119.4,655,119.3,654.9,119.3z M647,120.3c0,0.1,0,0.2,0,0.5
		c0,0.2,0,0.5,0,0.7c0,0.2,0.1,0.4,0.1,0.6c0.1,0.2,0.2,0.3,0.4,0.3c0.7,0,1.5-0.3,2.3-0.9c0.8-0.6,1.5-1.3,2.2-2.2
		c0.7-0.9,1.2-1.8,1.6-2.9c0.4-1,0.7-1.9,0.7-2.7s-0.2-1.4-0.6-1.9c-0.4-0.4-1.2-0.5-2.2-0.3c-1.3,1.1-2.4,2.4-3.2,3.9
		C647.4,117,647,118.6,647,120.3z"/>
	<path fill="#555555" d="M672,122.2c-0.2,0.4-0.4,0.9-0.6,1.5c-0.2,0.5-0.4,1-0.7,1.4c-0.3,0.4-0.6,0.8-1,1.1
		c-0.4,0.3-0.9,0.4-1.5,0.4c-1,0-1.9-0.3-2.6-0.8c-0.7-0.5-1.3-1.2-1.7-2c-0.4-0.8-0.7-1.7-0.9-2.6c-0.2-0.9-0.3-1.8-0.3-2.6
		l0.4-10.9c0-0.2,0-0.4,0.2-0.7s0.3-0.4,0.5-0.6c0.2-0.2,0.5-0.4,0.8-0.5c0.3-0.1,0.5-0.2,0.8-0.2c0.7,0,1.3,0.2,1.8,0.7
		c0.5,0.4,0.7,1,0.7,1.7v0.4c-0.3,0.5-0.6,1.2-0.9,2.1c-0.2,0.9-0.4,1.8-0.6,2.8c-0.1,1-0.2,2-0.2,3.1c0,1,0,2,0.1,2.9
		c0.1,0.9,0.3,1.6,0.5,2.2c0.2,0.6,0.6,1,0.9,1.1c0.1,0,0.4-0.1,0.7-0.2c0.3-0.1,0.7-0.4,1-0.9c0.4-0.4,0.7-1,1.1-1.8
		c0.4-0.8,0.7-1.8,1-3c0.3-1.3,0.5-2.8,0.7-4.6c0.1-1.8,0.2-4,0.1-6.5c0.1-0.3,0.3-0.5,0.5-0.5c0.2,0,0.5,0,0.7,0c0.3,0,0.5,0,0.7,0
		c0.2,0,0.4,0.1,0.6,0.3c0.1,0.2,0.3,0.4,0.5,0.7c0.2,0.3,0.3,0.5,0.3,0.5l0.8,19.9c0,0.4-0.1,0.8-0.4,1.1c-0.2,0.3-0.6,0.4-1,0.4
		c-0.2,0-0.3,0-0.5,0c-0.2,0-0.4-0.1-0.6-0.2c-0.2-0.1-0.4-0.2-0.6-0.3c-0.2-0.1-0.3-0.3-0.3-0.5l-0.8-4.5L672,122.2z"/>
	<path fill="#555555" d="M678.4,92c0-0.2,0.2-0.4,0.5-0.6c0.3-0.2,0.6-0.2,0.8-0.2c0.4,0,1,0.1,1.5,0.4c0.6,0.3,0.8,0.6,0.8,1.1
		c0,0.5-0.1,0.9-0.2,1s-0.5,0.3-1,0.3c-0.5,0-1.1-0.2-1.6-0.5C678.7,93.1,678.4,92.6,678.4,92z M680.9,124.7c-0.3-3-0.6-5.6-0.8-7.7
		c-0.2-2.1-0.4-3.9-0.5-5.3c-0.2-1.4-0.3-2.6-0.4-3.4c-0.1-0.9-0.2-1.5-0.2-1.9c-0.1-0.4-0.1-0.7-0.1-0.9c0-0.1,0-0.2,0-0.3V105
		c0-0.3,0.1-0.6,0.4-0.8c0.3-0.2,0.6-0.3,0.9-0.3c0.4,0,0.9,0.1,1.5,0.2c0.5,0.2,0.9,0.5,1.1,0.9c0.3,1.5,0.5,3,0.6,4.4
		c0.1,1.5,0.2,3,0.3,4.5c0.1,1.5,0.2,3,0.3,4.5c0.1,1.5,0.4,3,0.7,4.4c0,0.1,0,0.2,0.1,0.4s0.1,0.4,0.1,0.6c0,0.2,0.1,0.4,0.1,0.6
		c0,0.2,0,0.3,0,0.4v0.1c0,0,0,0.1,0,0.1c0,0.4-0.2,0.7-0.5,1.1c-0.3,0.4-0.7,0.5-1,0.4c-0.1,0-0.3-0.1-0.7-0.2
		c-0.3-0.1-0.6-0.1-0.7-0.2c-0.1,0-0.2-0.1-0.4-0.2c-0.2-0.1-0.3-0.2-0.4-0.3c-0.1-0.1-0.2-0.3-0.3-0.4
		C680.8,125,680.8,124.9,680.9,124.7z"/>
	<path fill="#555555" d="M699.4,124.9c-0.4-0.6-0.8-1.4-1.1-2.5c-0.3-1.1-0.6-2.2-0.8-3.4c-0.3-1.2-0.5-2.3-0.7-3.5
		c-0.2-1.1-0.4-2-0.7-2.7s-0.5-1.1-0.7-1.1s-0.6,0.3-0.9,1.2l-3.9,12c-0.2,0.4-0.3,0.7-0.5,0.9c-0.2,0.2-0.6,0.2-1,0.2
		c-0.2,0-0.5,0-0.8-0.1c-0.3-0.1-0.5-0.2-0.8-0.3c-0.2-0.1-0.4-0.3-0.6-0.5c-0.2-0.2-0.3-0.4-0.3-0.7c0.1-0.4,0.2-1,0.2-2
		c0.1-1,0.1-2.1,0.2-3.3c0-1.3,0.1-2.6,0.1-4c0-1.4,0-2.7,0-3.9c0-1.2,0-2.3-0.1-3.1c0-0.9-0.1-1.5-0.1-1.7c0-0.3,0-0.6,0-0.9
		c0-0.3,0.1-0.6,0.1-0.9c0.1-0.3,0.2-0.5,0.4-0.7c0.2-0.2,0.5-0.2,0.9-0.2c0.6,0,1.1,0.2,1.6,0.7c0.5,0.5,0.7,1,0.7,1.5
		c0,0.8,0,1.5-0.1,2.3c-0.1,0.8-0.1,1.5-0.1,2.3c0,0.5,0,0.9,0,1.2c0,0.3,0.1,0.7,0.2,1.2c0.1-0.2,0.2-0.7,0.4-1.3
		c0.2-0.6,0.4-1.2,0.7-1.9c0.3-0.7,0.5-1.3,0.7-1.9c0.2-0.6,0.4-1,0.4-1.2c0.2-0.6,0.5-1.2,0.9-1.7c0.4-0.6,1-0.9,1.7-0.9
		c0.4,0,0.9,0.1,1.2,0.4c0.4,0.3,0.7,0.6,1,1.1c0.3,0.4,0.5,0.9,0.7,1.3c0.2,0.5,0.3,0.9,0.4,1.2l2.4,11.2l1.9,5.1c0,0,0,0.1,0,0.2
		s0,0.2,0,0.3c0,0.4-0.1,0.7-0.2,1.1c-0.2,0.3-0.5,0.5-0.9,0.5c-0.5,0-1-0.1-1.6-0.4C699.9,125.7,699.6,125.4,699.4,124.9z"/>
	<path fill="#555555" d="M705.3,119.6L707,108c0.1-0.4,0.2-0.7,0.5-0.9c0.3-0.2,0.6-0.3,1-0.3c0.7,0,1.2,0.2,1.6,0.6
		c0.4,0.4,0.7,0.8,1,1.4h0c0.4,0,0.7-0.1,1-0.2c0.3-0.1,0.6-0.2,1.1-0.2c1,0,1.8,0.3,2.4,0.9c0.7,0.6,1.2,1.3,1.6,2.2
		c0.4,0.9,0.7,1.8,0.9,2.8c0.2,1,0.3,1.9,0.3,2.6c0,0.9-0.2,1.9-0.7,3c-0.5,1.1-1.1,2.2-1.8,3.1s-1.6,1.8-2.6,2.5
		c-1,0.7-1.9,1-2.9,1c-0.9,0-1.7-0.2-2.3-0.6c-0.6-0.4-1.2-1-1.6-1.6c-0.4-0.6-0.7-1.4-0.9-2.2s-0.3-1.6-0.3-2.4V119.6z
		 M709.1,119.8c0.1,0.3,0.1,0.6,0.2,1c0.1,0.4,0.1,0.7,0.3,1.1c0.1,0.3,0.3,0.6,0.5,0.7c0.2,0.2,0.5,0.2,1,0
		c0.4-0.4,0.8-0.8,1.3-1.2s0.9-0.9,1.3-1.4c0.4-0.5,0.7-1,1-1.6c0.3-0.6,0.4-1.2,0.4-1.8c0.1-1,0-2-0.2-2.8s-0.7-1.5-1.1-1.8
		c-0.5-0.4-1.1-0.4-1.7-0.1c-0.6,0.3-1.3,1.1-1.9,2.3c-0.4,0.8-0.6,1.7-0.7,2.7s-0.2,2-0.2,2.9V119.8z"/>
</g>
</svg>
