<?xml version="1.0" encoding="utf-8"?>
<!-- Generator: Adobe Illustrator 17.1.0, SVG Export Plug-In . SVG Version: 6.00 Build 0)  -->
<!DOCTYPE svg PUBLIC "-//W3C//DTD SVG 1.1//EN" "http://www.w3.org/Graphics/SVG/1.1/DTD/svg11.dtd">
<svg version="1.1" id="Layer_1" xmlns="http://www.w3.org/2000/svg" xmlns:xlink="http://www.w3.org/1999/xlink" x="0px" y="0px"
	 viewBox="0 0 792 612" enable-background="new 0 0 792 612" xml:space="preserve">
<g>
	<path fill="#555555" d="M361,168.8c0-0.3,0-0.5,0.1-0.7c0.1-0.2,0.2-0.4,0.3-0.5c0.1-0.2,0.2-0.3,0.3-0.5c0.1-0.2,0.1-0.4,0.1-0.6
		c0-0.9-0.1-1.8-0.2-2.7c-0.1-0.9-0.2-1.8-0.4-2.7s-0.3-1.8-0.4-2.7c-0.1-0.9-0.2-1.8-0.2-2.7c0-0.6,0.1-1.1,0.3-1.3
		c0.2-0.2,0.7-0.4,1.3-0.4c0.5,0,0.9,0.1,1.3,0.4c0.3,0.3,0.7,0.6,1,1h0.2c0.2-0.1,0.6-0.3,1.2-0.7c0.6-0.3,1.2-0.7,1.8-1
		c0.6-0.4,1.3-0.7,1.8-1s1-0.5,1.2-0.7c0.5-0.3,1-0.5,1.5-0.7c0.5-0.2,1-0.3,1.6-0.3c0.3,0,0.5,0,0.7,0.1c0.1,0.1,0.2,0.3,0.2,0.7
		v0.1c-0.1,0.6-0.3,1.1-0.6,1.5c-0.3,0.4-0.7,0.7-1.1,1s-0.8,0.5-1.3,0.7c-0.4,0.2-0.8,0.4-1.2,0.7c-0.9,0.6-1.7,1.1-2.3,1.5
		c-0.6,0.4-1.1,0.7-1.6,0.9c-0.4,0.2-0.8,0.4-1,0.6c-0.3,0.2-0.5,0.3-0.6,0.5c0,0.1,0,0.3,0,0.5c0,0.3,0,0.4,0,0.5
		c0,0.9,0,1.8,0,2.7c0,0.9,0.2,1.8,0.5,2.6l10.5-4.9c0.2-0.1,0.4-0.1,0.5-0.2c0.1,0,0.3,0,0.5,0c0.1,0,0.3,0,0.6,0.1
		s0.4,0.2,0.4,0.4c0,0.7-0.2,1.3-0.7,1.8c-0.5,0.5-1,1-1.7,1.5c-0.7,0.4-1.3,0.8-2.1,1.2c-0.7,0.3-1.3,0.6-1.9,0.9
		c-0.1,0.1-0.3,0.1-0.4,0.1c-0.2,0-0.3,0.1-0.3,0.2l-4.7,2.5c-0.2,0.1-0.2,0.2-0.2,0.2c0,0.1,0,0.2,0,0.3c0,0.1,0,0.1,0,0.2
		c0,0.1,0,0.2,0,0.2l0.9,7.4c0.1,0.7-0.1,1.3-0.5,1.7c-0.4,0.4-1,0.6-1.6,0.6c-0.1,0-0.3,0-0.4-0.1s-0.4-0.1-0.5-0.2
		c-0.2-0.1-0.3-0.2-0.5-0.3s-0.2-0.3-0.2-0.5l-1.1-8.8c0-0.1-0.1-0.2-0.2-0.3c-0.1-0.1-0.2-0.2-0.4-0.3s-0.3-0.2-0.4-0.3
		C361.1,169.1,361,169,361,168.8z"/>
	<path fill="#555555" d="M379.3,145.5c0-0.2,0.2-0.4,0.5-0.6c0.3-0.2,0.6-0.2,0.8-0.2c0.4,0,1,0.1,1.5,0.4c0.6,0.3,0.8,0.6,0.8,1.1
		c0,0.5-0.1,0.9-0.2,1s-0.5,0.3-1,0.3c-0.5,0-1.1-0.2-1.6-0.5C379.6,146.7,379.3,146.2,379.3,145.5z M381.8,178.3
		c-0.3-3-0.6-5.6-0.8-7.7c-0.2-2.1-0.4-3.9-0.5-5.3c-0.2-1.4-0.3-2.6-0.4-3.4c-0.1-0.9-0.2-1.5-0.2-1.9c-0.1-0.4-0.1-0.7-0.1-0.9
		c0-0.1,0-0.2,0-0.3v-0.2c0-0.3,0.1-0.6,0.4-0.8c0.3-0.2,0.6-0.3,0.9-0.3c0.4,0,0.9,0.1,1.5,0.2c0.5,0.2,0.9,0.5,1.1,0.9
		c0.3,1.5,0.5,3,0.6,4.4c0.1,1.5,0.2,3,0.3,4.5c0.1,1.5,0.2,3,0.3,4.5c0.1,1.5,0.4,3,0.7,4.4c0,0.1,0,0.2,0.1,0.4s0.1,0.4,0.1,0.6
		c0,0.2,0.1,0.4,0.1,0.6c0,0.2,0,0.3,0,0.4v0.1c0,0,0,0.1,0,0.1c0,0.4-0.2,0.7-0.5,1.1c-0.3,0.4-0.7,0.5-1,0.4
		c-0.1,0-0.3-0.1-0.7-0.2c-0.3-0.1-0.6-0.1-0.7-0.2c-0.1,0-0.2-0.1-0.4-0.2c-0.2-0.1-0.3-0.2-0.4-0.3c-0.1-0.1-0.2-0.3-0.3-0.4
		C381.7,178.5,381.7,178.4,381.8,178.3z"/>
	<path fill="#555555" d="M389.5,178.1c-0.1-1.1-0.2-2.5-0.3-4.3c-0.1-1.8-0.3-3.7-0.4-5.6c-0.2-1.9-0.3-3.8-0.5-5.5
		c-0.2-1.7-0.3-3.1-0.4-4c0-0.4,0.2-0.6,0.5-0.8c0.4-0.1,0.7-0.2,1-0.2c0.4,0,0.9,0.1,1.3,0.4c0.5,0.2,0.8,0.6,0.9,1
		c0,0.1,0,0.3,0,0.7c0,0.3,0.1,0.6,0.1,1c0,0.3,0,0.7,0.1,1c0,0.3,0,0.5,0,0.7c0,0.2,0,0.3,0,0.4s0,0.2,0,0.2c0,0.1,0,0.2,0,0.2
		c0,0.1,0.1,0.2,0.1,0.4c0.1-0.1,0.1-0.1,0.2-0.2c0.1-0.1,0.1-0.1,0.2-0.2c0.5-0.7,0.9-1.3,1.4-1.8c0.4-0.5,0.9-1,1.4-1.5
		c0.5-0.5,1-1,1.6-1.5c0.6-0.5,1.3-1.1,2-1.8c0.2-0.1,0.3-0.3,0.4-0.3c0.1-0.1,0.2-0.1,0.2-0.2c0.1,0,0.2-0.1,0.2-0.1
		c0.1,0,0.2,0,0.4,0c0.5,0,1,0.2,1.5,0.5c0.5,0.3,0.8,0.8,0.8,1.4c0,0.2-0.1,0.4-0.2,0.7c-0.2,0.2-0.3,0.4-0.5,0.6
		c-0.2,0.2-0.4,0.4-0.7,0.5c-0.2,0.2-0.4,0.3-0.6,0.3c-0.8,0.7-1.6,1.5-2.5,2.4c-0.9,0.9-1.7,1.8-2.4,2.9c-0.7,1-1.4,2.1-1.8,3.2
		c-0.5,1.1-0.7,2.2-0.7,3.3c0,1,0.1,2,0.2,3c0.1,1,0.2,2,0.2,3v1.6c-0.2,0.2-0.4,0.4-0.6,0.6c-0.2,0.2-0.4,0.2-0.8,0.2
		c-0.5,0-1-0.2-1.5-0.7C389.9,179,389.6,178.5,389.5,178.1z"/>
	<path fill="#555555" d="M404,163c-0.1-0.8-0.2-1.6-0.3-2.4c0-0.7,0.2-1.1,0.7-1.3c0.4-0.2,0.9-0.3,1.4-0.3h0.9
		c0.4,0.2,0.8,0.5,0.9,0.8c0.2,0.3,0.3,0.6,0.4,1c0.1,0.4,0.1,0.7,0.1,1.1c0,0.4,0,0.8,0,1.1c0,0.2,0,0.4,0,0.8s0,0.7,0,1.1
		c0,0.4,0,0.7,0.1,1.1c0,0.3,0.1,0.5,0.2,0.6l4-7.4c0.2-0.3,0.4-0.6,0.8-0.8c0.3-0.2,0.7-0.3,1.1-0.2c0.7,0.1,1.2,0.2,1.5,0.4
		c0.3,0.2,0.6,0.4,0.7,0.8s0.2,0.7,0.2,1.1c0,0.4,0,0.9,0.1,1.5c0,0.2,0,0.5,0,1c0,0.5,0.1,1,0.1,1.5s0.1,1,0.1,1.5
		c0,0.5,0.1,0.8,0.1,1h0.2c0.1-0.2,0.2-0.6,0.3-1.2c0.2-0.6,0.4-1.2,0.6-1.9c0.2-0.7,0.4-1.3,0.6-1.9c0.2-0.6,0.3-1,0.4-1.3
		c0-0.1,0.1-0.2,0.2-0.4c0.1-0.2,0.2-0.4,0.3-0.6s0.2-0.4,0.3-0.6c0.1-0.2,0.1-0.3,0.2-0.4c0.2-0.3,0.4-0.5,0.7-0.5
		c0.2,0,0.5,0,0.7,0c0.7,0,1.3,0.2,1.7,0.6c0.4,0.4,0.7,0.8,0.9,1.4c0.2,0.6,0.3,1.2,0.4,1.9s0.2,1.3,0.3,1.9c0,0,0,0,0,0.1
		s0,0.1,0,0.1l2.5,13.1c0.1,0.1,0.2,0.2,0.2,0.3c0,0.1,0,0.2,0,0.4c0,0.3-0.2,0.7-0.5,1s-0.6,0.5-1,0.5c-0.4,0-1-0.2-1.5-0.5
		c-0.6-0.3-0.9-0.7-1-1.3l-2.1-10.6l-0.2-0.4c-0.1,0.2-0.2,0.6-0.4,1.3c-0.2,0.7-0.4,1.6-0.7,2.7c-0.3,1.1-0.6,2.3-0.9,3.6
		c-0.3,1.3-0.7,2.7-1.1,4c-0.1,0.3-0.2,0.5-0.5,0.6c-0.3,0.1-0.5,0.2-0.7,0.2c-0.6,0-1.1-0.1-1.5-0.2c-0.4-0.1-0.7-0.4-0.9-0.7
		c-0.2-0.3-0.4-0.7-0.4-1.1c-0.1-0.4-0.2-0.9-0.2-1.4c0-0.1,0-0.5-0.1-1.3c-0.1-0.7-0.1-1.6-0.2-2.5c-0.1-0.9-0.2-1.9-0.2-2.9
		c-0.1-1-0.2-1.7-0.2-2.3c0-0.1,0-0.2,0-0.3c0-0.1,0-0.1,0-0.2s0-0.1,0-0.2c0-0.1-0.1-0.2-0.2-0.4l-1.3,3.1l-2.1,7.6l-0.4,2.8
		c0,0.2-0.1,0.3-0.2,0.5s-0.3,0.2-0.5,0.3c-0.2,0.1-0.4,0.1-0.5,0.2c-0.2,0-0.3,0-0.4,0c-0.7,0-1.2-0.2-1.7-0.7
		c-0.5-0.5-0.7-1-0.7-1.6c0-0.2-0.1-0.6-0.1-1.2c0-0.6-0.1-1.3-0.1-2.2c-0.1-0.8-0.1-1.7-0.2-2.7c0-0.9-0.1-1.8-0.2-2.7
		c-0.1-0.8-0.1-1.6-0.2-2.2s-0.1-1-0.1-1.3v-0.2C404.1,164.6,404,163.8,404,163z"/>
	<path fill="#555555" d="M440.1,167.5c-0.3,0.5-0.6,1.1-0.9,1.7c-0.3,0.7-0.7,1.4-1.1,2.2c-0.4,0.8-0.8,1.5-1.3,2.3
		c-0.5,0.8-0.9,1.5-1.4,2.1s-1,1.2-1.5,1.6c-0.5,0.4-1.1,0.7-1.7,0.8c-0.2,0-0.5,0-0.8-0.1c-0.3,0-0.6-0.1-0.9-0.2
		c-0.3-0.1-0.5-0.3-0.7-0.4c-0.2-0.2-0.3-0.5-0.3-0.8c0-3.1,0.3-5.8,0.7-8.3c0.4-2.5,1.1-4.7,2-6.6c0.9-1.9,2.1-3.5,3.5-4.7
		c1.4-1.3,3.1-2.2,5.1-2.7c0.1,0,0.2,0,0.3,0c0.2,0,0.3,0,0.3,0c0.9,0,1.5,0.4,2,1.2s0.7,2.2,0.9,4c0.2,1.8,0.3,4.2,0.4,7.1
		c0.1,2.9,0.2,6.4,0.5,10.4c0.1,0.3,0.1,0.6,0.2,0.9c0,0.2,0,0.5,0,0.9c0,0.4-0.1,0.8-0.4,1s-0.6,0.3-1,0.3c-0.9,0-1.5-0.2-1.8-0.7
		c-0.4-0.5-0.6-1.1-0.7-1.9c0,0,0-0.3-0.1-0.7s-0.1-1-0.2-1.5c-0.1-0.6-0.1-1.2-0.2-1.8c-0.1-0.6-0.1-1.1-0.1-1.5v-0.2
		c-0.1-0.3-0.1-0.7-0.1-1.1c0-0.4-0.1-0.9-0.1-1.3c-0.1-0.5-0.1-1-0.1-1.5L440.1,167.5z M439.1,158.6c-0.8,0.6-1.6,1.4-2.4,2.4
		c-0.8,1-1.3,2-1.7,3c-0.2,0.4-0.3,1.1-0.5,1.8c-0.2,0.8-0.3,1.5-0.5,2.3s-0.2,1.5-0.3,2.1c-0.1,0.6-0.1,1.1-0.1,1.2
		c0,0,0.1,0,0.1-0.1c0-0.1,0.1-0.1,0.1-0.1c1.9-1.8,3.2-3.7,3.9-5.8C438.5,163.3,439,161.1,439.1,158.6z"/>
	<path fill="#555555" d="M451.8,166.9c-0.4,0-0.8,0.1-1.1,0.3c-0.3,0.2-0.7,0.3-1.2,0.3c-0.1,0-0.2,0-0.5,0c-0.3,0-0.4,0-0.5,0
		c-0.1-0.1-0.3-0.3-0.4-0.4c-0.2-0.1-0.3-0.2-0.4-0.3c-0.2-0.1-0.3-0.2-0.4-0.4c-0.1-0.1-0.2-0.4-0.2-0.6c0-0.4,0.2-0.8,0.5-1.1
		c0.4-0.3,0.8-0.5,1.3-0.7c0.5-0.2,1-0.4,1.5-0.6s0.9-0.4,1.2-0.6v-2c0-2.2-0.1-4.4-0.3-6.7c-0.2-2.2-0.3-4.4-0.3-6.6
		c0-0.6,0.1-1,0.4-1.2c0.3-0.2,0.7-0.3,1.2-0.3c0.6,0,1,0.2,1.3,0.5c0.3,0.3,0.5,0.8,0.6,1.3c0.1,0.5,0.2,1,0.2,1.6c0,0.6,0,1,0,1.4
		c0,0.4,0,1.1,0.1,2.1c0.1,1,0.1,2,0.2,3.1c0.1,1.1,0.1,2.2,0.2,3.1c0.1,1,0.1,1.7,0.1,2.1c0.1,0,0.4-0.1,0.7-0.2
		c0.3-0.1,0.7-0.3,1.1-0.4c0.4-0.1,0.8-0.3,1.1-0.4c0.3-0.1,0.6-0.2,0.7-0.3c0.8-0.3,1.6-0.7,2.4-1.1c0.8-0.4,1.7-0.6,2.6-0.6
		c0.6,0,1.1,0.2,1.4,0.6s0.5,0.9,0.5,1.4c0,0.4-0.2,0.7-0.4,0.9c-0.3,0.2-0.6,0.3-0.9,0.5l-8.2,3.1c-0.1,0.1-0.2,0.1-0.3,0.2
		s-0.2,0.1-0.3,0.2v1.4c0,1,0,2.1,0.1,3.3s0.1,2.2,0.3,3.3c0.1,0.9,0.3,1.8,0.5,2.7c0.2,0.9,0.3,1.8,0.3,2.7c0,0.3-0.1,0.6-0.3,1.1
		s-0.5,0.7-0.9,0.7c-0.8,0-1.5-0.2-2-0.7c-0.5-0.5-0.8-1.1-0.9-1.9c-0.2-1.6-0.3-3.3-0.5-5.1c-0.2-1.9-0.3-3.6-0.5-5.3H451.8z"/>
	<path fill="#555555" d="M476.4,167.5c-0.3,0.5-0.6,1.1-0.9,1.7c-0.3,0.7-0.7,1.4-1.1,2.2c-0.4,0.8-0.8,1.5-1.3,2.3
		c-0.5,0.8-0.9,1.5-1.4,2.1s-1,1.2-1.5,1.6c-0.5,0.4-1.1,0.7-1.7,0.8c-0.2,0-0.5,0-0.8-0.1c-0.3,0-0.6-0.1-0.9-0.2
		c-0.3-0.1-0.5-0.3-0.7-0.4c-0.2-0.2-0.3-0.5-0.3-0.8c0-3.1,0.3-5.8,0.7-8.3c0.4-2.5,1.1-4.7,2-6.6c0.9-1.9,2.1-3.5,3.5-4.7
		c1.4-1.3,3.1-2.2,5.1-2.7c0.1,0,0.2,0,0.3,0c0.2,0,0.3,0,0.3,0c0.9,0,1.5,0.4,2,1.2s0.7,2.2,0.9,4c0.2,1.8,0.3,4.2,0.4,7.1
		c0.1,2.9,0.2,6.4,0.5,10.4c0.1,0.3,0.1,0.6,0.2,0.9c0,0.2,0,0.5,0,0.9c0,0.4-0.1,0.8-0.4,1s-0.6,0.3-1,0.3c-0.9,0-1.5-0.2-1.8-0.7
		c-0.4-0.5-0.6-1.1-0.7-1.9c0,0,0-0.3-0.1-0.7s-0.1-1-0.2-1.5c-0.1-0.6-0.1-1.2-0.2-1.8c-0.1-0.6-0.1-1.1-0.1-1.5v-0.2
		c-0.1-0.3-0.1-0.7-0.1-1.1c0-0.4-0.1-0.9-0.1-1.3c-0.1-0.5-0.1-1-0.1-1.5L476.4,167.5z M475.4,158.6c-0.8,0.6-1.6,1.4-2.4,2.4
		c-0.8,1-1.3,2-1.7,3c-0.2,0.4-0.3,1.1-0.5,1.8c-0.2,0.8-0.3,1.5-0.5,2.3s-0.2,1.5-0.3,2.1c-0.1,0.6-0.1,1.1-0.1,1.2
		c0,0,0.1,0,0.1-0.1c0-0.1,0.1-0.1,0.1-0.1c1.9-1.8,3.2-3.7,3.9-5.8C474.9,163.3,475.3,161.1,475.4,158.6z"/>
</g>
<g>
	<path fill="#555555" d="M66.8,342.6c0.3-2.3,0.5-4.1,0.7-5.4c0.2-1.3,0.3-2.2,0.4-2.8c0.1-0.7,0.1-1.1,0.1-1.2
		c0.2-0.7,0.4-1.5,0.7-2.4c0.2-0.8,0.5-1.6,0.9-2.4s0.9-1.3,1.5-1.8c0.6-0.5,1.4-0.7,2.4-0.7c0.4,0,0.8,0,1.1,0.1
		c0.3,0.1,0.7,0.2,1,0.3c0.3,0.1,0.6,0.3,0.9,0.5c0.3,0.2,0.6,0.4,0.9,0.7c0.2,0.2,0.4,0.3,0.4,0.4s0.1,0.2,0.1,0.4
		c0,0.3-0.1,0.6-0.3,0.9s-0.5,0.4-0.9,0.4c-0.3,0-0.6-0.1-0.8-0.2s-0.4-0.3-0.6-0.5c-0.2-0.2-0.4-0.4-0.6-0.5
		c-0.2-0.2-0.5-0.2-0.9-0.2c-0.4,0-0.7,0.1-1,0.3s-0.5,0.5-0.7,0.8c-0.2,0.3-0.4,0.6-0.5,1s-0.2,0.7-0.2,1.1l-1.7,11.2
		c0,0,0,0.2,0,0.3c0,0.2,0,0.3,0,0.4c0,0.2,0,0.4,0,0.6s0,0.5,0.1,0.7c0,0.2,0.1,0.5,0.2,0.6c0.1,0.2,0.3,0.3,0.5,0.3
		c0.1,0,0.3,0,0.4-0.1c1.1-0.8,2.1-1.6,2.9-2.6s1.6-2.1,2.3-3.2c0,0,0.1-0.2,0.2-0.3s0.2-0.4,0.3-0.6s0.2-0.4,0.3-0.6
		c0.1-0.2,0.2-0.3,0.2-0.4c0.1-0.3,0.2-0.6,0.3-0.9s0.2-0.6,0.3-0.9s0.3-0.5,0.5-0.7s0.5-0.3,1-0.3c0.3,0,0.6,0.1,0.9,0.4
		c0.3,0.3,0.5,0.6,0.5,1v0.1c-0.6,1.7-1.3,3.2-2.3,4.7c-0.9,1.4-2,2.8-3.1,4.3c-0.7,0.8-1.5,1.5-2.4,2s-1.9,0.8-3.1,0.8h-0.2
		c-1.1-0.4-1.8-1-2.1-1.8c-0.4-0.8-0.5-1.7-0.5-2.8V342.6z"/>
	<path fill="#555555" d="M82.1,342.6l1.3-9c0-0.3,0.2-0.5,0.4-0.7c0.2-0.1,0.5-0.2,0.8-0.2c0.5,0,0.9,0.1,1.2,0.4
		c0.3,0.3,0.6,0.7,0.8,1.1h0c0.3,0,0.5-0.1,0.8-0.2c0.2-0.1,0.5-0.2,0.8-0.2c0.8,0,1.4,0.2,1.9,0.7s1,1,1.3,1.7
		c0.3,0.7,0.6,1.4,0.7,2.2c0.2,0.8,0.2,1.5,0.2,2c0,0.7-0.2,1.5-0.5,2.4c-0.4,0.9-0.8,1.7-1.4,2.5s-1.3,1.4-2,1.9
		c-0.8,0.5-1.5,0.8-2.3,0.8c-0.7,0-1.3-0.2-1.8-0.5c-0.5-0.3-0.9-0.7-1.2-1.2s-0.5-1.1-0.7-1.7s-0.2-1.3-0.2-1.9V342.6z M85,342.8
		c0,0.2,0.1,0.5,0.1,0.8c0,0.3,0.1,0.6,0.2,0.8c0.1,0.2,0.2,0.4,0.4,0.6s0.4,0.1,0.8,0c0.3-0.3,0.6-0.6,1-0.9s0.7-0.7,1-1.1
		s0.6-0.8,0.8-1.3s0.3-0.9,0.3-1.4c0.1-0.8,0-1.5-0.2-2.2s-0.5-1.1-0.9-1.4s-0.8-0.3-1.3-0.1s-1,0.8-1.5,1.8
		c-0.3,0.6-0.5,1.3-0.6,2.1S85,342,85,342.7V342.8z"/>
	<path fill="#555555" d="M103.9,346.8c-0.3-0.5-0.6-1.1-0.8-2c-0.2-0.8-0.4-1.7-0.6-2.6c-0.2-0.9-0.4-1.8-0.5-2.7
		c-0.2-0.9-0.3-1.6-0.5-2.1s-0.4-0.8-0.6-0.9s-0.5,0.2-0.7,0.9l-3.1,9.4c-0.1,0.3-0.3,0.6-0.4,0.7c-0.2,0.1-0.4,0.2-0.8,0.2
		c-0.2,0-0.4,0-0.6-0.1s-0.4-0.1-0.6-0.3c-0.2-0.1-0.3-0.3-0.5-0.4c-0.1-0.2-0.2-0.4-0.2-0.6c0.1-0.3,0.1-0.8,0.2-1.5
		c0.1-0.8,0.1-1.6,0.1-2.6c0-1,0-2,0.1-3.1c0-1.1,0-2.1,0-3.1c0-0.9,0-1.8-0.1-2.5c0-0.7,0-1.1-0.1-1.4c0-0.2,0-0.5,0-0.7
		c0-0.2,0-0.5,0.1-0.7c0.1-0.2,0.2-0.4,0.3-0.5c0.2-0.1,0.4-0.2,0.7-0.2c0.4,0,0.9,0.2,1.2,0.6s0.6,0.8,0.6,1.2c0,0.6,0,1.2-0.1,1.8
		c-0.1,0.6-0.1,1.2-0.1,1.8c0,0.4,0,0.7,0,0.9s0,0.6,0.1,0.9c0.1-0.2,0.2-0.5,0.4-1c0.2-0.5,0.3-1,0.5-1.5c0.2-0.5,0.4-1,0.5-1.5
		c0.2-0.5,0.3-0.8,0.4-1c0.2-0.5,0.4-0.9,0.7-1.4c0.3-0.4,0.8-0.7,1.3-0.7c0.4,0,0.7,0.1,1,0.3c0.3,0.2,0.5,0.5,0.8,0.8
		s0.4,0.7,0.5,1.1s0.2,0.7,0.3,0.9l1.9,8.8l1.5,4c0,0,0,0.1,0,0.2s0,0.2,0,0.2c0,0.3-0.1,0.6-0.2,0.8c-0.1,0.3-0.4,0.4-0.7,0.4
		c-0.4,0-0.8-0.1-1.2-0.3S104,347.2,103.9,346.8z"/>
	<path fill="#555555" d="M111.8,337.7c-0.3,0-0.6,0.1-0.9,0.2c-0.3,0.2-0.6,0.2-0.9,0.2c0,0-0.2,0-0.4,0c-0.2,0-0.3,0-0.4,0
		c-0.1-0.1-0.2-0.2-0.3-0.3c-0.1-0.1-0.2-0.1-0.4-0.2c-0.1-0.1-0.2-0.2-0.3-0.3c-0.1-0.1-0.1-0.3-0.1-0.5c0-0.4,0.1-0.6,0.4-0.9
		s0.6-0.4,1-0.6c0.4-0.2,0.8-0.3,1.1-0.5s0.7-0.3,0.9-0.5V333c0-1.7-0.1-3.5-0.2-5.2c-0.2-1.7-0.2-3.5-0.2-5.2
		c0-0.5,0.1-0.8,0.4-0.9c0.2-0.1,0.6-0.2,0.9-0.2c0.5,0,0.8,0.1,1,0.4c0.2,0.3,0.4,0.6,0.5,1c0.1,0.4,0.1,0.8,0.1,1.2s0,0.8,0,1.1
		c0,0.3,0,0.8,0.1,1.6c0,0.8,0.1,1.6,0.1,2.5c0,0.9,0.1,1.7,0.1,2.5c0,0.8,0.1,1.3,0.1,1.6c0.1,0,0.3-0.1,0.5-0.2
		c0.3-0.1,0.6-0.2,0.9-0.3c0.3-0.1,0.6-0.2,0.9-0.3c0.3-0.1,0.5-0.2,0.6-0.2c0.6-0.3,1.2-0.5,1.9-0.9c0.7-0.3,1.3-0.5,2-0.5
		c0.5,0,0.8,0.2,1.1,0.5s0.4,0.7,0.4,1.1c0,0.3-0.1,0.5-0.4,0.7c-0.2,0.1-0.5,0.3-0.7,0.4l-6.4,2.4c-0.1,0-0.1,0.1-0.2,0.1
		s-0.1,0.1-0.2,0.2v1.1c0,0.8,0,1.7,0.1,2.5s0.1,1.7,0.2,2.5c0.1,0.7,0.2,1.4,0.4,2.1s0.2,1.4,0.2,2.1c0,0.2-0.1,0.5-0.2,0.8
		s-0.4,0.5-0.7,0.5c-0.6,0-1.1-0.2-1.5-0.6c-0.4-0.4-0.6-0.9-0.7-1.5c-0.1-1.2-0.2-2.6-0.4-4c-0.1-1.5-0.3-2.8-0.4-4.2H111.8z"/>
	<path fill="#555555" d="M123.7,346.5c0-0.8-0.1-2-0.2-3.4s-0.2-2.9-0.4-4.4c-0.1-1.5-0.3-3-0.4-4.3s-0.3-2.4-0.4-3.2
		c0-0.3,0.1-0.5,0.4-0.6s0.6-0.1,0.8-0.1c0.3,0,0.7,0.1,1,0.3c0.4,0.2,0.6,0.4,0.7,0.8c0,0.1,0,0.3,0,0.5c0,0.2,0,0.5,0.1,0.8
		c0,0.3,0,0.5,0.1,0.8c0,0.2,0,0.4,0,0.5c0,0.1,0,0.2,0,0.3s0,0.1,0,0.2s0,0.1,0,0.2c0,0.1,0.1,0.2,0.1,0.4c0,0,0.1-0.1,0.2-0.2
		c0.1-0.1,0.1-0.1,0.1-0.1c0.4-0.5,0.7-1,1.1-1.4s0.7-0.8,1.1-1.2c0.4-0.4,0.8-0.8,1.2-1.2s1-0.9,1.6-1.4c0.1-0.1,0.2-0.2,0.3-0.3
		s0.1-0.1,0.2-0.1c0.1,0,0.1-0.1,0.2-0.1s0.2,0,0.3,0c0.4,0,0.8,0.1,1.2,0.4c0.4,0.3,0.6,0.6,0.6,1.1c0,0.2-0.1,0.3-0.2,0.5
		c-0.1,0.2-0.3,0.3-0.4,0.5c-0.2,0.2-0.3,0.3-0.5,0.4s-0.3,0.2-0.5,0.2c-0.6,0.5-1.3,1.2-1.9,1.8c-0.7,0.7-1.3,1.4-1.9,2.2
		c-0.6,0.8-1.1,1.6-1.4,2.5c-0.4,0.9-0.6,1.7-0.6,2.6c0,0.8,0.1,1.6,0.2,2.4c0.1,0.8,0.2,1.6,0.2,2.4v1.2c-0.2,0.2-0.4,0.3-0.5,0.5
		s-0.3,0.2-0.6,0.2c-0.4,0-0.8-0.2-1.2-0.5C124,347.2,123.8,346.8,123.7,346.5z"/>
	<path fill="#555555" d="M133.3,342.6l1.3-9c0-0.3,0.2-0.5,0.4-0.7c0.2-0.1,0.5-0.2,0.8-0.2c0.5,0,0.9,0.1,1.2,0.4
		c0.3,0.3,0.6,0.7,0.8,1.1h0c0.3,0,0.5-0.1,0.8-0.2c0.2-0.1,0.5-0.2,0.8-0.2c0.8,0,1.4,0.2,1.9,0.7s1,1,1.3,1.7
		c0.3,0.7,0.6,1.4,0.7,2.2c0.2,0.8,0.2,1.5,0.2,2c0,0.7-0.2,1.5-0.5,2.4c-0.4,0.9-0.8,1.7-1.4,2.5s-1.3,1.4-2,1.9
		c-0.8,0.5-1.5,0.8-2.3,0.8c-0.7,0-1.3-0.2-1.8-0.5c-0.5-0.3-0.9-0.7-1.2-1.2s-0.5-1.1-0.7-1.7s-0.2-1.3-0.2-1.9V342.6z
		 M136.3,342.8c0,0.2,0.1,0.5,0.1,0.8c0,0.3,0.1,0.6,0.2,0.8c0.1,0.2,0.2,0.4,0.4,0.6s0.4,0.1,0.8,0c0.3-0.3,0.6-0.6,1-0.9
		s0.7-0.7,1-1.1s0.6-0.8,0.8-1.3s0.3-0.9,0.3-1.4c0.1-0.8,0-1.5-0.2-2.2s-0.5-1.1-0.9-1.4s-0.8-0.3-1.3-0.1s-1,0.8-1.5,1.8
		c-0.3,0.6-0.5,1.3-0.6,2.1s-0.2,1.6-0.2,2.2V342.8z"/>
	<path fill="#555555" d="M145.4,345.5c0-1,0-1.9,0.1-2.9c0-0.9,0.1-1.9,0.1-2.9c-0.1-2.7-0.1-5.3-0.1-7.9c0-2.6-0.1-5.2-0.4-7.9
		c0-0.4,0.1-0.7,0.3-0.9s0.5-0.2,0.9-0.2c0.5,0,1,0.2,1.4,0.5s0.6,0.8,0.6,1.3c0,3.3,0,6.6,0.1,9.9c0.1,3.3,0.2,6.6,0.2,9.9v2.7
		c-0.1,0.2-0.3,0.4-0.6,0.6c-0.3,0.2-0.5,0.3-0.8,0.2c-0.7-0.1-1.2-0.4-1.5-0.8C145.5,346.7,145.4,346.2,145.4,345.5z"/>
	<path fill="#555555" d="M150.8,345.5c0-1,0-1.9,0.1-2.9c0-0.9,0.1-1.9,0.1-2.9c-0.1-2.7-0.1-5.3-0.1-7.9c0-2.6-0.1-5.2-0.4-7.9
		c0-0.4,0.1-0.7,0.3-0.9s0.5-0.2,0.9-0.2c0.5,0,1,0.2,1.4,0.5s0.6,0.8,0.6,1.3c0,3.3,0,6.6,0.1,9.9c0.1,3.3,0.2,6.6,0.2,9.9v2.7
		c-0.1,0.2-0.3,0.4-0.6,0.6c-0.3,0.2-0.5,0.3-0.8,0.2c-0.7-0.1-1.2-0.4-1.5-0.8C150.9,346.7,150.8,346.2,150.8,345.5z"/>
	<path fill="#555555" d="M170.5,338c0,0.4-0.1,0.8-0.2,1c-0.1,0.2-0.2,0.4-0.3,0.6s-0.3,0.4-0.6,0.6c-0.3,0.2-0.6,0.5-1.1,0.8
		c-0.4,0.4-1,0.8-1.7,1.4c-0.7,0.6-1.5,1.3-2.4,2.3c-0.4,0.4-0.8,0.7-1.2,1.1c-0.4,0.4-0.8,0.7-1.2,1c-0.4,0.3-0.9,0.5-1.4,0.7
		c-0.5,0.2-1,0.3-1.5,0.3c-1,0-1.7-0.3-2.2-1c-0.5-0.7-0.7-1.5-0.7-2.4c0-0.6,0-1.1,0.1-1.5s0.1-0.9,0.3-1.5
		c-0.3-0.2-0.5-0.4-0.7-0.6c-0.2-0.2-0.3-0.4-0.3-0.7c0-0.3,0.1-0.5,0.2-0.6c0.1-0.1,0.3-0.2,0.5-0.2s0.3-0.1,0.5-0.1
		c0.2,0,0.3-0.1,0.4-0.3c0-0.1,0.1-0.4,0.3-0.8c0.1-0.4,0.3-0.8,0.4-1.2s0.3-0.8,0.4-1.2c0.1-0.4,0.2-0.6,0.3-0.8
		c0.2-0.4,0.3-0.8,0.5-1.2c0.2-0.4,0.4-0.8,0.7-1.1c0.3-0.3,0.6-0.6,0.9-0.8c0.4-0.2,0.8-0.3,1.3-0.3c0.3,0,0.6,0.1,1,0.4
		c0.4,0.3,0.8,0.6,1.2,0.9c0.4,0.4,0.7,0.7,0.9,1.1c0.3,0.4,0.4,0.7,0.4,1c0,0.4-0.1,0.7-0.2,1c-0.2,0.3-0.4,0.6-0.6,0.8
		s-0.5,0.5-0.8,0.7s-0.5,0.4-0.8,0.6c0,0-0.1,0-0.1,0.1s-0.1,0.1-0.2,0.1c0,0-0.1,0.1-0.2,0.2c-0.1,0.1-0.2,0.2-0.3,0.3
		c-0.1,0.1-0.2,0.2-0.3,0.3c-0.1,0.1-0.1,0.2-0.2,0.2c-0.1,0.1-0.2,0.2-0.4,0.3c-0.2,0.2-0.4,0.3-0.7,0.5c-0.2,0.2-0.5,0.3-0.7,0.5
		c-0.2,0.2-0.3,0.3-0.4,0.3l-0.1,0.3c0,0.1-0.1,0.3-0.1,0.6s-0.1,0.7-0.1,1.1c0,0.4-0.1,0.8-0.1,1.2s-0.1,0.7-0.1,1c0,0,0,0,0,0.1
		c0,0,0.1,0.1,0.1,0.1c0.2,0,0.4-0.1,0.5-0.2c0.2-0.2,0.3-0.3,0.5-0.4l5.6-5.2l1.4-2.2c0.1-0.2,0.3-0.3,0.7-0.5
		c0.3-0.2,0.7-0.3,1-0.3s0.7,0.1,0.9,0.3C170.4,336.9,170.5,337.3,170.5,338z M162.8,335.3c0.1-0.1,0.2-0.2,0.1-0.4
		c0-0.2-0.1-0.4-0.2-0.5s-0.2-0.2-0.4-0.3c-0.2,0-0.3,0.1-0.5,0.3c-0.1,0.1-0.2,0.3-0.4,0.6s-0.4,0.6-0.5,0.9s-0.3,0.5-0.4,0.8
		c-0.1,0.2-0.1,0.3-0.1,0.2L162.8,335.3z"/>
	<path fill="#555555" d="M173.1,346.5c0-0.8-0.1-2-0.2-3.4s-0.2-2.9-0.4-4.4c-0.1-1.5-0.3-3-0.4-4.3s-0.3-2.4-0.4-3.2
		c0-0.3,0.1-0.5,0.4-0.6s0.6-0.1,0.8-0.1c0.3,0,0.7,0.1,1,0.3c0.4,0.2,0.6,0.4,0.7,0.8c0,0.1,0,0.3,0,0.5c0,0.2,0,0.5,0.1,0.8
		c0,0.3,0,0.5,0.1,0.8c0,0.2,0,0.4,0,0.5c0,0.1,0,0.2,0,0.3s0,0.1,0,0.2s0,0.1,0,0.2c0,0.1,0.1,0.2,0.1,0.4c0,0,0.1-0.1,0.2-0.2
		c0.1-0.1,0.1-0.1,0.1-0.1c0.4-0.5,0.7-1,1.1-1.4s0.7-0.8,1.1-1.2c0.4-0.4,0.8-0.8,1.2-1.2s1-0.9,1.6-1.4c0.1-0.1,0.2-0.2,0.3-0.3
		s0.1-0.1,0.2-0.1c0.1,0,0.1-0.1,0.2-0.1s0.2,0,0.3,0c0.4,0,0.8,0.1,1.2,0.4c0.4,0.3,0.6,0.6,0.6,1.1c0,0.2-0.1,0.3-0.2,0.5
		c-0.1,0.2-0.3,0.3-0.4,0.5c-0.2,0.2-0.3,0.3-0.5,0.4s-0.3,0.2-0.5,0.2c-0.6,0.5-1.3,1.2-1.9,1.8c-0.7,0.7-1.3,1.4-1.9,2.2
		c-0.6,0.8-1.1,1.6-1.4,2.5c-0.4,0.9-0.6,1.7-0.6,2.6c0,0.8,0.1,1.6,0.2,2.4c0.1,0.8,0.2,1.6,0.2,2.4v1.2c-0.2,0.2-0.4,0.3-0.5,0.5
		s-0.3,0.2-0.6,0.2c-0.4,0-0.8-0.2-1.2-0.5C173.4,347.2,173.2,346.8,173.1,346.5z"/>
</g>
<g>
	<path fill="#555555" d="M288.8,342.6c0.3-2.3,0.5-4.1,0.7-5.4c0.2-1.3,0.3-2.2,0.4-2.8c0.1-0.7,0.1-1.1,0.1-1.2
		c0.2-0.7,0.4-1.5,0.7-2.4c0.2-0.8,0.5-1.6,0.9-2.4s0.9-1.3,1.5-1.8c0.6-0.5,1.4-0.7,2.4-0.7c0.4,0,0.8,0,1.1,0.1
		c0.3,0.1,0.7,0.2,1,0.3c0.3,0.1,0.6,0.3,0.9,0.5c0.3,0.2,0.6,0.4,0.9,0.7c0.2,0.2,0.4,0.3,0.4,0.4s0.1,0.2,0.1,0.4
		c0,0.3-0.1,0.6-0.3,0.9s-0.5,0.4-0.9,0.4c-0.3,0-0.6-0.1-0.8-0.2s-0.4-0.3-0.6-0.5c-0.2-0.2-0.4-0.4-0.6-0.5
		c-0.2-0.2-0.5-0.2-0.9-0.2c-0.4,0-0.7,0.1-1,0.3s-0.5,0.5-0.7,0.8c-0.2,0.3-0.4,0.6-0.5,1s-0.2,0.7-0.2,1.1l-1.7,11.2
		c0,0,0,0.2,0,0.3c0,0.2,0,0.3,0,0.4c0,0.2,0,0.4,0,0.6s0,0.5,0.1,0.7c0,0.2,0.1,0.5,0.2,0.6c0.1,0.2,0.3,0.3,0.5,0.3
		c0.1,0,0.3,0,0.4-0.1c1.1-0.8,2.1-1.6,2.9-2.6s1.6-2.1,2.3-3.2c0,0,0.1-0.2,0.2-0.3s0.2-0.4,0.3-0.6s0.2-0.4,0.3-0.6
		c0.1-0.2,0.2-0.3,0.2-0.4c0.1-0.3,0.2-0.6,0.3-0.9s0.2-0.6,0.3-0.9s0.3-0.5,0.5-0.7s0.5-0.3,1-0.3c0.3,0,0.6,0.1,0.9,0.4
		c0.3,0.3,0.5,0.6,0.5,1v0.1c-0.6,1.7-1.3,3.2-2.3,4.7c-0.9,1.4-2,2.8-3.1,4.3c-0.7,0.8-1.5,1.5-2.4,2s-1.9,0.8-3.1,0.8h-0.2
		c-1.1-0.4-1.8-1-2.1-1.8c-0.4-0.8-0.5-1.7-0.5-2.8V342.6z"/>
	<path fill="#555555" d="M304.1,342.6l1.3-9c0-0.3,0.2-0.5,0.4-0.7c0.2-0.1,0.5-0.2,0.8-0.2c0.5,0,0.9,0.1,1.2,0.4
		c0.3,0.3,0.6,0.7,0.8,1.1h0c0.3,0,0.5-0.1,0.8-0.2c0.2-0.1,0.5-0.2,0.8-0.2c0.8,0,1.4,0.2,1.9,0.7s1,1,1.3,1.7
		c0.3,0.7,0.6,1.4,0.7,2.2c0.2,0.8,0.2,1.5,0.2,2c0,0.7-0.2,1.5-0.5,2.4c-0.4,0.9-0.8,1.7-1.4,2.5s-1.3,1.4-2,1.9
		c-0.8,0.5-1.5,0.8-2.3,0.8c-0.7,0-1.3-0.2-1.8-0.5c-0.5-0.3-0.9-0.7-1.2-1.2s-0.5-1.1-0.7-1.7s-0.2-1.3-0.2-1.9V342.6z M307,342.8
		c0,0.2,0.1,0.5,0.1,0.8c0,0.3,0.1,0.6,0.2,0.8c0.1,0.2,0.2,0.4,0.4,0.6s0.4,0.1,0.8,0c0.3-0.3,0.6-0.6,1-0.9s0.7-0.7,1-1.1
		s0.6-0.8,0.8-1.3s0.3-0.9,0.3-1.4c0.1-0.8,0-1.5-0.2-2.2s-0.5-1.1-0.9-1.4s-0.8-0.3-1.3-0.1s-1,0.8-1.5,1.8
		c-0.3,0.6-0.5,1.3-0.6,2.1s-0.2,1.6-0.2,2.2V342.8z"/>
	<path fill="#555555" d="M316.2,334.7c-0.1-0.6-0.1-1.2-0.3-1.8c0-0.5,0.2-0.8,0.5-1c0.3-0.1,0.7-0.2,1.1-0.2h0.7
		c0.4,0.2,0.6,0.4,0.7,0.6s0.2,0.5,0.3,0.8c0,0.3,0.1,0.6,0.1,0.9c0,0.3,0,0.6,0,0.9c0,0.1,0,0.3,0,0.6s0,0.6,0,0.9
		c0,0.3,0,0.6,0.1,0.8s0.1,0.4,0.2,0.5l3.1-5.8c0.1-0.3,0.3-0.5,0.6-0.7c0.3-0.2,0.6-0.2,0.9-0.2c0.5,0,0.9,0.1,1.2,0.3
		c0.3,0.2,0.4,0.4,0.5,0.6s0.2,0.5,0.2,0.9c0,0.4,0,0.7,0.1,1.2c0,0.1,0,0.4,0,0.8c0,0.4,0.1,0.8,0.1,1.2s0.1,0.8,0.1,1.2
		s0.1,0.6,0.1,0.8h0.1c0-0.2,0.1-0.5,0.3-0.9c0.1-0.5,0.3-1,0.4-1.5c0.2-0.5,0.3-1,0.5-1.5s0.2-0.8,0.3-1c0,0,0.1-0.1,0.1-0.3
		s0.1-0.3,0.2-0.5s0.1-0.3,0.2-0.5s0.1-0.3,0.1-0.3c0.2-0.3,0.3-0.4,0.5-0.4s0.4,0,0.6,0c0.6,0,1,0.1,1.4,0.4s0.6,0.7,0.7,1.1
		c0.2,0.4,0.3,0.9,0.3,1.5s0.2,1,0.2,1.5c0,0,0,0,0,0.1s0,0.1,0,0.1l1.9,10.2c0.1,0.1,0.1,0.2,0.2,0.2c0,0.1,0,0.2,0,0.3
		c0,0.3-0.1,0.5-0.4,0.8s-0.5,0.4-0.8,0.4c-0.4,0-0.8-0.1-1.2-0.4s-0.7-0.6-0.8-1l-1.6-8.3l-0.2-0.3c0,0.1-0.1,0.5-0.3,1
		c-0.2,0.6-0.3,1.2-0.5,2.1s-0.5,1.8-0.7,2.8c-0.3,1-0.5,2.1-0.8,3.2c0,0.2-0.2,0.4-0.4,0.5c-0.2,0.1-0.4,0.2-0.6,0.2
		c-0.5,0-0.9-0.1-1.2-0.2c-0.3-0.1-0.5-0.3-0.7-0.5c-0.2-0.2-0.3-0.5-0.4-0.8s-0.1-0.7-0.2-1.1c0-0.1,0-0.4-0.1-1
		c0-0.6-0.1-1.2-0.2-2c-0.1-0.7-0.1-1.5-0.2-2.2s-0.1-1.3-0.1-1.8c0-0.1,0-0.2,0-0.2s0-0.1,0-0.1s0-0.1,0-0.1c0-0.1-0.1-0.2-0.1-0.3
		l-1,2.4l-1.6,5.9l-0.4,2.2c0,0.1-0.1,0.3-0.2,0.4s-0.2,0.2-0.4,0.2s-0.3,0.1-0.4,0.1s-0.3,0-0.4,0c-0.5,0-1-0.2-1.3-0.6
		c-0.4-0.4-0.6-0.8-0.6-1.2c0-0.2,0-0.5-0.1-1c0-0.5-0.1-1-0.1-1.7c0-0.7-0.1-1.3-0.1-2.1s-0.1-1.4-0.1-2.1c0-0.7-0.1-1.2-0.1-1.7
		s-0.1-0.8-0.1-1v-0.1C316.3,335.9,316.3,335.3,316.2,334.7z"/>
	<path fill="#555555" d="M336.6,334.7c-0.1-0.6-0.1-1.2-0.3-1.8c0-0.5,0.2-0.8,0.5-1c0.3-0.1,0.7-0.2,1.1-0.2h0.7
		c0.4,0.2,0.6,0.4,0.7,0.6s0.2,0.5,0.3,0.8c0,0.3,0.1,0.6,0.1,0.9c0,0.3,0,0.6,0,0.9c0,0.1,0,0.3,0,0.6s0,0.6,0,0.9
		c0,0.3,0,0.6,0.1,0.8s0.1,0.4,0.2,0.5l3.1-5.8c0.1-0.3,0.3-0.5,0.6-0.7c0.3-0.2,0.6-0.2,0.9-0.2c0.5,0,0.9,0.1,1.2,0.3
		c0.3,0.2,0.4,0.4,0.5,0.6s0.2,0.5,0.2,0.9c0,0.4,0,0.7,0.1,1.2c0,0.1,0,0.4,0,0.8c0,0.4,0.1,0.8,0.1,1.2s0.1,0.8,0.1,1.2
		s0.1,0.6,0.1,0.8h0.1c0-0.2,0.1-0.5,0.3-0.9c0.1-0.5,0.3-1,0.4-1.5c0.2-0.5,0.3-1,0.5-1.5s0.2-0.8,0.3-1c0,0,0.1-0.1,0.1-0.3
		s0.1-0.3,0.2-0.5s0.1-0.3,0.2-0.5s0.1-0.3,0.1-0.3c0.2-0.3,0.3-0.4,0.5-0.4s0.4,0,0.6,0c0.6,0,1,0.1,1.4,0.4s0.6,0.7,0.7,1.1
		c0.2,0.4,0.3,0.9,0.3,1.5s0.2,1,0.2,1.5c0,0,0,0,0,0.1s0,0.1,0,0.1l1.9,10.2c0.1,0.1,0.1,0.2,0.2,0.2c0,0.1,0,0.2,0,0.3
		c0,0.3-0.1,0.5-0.4,0.8s-0.5,0.4-0.8,0.4c-0.4,0-0.8-0.1-1.2-0.4s-0.7-0.6-0.8-1l-1.6-8.3l-0.2-0.3c0,0.1-0.1,0.5-0.3,1
		c-0.2,0.6-0.3,1.2-0.5,2.1s-0.5,1.8-0.7,2.8c-0.3,1-0.5,2.1-0.8,3.2c0,0.2-0.2,0.4-0.4,0.5c-0.2,0.1-0.4,0.2-0.6,0.2
		c-0.5,0-0.9-0.1-1.2-0.2c-0.3-0.1-0.5-0.3-0.7-0.5c-0.2-0.2-0.3-0.5-0.4-0.8s-0.1-0.7-0.2-1.1c0-0.1,0-0.4-0.1-1
		c0-0.6-0.1-1.2-0.2-2c-0.1-0.7-0.1-1.5-0.2-2.2s-0.1-1.3-0.1-1.8c0-0.1,0-0.2,0-0.2s0-0.1,0-0.1s0-0.1,0-0.1c0-0.1-0.1-0.2-0.1-0.3
		l-1,2.4L341,345l-0.4,2.2c0,0.1-0.1,0.3-0.2,0.4s-0.2,0.2-0.4,0.2s-0.3,0.1-0.4,0.1s-0.3,0-0.4,0c-0.5,0-1-0.2-1.3-0.6
		c-0.4-0.4-0.6-0.8-0.6-1.2c0-0.2,0-0.5-0.1-1c0-0.5-0.1-1-0.1-1.7c0-0.7-0.1-1.3-0.1-2.1s-0.1-1.4-0.1-2.1c0-0.7-0.1-1.2-0.1-1.7
		s-0.1-0.8-0.1-1v-0.1C336.7,335.9,336.7,335.3,336.6,334.7z"/>
	<path fill="#555555" d="M363.7,344.7c-0.2,0.4-0.3,0.7-0.5,1.1c-0.2,0.4-0.4,0.8-0.6,1.1s-0.5,0.6-0.8,0.8
		c-0.3,0.2-0.7,0.3-1.2,0.3c-0.8,0-1.5-0.2-2-0.6c-0.5-0.4-1-0.9-1.3-1.5c-0.3-0.6-0.6-1.3-0.7-2s-0.2-1.4-0.2-2l0.3-8.5
		c0-0.2,0-0.3,0.1-0.5s0.2-0.3,0.4-0.5s0.4-0.3,0.6-0.4c0.2-0.1,0.4-0.1,0.6-0.1c0.5,0,1,0.2,1.4,0.5c0.4,0.3,0.6,0.8,0.6,1.3v0.4
		c-0.3,0.4-0.5,1-0.7,1.7c-0.2,0.7-0.3,1.4-0.4,2.2s-0.2,1.6-0.2,2.4c0,0.8,0,1.6,0.1,2.2c0.1,0.7,0.2,1.3,0.4,1.7
		c0.2,0.5,0.4,0.8,0.7,0.9c0.1,0,0.3-0.1,0.5-0.2s0.5-0.3,0.8-0.7s0.6-0.8,0.9-1.4c0.3-0.6,0.6-1.4,0.8-2.4c0.2-1,0.4-2.2,0.5-3.6
		c0.1-1.4,0.2-3.1,0.1-5.1c0.1-0.3,0.2-0.4,0.4-0.4s0.4,0,0.5,0c0.2,0,0.4,0,0.5,0s0.3,0.1,0.5,0.3c0.1,0.1,0.2,0.3,0.4,0.5
		s0.2,0.4,0.2,0.4l0.6,15.6c0,0.4-0.1,0.6-0.3,0.9c-0.2,0.2-0.5,0.4-0.8,0.4c-0.1,0-0.3,0-0.4,0c-0.2,0-0.3-0.1-0.5-0.1
		c-0.2-0.1-0.3-0.2-0.4-0.3c-0.1-0.1-0.2-0.2-0.2-0.4l-0.6-3.5L363.7,344.7z"/>
	<path fill="#555555" d="M379,346.8c-0.3-0.5-0.6-1.1-0.8-2c-0.2-0.8-0.4-1.7-0.6-2.6c-0.2-0.9-0.4-1.8-0.5-2.7
		c-0.2-0.9-0.3-1.6-0.5-2.1s-0.4-0.8-0.6-0.9s-0.5,0.2-0.7,0.9l-3.1,9.4c-0.1,0.3-0.3,0.6-0.4,0.7c-0.2,0.1-0.4,0.2-0.8,0.2
		c-0.2,0-0.4,0-0.6-0.1s-0.4-0.1-0.6-0.3c-0.2-0.1-0.3-0.3-0.5-0.4c-0.1-0.2-0.2-0.4-0.2-0.6c0.1-0.3,0.1-0.8,0.2-1.5
		c0.1-0.8,0.1-1.6,0.1-2.6c0-1,0-2,0.1-3.1c0-1.1,0-2.1,0-3.1c0-0.9,0-1.8-0.1-2.5c0-0.7,0-1.1-0.1-1.4c0-0.2,0-0.5,0-0.7
		c0-0.2,0-0.5,0.1-0.7c0.1-0.2,0.2-0.4,0.3-0.5c0.2-0.1,0.4-0.2,0.7-0.2c0.4,0,0.9,0.2,1.2,0.6s0.6,0.8,0.6,1.2c0,0.6,0,1.2-0.1,1.8
		c-0.1,0.6-0.1,1.2-0.1,1.8c0,0.4,0,0.7,0,0.9s0,0.6,0.1,0.9c0.1-0.2,0.2-0.5,0.4-1c0.2-0.5,0.3-1,0.5-1.5c0.2-0.5,0.4-1,0.5-1.5
		c0.2-0.5,0.3-0.8,0.4-1c0.2-0.5,0.4-0.9,0.7-1.4c0.3-0.4,0.8-0.7,1.3-0.7c0.4,0,0.7,0.1,1,0.3c0.3,0.2,0.5,0.5,0.8,0.8
		s0.4,0.7,0.5,1.1s0.2,0.7,0.3,0.9l1.9,8.8l1.5,4c0,0,0,0.1,0,0.2s0,0.2,0,0.2c0,0.3-0.1,0.6-0.2,0.8c-0.1,0.3-0.4,0.4-0.7,0.4
		c-0.4,0-0.8-0.1-1.2-0.3S379.2,347.2,379,346.8z"/>
	<path fill="#555555" d="M383.2,321c0-0.2,0.1-0.3,0.4-0.4c0.3-0.1,0.5-0.2,0.6-0.2c0.4,0,0.7,0.1,1.2,0.3c0.4,0.2,0.7,0.5,0.7,0.9
		s-0.1,0.7-0.2,0.8s-0.4,0.2-0.8,0.2c-0.4,0-0.8-0.1-1.3-0.4C383.5,321.9,383.2,321.5,383.2,321z M385.2,346.7
		c-0.2-2.3-0.4-4.3-0.6-6c-0.2-1.7-0.3-3.1-0.4-4.2c-0.1-1.1-0.2-2-0.3-2.7c-0.1-0.7-0.1-1.2-0.2-1.5c0-0.3-0.1-0.6-0.1-0.7
		c0-0.1,0-0.2,0-0.2v-0.1c0-0.3,0.1-0.5,0.3-0.7c0.2-0.2,0.5-0.3,0.7-0.3c0.4,0,0.7,0.1,1.1,0.2c0.4,0.1,0.7,0.4,0.8,0.7
		c0.2,1.1,0.4,2.3,0.4,3.5c0.1,1.2,0.2,2.3,0.2,3.5c0.1,1.2,0.1,2.3,0.2,3.5s0.3,2.3,0.6,3.5c0,0,0,0.1,0.1,0.3s0.1,0.3,0.1,0.5
		s0.1,0.3,0.1,0.5c0,0.1,0,0.2,0,0.3v0.1c0,0,0,0,0,0.1c0,0.3-0.1,0.6-0.4,0.8c-0.3,0.3-0.5,0.4-0.8,0.4c-0.1,0-0.2-0.1-0.5-0.1
		c-0.3-0.1-0.5-0.1-0.5-0.2c-0.1,0-0.2-0.1-0.3-0.2c-0.1-0.1-0.2-0.2-0.3-0.3s-0.2-0.2-0.3-0.3S385.1,346.8,385.2,346.7z"/>
	<path fill="#555555" d="M389.6,343.8c-0.2-0.7-0.2-1.5,0-2.5s0.5-1.9,0.8-2.9s0.9-1.9,1.4-2.8c0.6-0.9,1.2-1.6,1.8-2.1
		c0.6-0.5,1.3-0.8,2-0.9s1.3,0.2,1.9,0.9c0,0,0,0.1,0,0.2s0,0.3,0.1,0.6s0,0.7,0.1,1.2s0,1.2,0,2.2c0,0,0.1,0.1,0.1,0.2
		s0.1,0.2,0.1,0.2c-0.1,0.3-0.2,0.5-0.4,0.7s-0.5,0.3-0.8,0.3c-0.4,0-0.7-0.1-1-0.2s-0.4-0.4-0.5-0.9c0-0.1,0.1-0.2,0-0.4
		c0-0.2-0.1-0.5-0.1-0.8c-0.1-0.3-0.1-0.6-0.2-0.8c0-0.3-0.1-0.5-0.1-0.7c0,0-0.1,0-0.1,0.1s-0.1,0.1-0.1,0.1
		c-0.4,0.7-0.8,1.5-1.1,2.3c-0.3,0.9-0.6,1.7-0.8,2.6s-0.2,1.8-0.2,2.6c0.1,0.9,0.3,1.7,0.8,2.4c0.3,0,0.6-0.1,0.9-0.4
		s0.5-0.5,0.7-0.8c0.4-0.5,0.8-0.9,1.2-1.4s0.7-1,1.1-1.5c0.1-0.2,0.2-0.4,0.3-0.6s0.2-0.3,0.3-0.5s0.2-0.2,0.4-0.3s0.4-0.1,0.7-0.1
		c0.4,0,0.7,0.1,1.1,0.3s0.5,0.5,0.5,0.9c0,0.5-0.2,1.2-0.7,2s-1.1,1.6-1.8,2.3s-1.4,1.4-2.2,1.9s-1.5,0.8-2,0.8
		c-0.6,0-1.1-0.1-1.6-0.3s-1-0.5-1.4-0.9s-0.7-0.8-0.9-1.3C389.8,345,389.6,344.4,389.6,343.8z"/>
	<path fill="#555555" d="M410.3,338.2c-0.2,0.4-0.5,0.8-0.7,1.4s-0.6,1.1-0.9,1.7s-0.6,1.2-1,1.8s-0.7,1.1-1.1,1.6s-0.8,0.9-1.2,1.2
		s-0.9,0.5-1.3,0.6c-0.2,0-0.4,0-0.6-0.1s-0.5-0.1-0.7-0.2s-0.4-0.2-0.6-0.4s-0.2-0.4-0.2-0.6c0-2.4,0.2-4.6,0.5-6.5
		s0.8-3.7,1.5-5.2s1.6-2.7,2.7-3.7s2.4-1.7,4-2.1c0,0,0.1,0,0.3,0s0.2,0,0.3,0c0.7,0,1.2,0.3,1.5,1s0.6,1.7,0.7,3.2s0.3,3.3,0.3,5.6
		s0.2,5,0.4,8.1c0.1,0.3,0.1,0.5,0.1,0.7s0,0.4,0,0.7c0,0.4-0.1,0.6-0.3,0.8s-0.5,0.3-0.8,0.3c-0.7,0-1.2-0.2-1.4-0.6
		s-0.5-0.9-0.6-1.5c0,0,0-0.2-0.1-0.6s-0.1-0.8-0.1-1.2s-0.1-0.9-0.2-1.4s-0.1-0.9-0.1-1.2v-0.1c0-0.2-0.1-0.5-0.1-0.9s0-0.7-0.1-1
		c0-0.4-0.1-0.8-0.1-1.2L410.3,338.2z M409.5,331.2c-0.6,0.5-1.3,1.1-1.9,1.9s-1,1.6-1.3,2.3c-0.1,0.4-0.2,0.8-0.4,1.4
		s-0.3,1.2-0.4,1.8s-0.2,1.1-0.3,1.7s-0.1,0.8-0.1,1c0,0,0.1,0,0.1-0.1s0.1-0.1,0.1-0.1c1.5-1.4,2.5-2.9,3.1-4.6
		S409.4,333.2,409.5,331.2z"/>
	<path fill="#555555" d="M419.5,337.7c-0.3,0-0.6,0.1-0.9,0.2s-0.6,0.2-0.9,0.2c0,0-0.2,0-0.4,0s-0.3,0-0.4,0
		c-0.1-0.1-0.2-0.2-0.3-0.3s-0.2-0.1-0.4-0.2s-0.2-0.2-0.3-0.3s-0.1-0.3-0.1-0.5c0-0.4,0.1-0.6,0.4-0.9s0.6-0.4,1-0.6
		s0.8-0.3,1.1-0.5s0.7-0.3,0.9-0.5V333c0-1.7-0.1-3.5-0.2-5.2s-0.2-3.5-0.2-5.2c0-0.5,0.1-0.8,0.4-0.9s0.6-0.2,0.9-0.2
		c0.5,0,0.8,0.1,1,0.4s0.4,0.6,0.5,1s0.1,0.8,0.1,1.2s0,0.8,0,1.1c0,0.3,0,0.8,0.1,1.6s0.1,1.6,0.1,2.5s0.1,1.7,0.1,2.5
		s0.1,1.3,0.1,1.6c0.1,0,0.3-0.1,0.5-0.2s0.6-0.2,0.9-0.3s0.6-0.2,0.9-0.3s0.5-0.2,0.6-0.2c0.6-0.3,1.2-0.5,1.9-0.9s1.3-0.5,2-0.5
		c0.5,0,0.8,0.2,1.1,0.5s0.4,0.7,0.4,1.1c0,0.3-0.1,0.5-0.4,0.7s-0.5,0.3-0.7,0.4L423,336c-0.1,0-0.1,0.1-0.2,0.1s-0.1,0.1-0.2,0.2
		v1.1c0,0.8,0,1.7,0.1,2.5s0.1,1.7,0.2,2.5c0.1,0.7,0.2,1.4,0.4,2.1s0.2,1.4,0.2,2.1c0,0.2-0.1,0.5-0.2,0.8s-0.4,0.5-0.7,0.5
		c-0.6,0-1.1-0.2-1.5-0.6s-0.6-0.9-0.7-1.5c-0.1-1.2-0.2-2.6-0.4-4s-0.3-2.8-0.4-4.2H419.5z"/>
	<path fill="#555555" d="M431.3,321c0-0.2,0.1-0.3,0.4-0.4s0.5-0.2,0.6-0.2c0.4,0,0.7,0.1,1.2,0.3s0.7,0.5,0.7,0.9s-0.1,0.7-0.2,0.8
		s-0.4,0.2-0.8,0.2c-0.4,0-0.8-0.1-1.3-0.4S431.3,321.5,431.3,321z M433.3,346.7c-0.2-2.3-0.4-4.3-0.6-6s-0.3-3.1-0.4-4.2
		s-0.2-2-0.3-2.7s-0.1-1.2-0.2-1.5s-0.1-0.6-0.1-0.7s0-0.2,0-0.2v-0.1c0-0.3,0.1-0.5,0.3-0.7s0.5-0.3,0.7-0.3c0.4,0,0.7,0.1,1.1,0.2
		s0.7,0.4,0.8,0.7c0.2,1.1,0.4,2.3,0.4,3.5s0.2,2.3,0.2,3.5s0.1,2.3,0.2,3.5s0.3,2.3,0.6,3.5c0,0,0,0.1,0.1,0.3s0.1,0.3,0.1,0.5
		s0.1,0.3,0.1,0.5s0,0.2,0,0.3v0.1c0,0,0,0,0,0.1c0,0.3-0.1,0.6-0.4,0.8s-0.5,0.4-0.8,0.4c-0.1,0-0.2-0.1-0.5-0.1s-0.5-0.1-0.5-0.2
		c-0.1,0-0.2-0.1-0.3-0.2s-0.2-0.2-0.3-0.3s-0.2-0.2-0.3-0.3S433.2,346.8,433.3,346.7z"/>
	<path fill="#555555" d="M437.8,342.6l1.3-9c0-0.3,0.2-0.5,0.4-0.7s0.5-0.2,0.8-0.2c0.5,0,0.9,0.1,1.2,0.4s0.6,0.7,0.8,1.1h0
		c0.3,0,0.5-0.1,0.8-0.2s0.5-0.2,0.8-0.2c0.8,0,1.4,0.2,1.9,0.7s1,1,1.3,1.7s0.6,1.4,0.7,2.2s0.2,1.5,0.2,2c0,0.7-0.2,1.5-0.5,2.4
		s-0.8,1.7-1.4,2.5s-1.3,1.4-2,1.9s-1.5,0.8-2.3,0.8c-0.7,0-1.3-0.2-1.8-0.5s-0.9-0.7-1.2-1.2s-0.5-1.1-0.7-1.7s-0.2-1.3-0.2-1.9
		V342.6z M440.8,342.8c0,0.2,0.1,0.5,0.1,0.8s0.1,0.6,0.2,0.8s0.2,0.4,0.4,0.6s0.4,0.1,0.8,0c0.3-0.3,0.6-0.6,1-0.9s0.7-0.7,1-1.1
		s0.6-0.8,0.8-1.3s0.3-0.9,0.3-1.4c0.1-0.8,0-1.5-0.2-2.2s-0.5-1.1-0.9-1.4s-0.8-0.3-1.3-0.1s-1,0.8-1.5,1.8
		c-0.3,0.6-0.5,1.3-0.6,2.1s-0.2,1.6-0.2,2.2V342.8z"/>
	<path fill="#555555" d="M459.6,346.8c-0.3-0.5-0.6-1.1-0.8-2s-0.4-1.7-0.6-2.6s-0.4-1.8-0.5-2.7s-0.3-1.6-0.5-2.1s-0.4-0.8-0.6-0.9
		s-0.5,0.2-0.7,0.9l-3.1,9.4c-0.1,0.3-0.3,0.6-0.4,0.7s-0.4,0.2-0.8,0.2c-0.2,0-0.4,0-0.6-0.1s-0.4-0.1-0.6-0.3s-0.3-0.3-0.5-0.4
		s-0.2-0.4-0.2-0.6c0.1-0.3,0.1-0.8,0.2-1.5s0.1-1.6,0.1-2.6s0-2,0.1-3.1s0-2.1,0-3.1s0-1.8-0.1-2.5s0-1.1-0.1-1.4
		c0-0.2,0-0.5,0-0.7s0-0.5,0.1-0.7s0.2-0.4,0.3-0.5s0.4-0.2,0.7-0.2c0.4,0,0.9,0.2,1.2,0.6s0.6,0.8,0.6,1.2c0,0.6,0,1.2-0.1,1.8
		s-0.1,1.2-0.1,1.8c0,0.4,0,0.7,0,0.9s0,0.6,0.1,0.9c0.1-0.2,0.2-0.5,0.4-1s0.3-1,0.5-1.5s0.4-1,0.5-1.5s0.3-0.8,0.4-1
		c0.2-0.5,0.4-0.9,0.7-1.4s0.8-0.7,1.3-0.7c0.4,0,0.7,0.1,1,0.3s0.5,0.5,0.8,0.8s0.4,0.7,0.5,1.1s0.2,0.7,0.3,0.9l1.9,8.8l1.5,4
		c0,0,0,0.1,0,0.2s0,0.2,0,0.2c0,0.3-0.1,0.6-0.2,0.8s-0.4,0.4-0.7,0.4c-0.4,0-0.8-0.1-1.2-0.3S459.8,347.2,459.6,346.8z"/>
	<path fill="#555555" d="M469.4,346.7c0-0.1,0-0.2,0-0.3s0.1-0.2,0.2-0.3c0.3-0.4,0.6-0.7,0.9-1.1s0.7-0.8,1-1.2s0.6-0.8,0.9-1.2
		s0.5-0.8,0.7-1.3v-0.2l-4.6,0.9h-0.5c-0.3,0-0.7,0-1.2-0.1s-0.9-0.1-1.4-0.3s-0.8-0.4-1.2-0.7s-0.5-0.7-0.5-1.1
		c0-0.5,0.3-1.1,0.8-1.8s1.2-1.3,1.9-1.9s1.5-1.2,2.2-1.8s1.3-1,1.8-1.3c0.5-0.3,1.1-0.5,1.8-0.7s1.3-0.3,1.9-0.3
		c0.5,0,0.9,0.1,1.2,0.3s0.5,0.5,0.5,1c0,0.2,0,0.4-0.1,0.6s-0.2,0.3-0.4,0.4c-0.8-0.1-1.5,0-2.1,0.2s-1.3,0.4-1.9,0.8
		s-1.1,0.8-1.7,1.2s-1,1-1.5,1.5c-0.1,0.2-0.3,0.4-0.5,0.7s-0.3,0.5-0.3,0.5v0c0.6,0,1.2-0.1,1.8-0.2s1.2-0.2,1.8-0.4
		s1.2-0.3,1.8-0.4s1.2-0.2,1.8-0.2c0.2,0,0.5,0,0.8,0.1s0.5,0.1,0.8,0.2s0.4,0.3,0.6,0.5s0.2,0.5,0.2,0.8c0,0.4-0.1,0.9-0.3,1.3
		s-0.6,0.9-1,1.5s-1,1.3-1.7,2.1s-1.5,1.9-2.4,3.2c0,0.1-0.2,0.1-0.3,0.1s-0.3,0-0.4,0c-0.3,0-0.7-0.1-1-0.4S469.4,347,469.4,346.7z
		"/>
</g>
<g>
	<path fill="#555555" d="M567.6,339h-0.1c0,1,0,1.9,0.1,2.8s0.1,1.9,0.1,2.9c0,0.3,0,0.6,0,0.8s-0.1,0.5-0.1,0.7s-0.2,0.4-0.4,0.5
		s-0.4,0.2-0.8,0.2c-0.7,0-1.1-0.3-1.4-1c-0.1-1.1-0.2-2.2-0.2-3.3s-0.1-2.2-0.2-3.3c0-0.3-0.2-0.6-0.4-0.9s-0.3-0.6-0.3-0.9
		c0-0.2,0.1-0.4,0.2-0.5s0.2-0.3,0.2-0.6c0-1.8-0.1-3.6-0.2-5.4s-0.2-3.6-0.2-5.4V325c0.2-0.2,0.3-0.4,0.5-0.4s0.4-0.1,0.7-0.1
		c0.7,0,1.1,0.2,1.3,0.6s0.3,0.9,0.3,1.5l0.3,9.4c0,0.1,0.1,0.2,0.1,0.3s0.1,0.2,0.3,0.2c0.2,0,0.5,0,0.9-0.1s0.9-0.2,1.4-0.3
		s0.9-0.2,1.3-0.4s0.6-0.3,0.7-0.4c0-0.2,0-0.5,0-0.9s0-0.7,0-0.9c0-1,0-2,0-2.9s-0.1-1.9-0.1-2.9c0-0.2,0-0.6-0.1-1.2
		s-0.1-1.3-0.2-2s-0.1-1.4-0.2-2s-0.1-1-0.1-1.2c0,0,0-0.1,0-0.2s0-0.2,0-0.3c0-0.3,0.1-0.5,0.3-0.7s0.5-0.2,0.7-0.2
		c0.6,0,1,0.2,1.2,0.5s0.5,0.8,0.6,1.3c0,0.3,0.1,0.7,0.1,1.3s0.1,1.3,0.2,2s0.1,1.4,0.2,2s0.1,1,0.1,1.3v0.6c0,0.1,0,0.3,0.1,0.7
		s0.1,0.6,0.1,0.7v14.4c0.1,0.4,0.2,0.7,0.2,1s0.1,0.6,0.1,0.9c0,0.3-0.1,0.6-0.2,0.9s-0.4,0.5-0.8,0.5c-0.3,0-0.6-0.1-0.9-0.2
		s-0.5-0.4-0.7-0.6s-0.4-0.5-0.5-0.9s-0.2-0.6-0.2-1v-7.2L567.6,339z"/>
	<path fill="#555555" d="M584.9,338.2c-0.2,0.4-0.5,0.8-0.7,1.4s-0.6,1.1-0.9,1.7s-0.6,1.2-1,1.8s-0.7,1.1-1.1,1.6s-0.8,0.9-1.2,1.2
		s-0.9,0.5-1.3,0.6c-0.2,0-0.4,0-0.6-0.1s-0.5-0.1-0.7-0.2s-0.4-0.2-0.6-0.4s-0.2-0.4-0.2-0.6c0-2.4,0.2-4.6,0.5-6.5
		s0.8-3.7,1.5-5.2s1.6-2.7,2.7-3.7s2.4-1.7,4-2.1c0,0,0.1,0,0.3,0s0.2,0,0.3,0c0.7,0,1.2,0.3,1.5,1s0.6,1.7,0.7,3.2s0.3,3.3,0.3,5.6
		s0.2,5,0.4,8.1c0.1,0.3,0.1,0.5,0.1,0.7s0,0.4,0,0.7c0,0.4-0.1,0.6-0.3,0.8s-0.5,0.3-0.8,0.3c-0.7,0-1.2-0.2-1.4-0.6
		s-0.5-0.9-0.6-1.5c0,0,0-0.2-0.1-0.6s-0.1-0.8-0.1-1.2s-0.1-0.9-0.2-1.4s-0.1-0.9-0.1-1.2v-0.1c0-0.2-0.1-0.5-0.1-0.9s0-0.7-0.1-1
		c0-0.4-0.1-0.8-0.1-1.2L584.9,338.2z M584.1,331.2c-0.6,0.5-1.3,1.1-1.9,1.9s-1,1.6-1.3,2.3c-0.1,0.4-0.2,0.8-0.4,1.4
		s-0.3,1.2-0.4,1.8s-0.2,1.1-0.3,1.7s-0.1,0.8-0.1,1c0,0,0.1,0,0.1-0.1s0.1-0.1,0.1-0.1c1.5-1.4,2.5-2.9,3.1-4.6
		S584,333.2,584.1,331.2z"/>
	<path fill="#555555" d="M592.3,346.5c0-0.8-0.1-2-0.2-3.4s-0.2-2.9-0.4-4.4s-0.3-3-0.4-4.3s-0.3-2.4-0.4-3.2c0-0.3,0.1-0.5,0.4-0.6
		s0.6-0.1,0.8-0.1c0.3,0,0.7,0.1,1,0.3s0.6,0.4,0.7,0.8c0,0.1,0,0.3,0,0.5s0,0.5,0.1,0.8s0,0.5,0.1,0.8s0,0.4,0,0.5
		c0,0.1,0,0.2,0,0.3s0,0.1,0,0.2s0,0.1,0,0.2s0.1,0.2,0.1,0.4c0,0,0.1-0.1,0.2-0.2s0.1-0.1,0.1-0.1c0.4-0.5,0.7-1,1.1-1.4
		s0.7-0.8,1.1-1.2s0.8-0.8,1.2-1.2s1-0.9,1.6-1.4c0.1-0.1,0.2-0.2,0.3-0.3s0.1-0.1,0.2-0.1s0.1-0.1,0.2-0.1s0.2,0,0.3,0
		c0.4,0,0.8,0.1,1.2,0.4s0.6,0.6,0.6,1.1c0,0.2-0.1,0.3-0.2,0.5s-0.3,0.3-0.4,0.5s-0.3,0.3-0.5,0.4s-0.3,0.2-0.5,0.2
		c-0.6,0.5-1.3,1.2-1.9,1.8s-1.3,1.4-1.9,2.2s-1.1,1.6-1.4,2.5s-0.6,1.7-0.6,2.6c0,0.8,0.1,1.6,0.2,2.4s0.2,1.6,0.2,2.4v1.2
		c-0.2,0.2-0.4,0.3-0.5,0.5s-0.3,0.2-0.6,0.2c-0.4,0-0.8-0.2-1.2-0.5S592.4,346.8,592.3,346.5z"/>
	<path fill="#555555" d="M610.7,342.4c0,0-0.2,0.3-0.5,0.8c-0.3,0.5-0.7,1.1-1.2,1.7s-1.1,1.2-1.7,1.7s-1.4,0.8-2.1,0.8
		c-1,0-1.9-0.3-2.6-0.9c-0.7-0.6-1-1.5-1-2.6c0-0.6,0-1.2,0.2-2c0.2-0.8,0.5-1.6,0.9-2.4s0.9-1.6,1.4-2.4c0.5-0.8,1.1-1.5,1.8-2
		s1.3-1,2-1.3c0.7-0.3,1.4-0.3,2.1-0.1V333c0-0.6,0-1.2-0.1-1.9s-0.1-1.4-0.1-2.2s-0.1-1.8-0.1-2.9s-0.1-2.4-0.1-3.9
		c0.1-0.3,0.2-0.4,0.4-0.5s0.4-0.1,0.6-0.1c0.5,0,1,0.2,1.3,0.5s0.5,0.8,0.6,1.3c0,0.8-0.1,1.6-0.1,2.4c0,0.8,0.1,1.8,0.1,2.8
		s0.2,2.2,0.3,3.6c0.2,1.3,0.3,2.9,0.6,4.7c0.2,1.8,0.5,3.9,0.8,6.3c0.3,2.4,0.7,5.1,1.2,8.2v1.2c0,0.1-0.1,0.2-0.2,0.3
		s-0.2,0.1-0.4,0.2c-0.2,0-0.3,0.1-0.5,0.1c-0.2,0-0.3,0-0.3,0c-0.4,0-0.7-0.1-1.1-0.3c-0.4-0.2-0.6-0.5-0.7-0.8l-1.3-9.4
		c0-0.1,0-0.1-0.1-0.1C610.8,342.5,610.7,342.4,610.7,342.4z M604.5,343.2c0,0.1,0,0.2,0,0.4c0,0.2,0,0.4,0,0.5c0,0.2,0,0.4,0.1,0.5
		c0,0.1,0.1,0.2,0.3,0.2c0.6,0,1.2-0.2,1.8-0.7c0.6-0.5,1.2-1,1.7-1.7c0.5-0.7,0.9-1.4,1.3-2.2c0.3-0.8,0.5-1.5,0.6-2.1
		s-0.1-1.1-0.5-1.5c-0.3-0.3-0.9-0.4-1.7-0.2c-1,0.9-1.8,1.9-2.5,3.1S604.5,341.8,604.5,343.2z"/>
	<path fill="#555555" d="M620.5,346.3c-0.1-0.5-0.6-1.9-1.2-4.1c-0.7-2.2-1.6-5.4-2.8-9.6c0,0,0-0.1-0.1-0.3s-0.1-0.3-0.1-0.3
		c0-0.3,0.3-0.5,0.6-0.5c0.4-0.1,0.7-0.1,0.8-0.1c0.5,0.1,0.9,0.2,1.1,0.5s0.5,0.6,0.6,1.1l2,6.7l0.1,0.2c0.3-0.5,0.4-1,0.5-1.6
		c0-0.6,0.1-1.2,0.2-1.8c0.1-0.6,0.2-1.1,0.5-1.6c0.2-0.5,0.7-0.8,1.3-1c0.1,0,0.3,0,0.5,0.1c0.2,0.1,0.3,0.1,0.5,0.2
		c0.2,0.1,0.3,0.2,0.4,0.4c0.1,0.1,0.2,0.3,0.2,0.4l1.9,6.1l0.4,0.5c0.1-0.4,0.2-1.1,0.4-2c0.2-0.9,0.3-1.9,0.5-2.9
		c0.2-1,0.3-2,0.4-2.8c0.1-0.9,0.2-1.5,0.2-1.8c0,0,0-0.1,0-0.2c0-0.1,0-0.2,0-0.2c0.2-0.2,0.4-0.4,0.8-0.5c0.3-0.1,0.6-0.1,0.9-0.1
		c0.1,0,0.2,0.1,0.4,0.2c0.2,0.1,0.3,0.2,0.4,0.3s0.3,0.3,0.3,0.4c0.1,0.1,0.1,0.3,0.1,0.4l-2,14.4c0,0.1-0.1,0.3-0.2,0.3
		s-0.3,0.2-0.5,0.2s-0.4,0.1-0.5,0.1s-0.3,0-0.4,0c-0.6-0.2-1-0.6-1.5-1c-0.4-0.5-0.8-1-1.1-1.6s-0.6-1.2-0.8-1.8s-0.5-1.2-0.8-1.7
		l-0.1,0c-0.2,0.2-0.3,0.5-0.4,1.1s-0.2,1.2-0.3,1.8s-0.1,1.2-0.2,1.7c0,0.5-0.1,0.8-0.1,0.8c0,0.3-0.3,0.6-0.7,0.8s-0.7,0.3-1,0.2
		c-0.3,0-0.6-0.2-0.9-0.5S620.6,346.6,620.5,346.3z"/>
	<path fill="#555555" d="M642.3,338.2c-0.2,0.4-0.5,0.8-0.7,1.4c-0.3,0.5-0.6,1.1-0.9,1.7c-0.3,0.6-0.6,1.2-1,1.8
		c-0.4,0.6-0.7,1.1-1.1,1.6s-0.8,0.9-1.2,1.2s-0.9,0.5-1.3,0.6c-0.2,0-0.4,0-0.6-0.1c-0.2,0-0.5-0.1-0.7-0.2
		c-0.2-0.1-0.4-0.2-0.6-0.4c-0.2-0.2-0.2-0.4-0.2-0.6c0-2.4,0.2-4.6,0.5-6.5c0.3-2,0.8-3.7,1.5-5.2s1.6-2.7,2.7-3.7
		c1.1-1,2.4-1.7,4-2.1c0,0,0.1,0,0.3,0c0.1,0,0.2,0,0.3,0c0.7,0,1.2,0.3,1.5,1s0.5,1.7,0.7,3.2c0.2,1.4,0.3,3.3,0.3,5.6
		c0.1,2.3,0.2,5,0.4,8.1c0.1,0.3,0.1,0.5,0.1,0.7c0,0.2,0,0.4,0,0.7c0,0.4-0.1,0.6-0.3,0.8s-0.5,0.3-0.8,0.3c-0.7,0-1.2-0.2-1.4-0.6
		s-0.5-0.9-0.6-1.5c0,0,0-0.2-0.1-0.6s-0.1-0.8-0.1-1.2c-0.1-0.5-0.1-0.9-0.2-1.4c0-0.5-0.1-0.9-0.1-1.2v-0.1c0-0.2-0.1-0.5-0.1-0.9
		c0-0.4,0-0.7-0.1-1c0-0.4-0.1-0.8-0.1-1.2L642.3,338.2z M641.6,331.2c-0.6,0.5-1.3,1.1-1.9,1.9c-0.6,0.8-1,1.6-1.3,2.3
		c-0.1,0.4-0.2,0.8-0.4,1.4s-0.3,1.2-0.4,1.8s-0.2,1.1-0.3,1.7s-0.1,0.8-0.1,1c0,0,0.1,0,0.1-0.1s0.1-0.1,0.1-0.1
		c1.5-1.4,2.5-2.9,3.1-4.6S641.5,333.2,641.6,331.2z"/>
	<path fill="#555555" d="M649.8,346.5c0-0.8-0.1-2-0.2-3.4s-0.2-2.9-0.4-4.4c-0.1-1.5-0.3-3-0.4-4.3s-0.3-2.4-0.4-3.2
		c0-0.3,0.1-0.5,0.4-0.6s0.5-0.1,0.8-0.1c0.3,0,0.7,0.1,1,0.3c0.4,0.2,0.6,0.4,0.7,0.8c0,0.1,0,0.3,0,0.5c0,0.2,0,0.5,0.1,0.8
		c0,0.3,0,0.5,0.1,0.8c0,0.2,0,0.4,0,0.5c0,0.1,0,0.2,0,0.3s0,0.1,0,0.2s0,0.1,0,0.2c0,0.1,0.1,0.2,0.1,0.4c0,0,0.1-0.1,0.2-0.2
		c0.1-0.1,0.1-0.1,0.1-0.1c0.4-0.5,0.7-1,1.1-1.4s0.7-0.8,1.1-1.2c0.4-0.4,0.8-0.8,1.2-1.2s1-0.9,1.6-1.4c0.1-0.1,0.2-0.2,0.3-0.3
		s0.1-0.1,0.2-0.1c0.1,0,0.1-0.1,0.2-0.1s0.2,0,0.3,0c0.4,0,0.8,0.1,1.2,0.4c0.4,0.3,0.6,0.6,0.6,1.1c0,0.2-0.1,0.3-0.2,0.5
		c-0.1,0.2-0.3,0.3-0.4,0.5c-0.2,0.2-0.3,0.3-0.5,0.4s-0.3,0.2-0.5,0.2c-0.6,0.5-1.3,1.2-1.9,1.8c-0.7,0.7-1.3,1.4-1.9,2.2
		c-0.6,0.8-1.1,1.6-1.4,2.5c-0.4,0.9-0.6,1.7-0.6,2.6c0,0.8,0.1,1.6,0.2,2.4c0.1,0.8,0.2,1.6,0.2,2.4v1.2c-0.2,0.2-0.4,0.3-0.5,0.5
		s-0.3,0.2-0.6,0.2c-0.4,0-0.8-0.2-1.2-0.5C650.1,347.2,649.9,346.8,649.8,346.5z"/>
	<path fill="#555555" d="M675.4,338c0,0.4-0.1,0.8-0.2,1c-0.1,0.2-0.2,0.4-0.3,0.6s-0.3,0.4-0.6,0.6c-0.3,0.2-0.6,0.5-1.1,0.8
		c-0.4,0.4-1,0.8-1.7,1.4c-0.7,0.6-1.5,1.3-2.4,2.3c-0.4,0.4-0.8,0.7-1.2,1.1c-0.4,0.4-0.8,0.7-1.2,1c-0.4,0.3-0.9,0.5-1.4,0.7
		c-0.5,0.2-1,0.3-1.5,0.3c-1,0-1.7-0.3-2.2-1c-0.5-0.7-0.7-1.5-0.7-2.4c0-0.6,0-1.1,0.1-1.5s0.1-0.9,0.3-1.5
		c-0.3-0.2-0.5-0.4-0.7-0.6c-0.2-0.2-0.3-0.4-0.3-0.7c0-0.3,0.1-0.5,0.2-0.6c0.1-0.1,0.3-0.2,0.5-0.2s0.3-0.1,0.5-0.1
		c0.2,0,0.3-0.1,0.4-0.3c0-0.1,0.1-0.4,0.3-0.8c0.1-0.4,0.3-0.8,0.4-1.2s0.3-0.8,0.4-1.2c0.1-0.4,0.2-0.6,0.3-0.8
		c0.2-0.4,0.3-0.8,0.5-1.2c0.2-0.4,0.4-0.8,0.7-1.1c0.3-0.3,0.6-0.6,0.9-0.8c0.4-0.2,0.8-0.3,1.3-0.3c0.3,0,0.6,0.1,1,0.4
		c0.4,0.3,0.8,0.6,1.2,0.9c0.4,0.4,0.7,0.7,0.9,1.1c0.3,0.4,0.4,0.7,0.4,1c0,0.4-0.1,0.7-0.2,1c-0.2,0.3-0.4,0.6-0.6,0.8
		s-0.5,0.5-0.8,0.7s-0.5,0.4-0.8,0.6c0,0-0.1,0-0.1,0.1s-0.1,0.1-0.2,0.1c0,0-0.1,0.1-0.2,0.2c-0.1,0.1-0.2,0.2-0.3,0.3
		c-0.1,0.1-0.2,0.2-0.3,0.3c-0.1,0.1-0.1,0.2-0.2,0.2c-0.1,0.1-0.2,0.2-0.4,0.3c-0.2,0.2-0.4,0.3-0.7,0.5c-0.2,0.2-0.5,0.3-0.7,0.5
		c-0.2,0.2-0.3,0.3-0.4,0.3l-0.1,0.3c0,0.1-0.1,0.3-0.1,0.6s-0.1,0.7-0.1,1.1c0,0.4-0.1,0.8-0.1,1.2s-0.1,0.7-0.1,1c0,0,0,0,0,0.1
		c0,0,0.1,0.1,0.1,0.1c0.2,0,0.4-0.1,0.5-0.2c0.2-0.2,0.3-0.3,0.5-0.4l5.6-5.2l1.4-2.2c0.1-0.2,0.3-0.3,0.7-0.5
		c0.3-0.2,0.7-0.3,1-0.3s0.7,0.1,0.9,0.3C675.3,336.9,675.4,337.3,675.4,338z M667.7,335.3c0.1-0.1,0.2-0.2,0.1-0.4
		c0-0.2-0.1-0.4-0.2-0.5s-0.2-0.2-0.4-0.3c-0.2,0-0.3,0.1-0.5,0.3c-0.1,0.1-0.2,0.3-0.4,0.6s-0.4,0.6-0.5,0.9s-0.3,0.5-0.4,0.8
		c-0.1,0.2-0.1,0.3-0.1,0.2L667.7,335.3z"/>
</g>
<g>
	<path fill="#FC5A38" d="M53.2,195c0,4,0,8,0,12c0,2,1.7,3.8,3.8,3.8c47.8,0,95.7,0,143.5,0c26.5,0,53,0,79.5,0c2,0,3.8-1.7,3.8-3.8
		c0-4,0-8,0-12c0-4.8-7.5-4.8-7.5,0c0,4,0,8,0,12c1.2-1.2,2.5-2.5,3.8-3.8c-47.8,0-95.7,0-143.5,0c-26.5,0-53,0-79.5,0
		c1.2,1.2,2.5,2.5,3.8,3.8c0-4,0-8,0-12C60.8,190.2,53.2,190.2,53.2,195L53.2,195z"/>
</g>
<g>
	<path fill="#F6DD3B" d="M335.2,197c0,4,0,8,0,12c0,2,1.7,3.8,3.8,3.8c49.6,0,99.3,0,148.9,0c5,0,10,0,15.1,0c2,0,3.8-1.7,3.8-3.8
		c0-4,0-8,0-12c0-4.8-7.5-4.8-7.5,0c0,4,0,8,0,12c1.2-1.2,2.5-2.5,3.8-3.8c-49.6,0-99.3,0-148.9,0c-5,0-10,0-15.1,0
		c1.2,1.2,2.5,2.5,3.8,3.8c0-4,0-8,0-12C342.8,192.2,335.2,192.2,335.2,197L335.2,197z"/>
</g>
<g>
	<path fill="#47BC8A" d="M558.2,197c0,4,0,8,0,12c0,2,1.7,3.8,3.8,3.8c49.2,0,98.5,0,147.7,0c3.8,0,7.5,0,11.3,0
		c2,0,3.8-1.7,3.8-3.8c0-4,0-8,0-12c0-4.8-7.5-4.8-7.5,0c0,4,0,8,0,12c1.2-1.2,2.5-2.5,3.8-3.8c-49.2,0-98.5,0-147.7,0
		c-3.8,0-7.5,0-11.3,0c1.2,1.2,2.5,2.5,3.8,3.8c0-4,0-8,0-12C565.8,192.2,558.2,192.2,558.2,197L558.2,197z"/>
</g>
<g>
	<path fill="#FC5A38" d="M194.9,312.2c26.5-15.7,33-48.9,27.9-77.1c-0.9-4.8-8.1-2.7-7.2,2c4.5,24.9-1.1,54.8-24.4,68.7
		C187,308.2,190.7,314.7,194.9,312.2L194.9,312.2z"/>
</g>
<g>
	<path fill="#FC5A38" d="M217.8,229.4c5.8,6.9,11.6,13.8,17.4,20.7c2.7,3.2,7.3-1.4,4.6-4.6c-5.8-6.9-11.6-13.8-17.4-20.7
		C219.7,221.6,215.1,226.3,217.8,229.4L217.8,229.4z"/>
</g>
<g>
	<path fill="#FC5A38" d="M216.9,224.8c-6.9,5.8-13.8,11.6-20.7,17.4c-3.7,3.1,1.6,8.4,5.3,5.3c6.9-5.8,13.8-11.6,20.7-17.4
		C225.9,227,220.6,221.7,216.9,224.8L216.9,224.8z"/>
</g>
<g>
	<path fill="#F6DD3B" d="M393.8,240.3c-0.6,0.5,0.6-0.4-0.4,0.3c-0.6,0.4-1.1,0.8-1.7,1.3c-1.8,1.3-3.5,2.6-5.2,4
		c-4.8,3.8-9.2,8.1-13.1,12.8c-10.5,12.6-16.4,28.2-15.2,44.8c0.4,4.8,7.9,4.8,7.5,0c-1.2-15.8,4.7-30.1,15-41.8
		c5.5-6.3,12.3-10.5,18.4-16C402.7,242.4,397.4,237.1,393.8,240.3L393.8,240.3z"/>
</g>
<g>
	<path fill="#F6DD3B" d="M396.3,237.5c1.5,8.9,3,17.8,4.6,26.7c0.8,4.8,8,2.7,7.2-2c-1.5-8.9-3-17.8-4.6-26.7
		C402.7,230.7,395.5,232.7,396.3,237.5L396.3,237.5z"/>
</g>
<g>
	<path fill="#F6DD3B" d="M398.5,233.6c-8.9,1.5-17.8,3-26.7,4.6c-3.8,0.7-2.2,6.4,1.6,5.8c8.9-1.5,17.8-3,26.7-4.6
		C403.9,238.7,402.3,232.9,398.5,233.6L398.5,233.6z"/>
</g>
<g>
	<path fill="#47BC8A" d="M703.9,340c5.1-10.7,8.8-21.5,10.1-33.4c2.5-22.2-6.1-43.3-21.8-58.9c-3.4-3.4-8.7,1.9-5.3,5.3
		c14.9,14.9,21.8,33.8,19.5,54.7c-1.1,10-4.7,19.4-9,28.5C695.4,340.6,701.8,344.4,703.9,340L703.9,340z"/>
</g>
<g>
	<path fill="#47BC8A" d="M683.2,246c8.8,2.2,17.5,4.3,26.3,6.5c4.1,1,5.8-5.3,1.7-6.3c-8.8-2.2-17.5-4.3-26.3-6.5
		C680.9,238.7,679.2,245,683.2,246L683.2,246z"/>
</g>
<g>
	<path fill="#47BC8A" d="M680.2,242.4c-2.2,8.8-4.3,17.5-6.5,26.3c-1.2,4.7,6.1,6.7,7.2,2c2.2-8.8,4.3-17.5,6.5-26.3
		C688.6,239.7,681.4,237.7,680.2,242.4L680.2,242.4z"/>
</g>
<g>
	<path fill="#555555" d="M76.4,168.5c0-0.4,0.1-0.8,0.3-1.1c0.2-0.4,0.6-0.5,1-0.5c0.3,0,0.5,0.1,0.7,0.3s0.3,0.4,0.5,0.7
		c0.1,0.3,0.3,0.5,0.4,0.8c0.1,0.3,0.3,0.5,0.4,0.6c0.2,0.2,0.6,0.6,1.1,1.2c0.5,0.6,1.1,1.2,1.6,1.9c0.5,0.7,1,1.3,1.5,1.8
		c0.4,0.6,0.7,0.9,0.8,1c0.1,0.1,0.1,0.2,0.3,0.3c0.1,0.1,0.2,0.2,0.3,0.3l0.2-0.2c0,0,0-0.2,0-0.4c0-0.3,0-0.6,0-0.9
		c0-0.3,0-0.7,0-1c0-0.3,0-0.6,0-0.8c0-2.6,0-5.1-0.1-7.7c-0.1-2.5-0.1-5.1-0.1-7.7v-6.3c0.1-0.4,0.3-0.7,0.6-0.9
		c0.3-0.2,0.6-0.3,1-0.3c0.4,0,0.8,0.1,1.2,0.3s0.7,0.5,0.8,0.9c-0.1,3.7,0,7.4,0.2,11.1c0.2,3.6,0.2,7.3,0.2,11c0,0.4,0,1.1,0,1.9
		c0,0.8-0.1,1.6-0.2,2.4s-0.4,1.5-0.8,2.1c-0.4,0.6-0.9,0.9-1.6,0.9c-0.1,0-0.1,0-0.2,0c-0.1,0-0.2,0-0.2,0
		c-0.2-0.1-0.4-0.2-0.8-0.4c-0.4-0.2-0.6-0.4-0.7-0.5l-7.4-8.3c-0.4-0.4-0.6-0.7-0.7-1.1S76.4,169,76.4,168.5z"/>
	<path fill="#555555" d="M91.7,173.1l1.7-11.5c0.1-0.4,0.2-0.7,0.5-0.9c0.3-0.2,0.6-0.3,1-0.3c0.7,0,1.2,0.2,1.6,0.6
		c0.4,0.4,0.7,0.8,1,1.4h0c0.4,0,0.7-0.1,1-0.2c0.3-0.1,0.6-0.2,1.1-0.2c1,0,1.8,0.3,2.4,0.9c0.7,0.6,1.2,1.3,1.6,2.2
		c0.4,0.9,0.7,1.8,0.9,2.8c0.2,1,0.3,1.9,0.3,2.6c0,0.9-0.2,1.9-0.7,3c-0.5,1.1-1.1,2.2-1.8,3.1s-1.6,1.8-2.6,2.5
		c-1,0.7-1.9,1-2.9,1c-0.9,0-1.7-0.2-2.3-0.6c-0.6-0.4-1.2-1-1.6-1.6c-0.4-0.6-0.7-1.4-0.9-2.2s-0.3-1.6-0.3-2.4V173.1z M95.5,173.4
		c0.1,0.3,0.1,0.6,0.2,1c0.1,0.4,0.1,0.7,0.3,1.1c0.1,0.3,0.3,0.6,0.5,0.7c0.2,0.2,0.5,0.2,1,0c0.4-0.4,0.8-0.8,1.3-1.2
		s0.9-0.9,1.3-1.4c0.4-0.5,0.7-1,1-1.6c0.3-0.6,0.4-1.2,0.4-1.8c0.1-1,0-2-0.2-2.8s-0.7-1.5-1.1-1.8c-0.5-0.4-1.1-0.4-1.7-0.1
		c-0.6,0.3-1.3,1.1-1.9,2.3c-0.4,0.8-0.6,1.7-0.7,2.7s-0.2,2-0.2,2.9V173.4z"/>
	<path fill="#555555" d="M107.4,158c0.1-1.8,0-3.6-0.2-5.4c-0.2-1.8-0.3-3.6-0.3-5.3c0-0.6,0.2-0.9,0.5-1.1c0.3-0.1,0.7-0.2,1.1-0.2
		c0.6,0,1.1,0.2,1.5,0.5c0.4,0.3,0.6,0.8,0.7,1.4c0.3,3.3,0.4,6.5,0.5,9.7s0.3,6.4,0.7,9.7c0.9-1.7,1.8-3.1,2.8-4.2
		c1-1.1,1.9-1.8,2.8-2.2c0.9-0.4,1.7-0.3,2.4,0.2c0.7,0.5,1.3,1.5,1.8,2.9c0.4,1.5,0.7,3.4,0.8,5.9c0.1,2.5-0.1,5.6-0.4,9.3
		c-0.2,0-0.5,0-0.8,0c-0.3,0-0.6,0-0.9,0c-0.3,0-0.5-0.1-0.7-0.2c-0.2-0.1-0.3-0.3-0.4-0.5c0.2-2.2,0.4-4.1,0.4-5.7
		c0-1.5,0-2.8-0.1-3.8c-0.1-1-0.3-1.7-0.5-2.3c-0.2-0.5-0.4-0.9-0.7-1.1c-0.2-0.2-0.5-0.4-0.7-0.4c-0.2,0-0.4,0-0.5,0
		c-0.7,0.2-1.3,0.8-1.9,1.8c-0.6,0.9-1.1,2-1.5,3.2c-0.4,1.2-0.7,2.5-0.9,3.9c-0.2,1.4-0.2,2.6-0.2,3.7c0,0.2-0.1,0.5-0.1,0.7
		c0,0.2-0.1,0.5-0.2,0.7c-0.1,0.2-0.2,0.4-0.4,0.5c-0.2,0.1-0.4,0.2-0.7,0.2c-0.6,0-1.1-0.1-1.5-0.3c-0.4-0.2-0.7-0.5-0.9-0.9
		c-0.2-0.4-0.3-0.8-0.4-1.3c0-0.5,0-1,0-1.5L107.4,158z"/>
	<path fill="#555555" d="M137,178.5c-0.4-0.6-0.8-1.4-1.1-2.5c-0.3-1.1-0.6-2.2-0.8-3.4c-0.3-1.2-0.5-2.3-0.7-3.5
		c-0.2-1.1-0.4-2-0.7-2.7s-0.5-1.1-0.7-1.1s-0.6,0.3-0.9,1.2l-3.9,12c-0.2,0.4-0.3,0.7-0.5,0.9c-0.2,0.2-0.6,0.2-1,0.2
		c-0.2,0-0.5,0-0.8-0.1c-0.3-0.1-0.5-0.2-0.8-0.3c-0.2-0.1-0.4-0.3-0.6-0.5c-0.2-0.2-0.3-0.4-0.3-0.7c0.1-0.4,0.2-1,0.2-2
		c0.1-1,0.1-2.1,0.2-3.3c0-1.3,0.1-2.6,0.1-4c0-1.4,0-2.7,0-3.9c0-1.2,0-2.3-0.1-3.1c0-0.9-0.1-1.5-0.1-1.7c0-0.3,0-0.6,0-0.9
		c0-0.3,0.1-0.6,0.1-0.9c0.1-0.3,0.2-0.5,0.4-0.7c0.2-0.2,0.5-0.2,0.9-0.2c0.6,0,1.1,0.2,1.6,0.7c0.5,0.5,0.7,1,0.7,1.5
		c0,0.8,0,1.5-0.1,2.3c-0.1,0.8-0.1,1.5-0.1,2.3c0,0.5,0,0.9,0,1.2c0,0.3,0.1,0.7,0.2,1.2c0.1-0.2,0.2-0.7,0.4-1.3
		c0.2-0.6,0.4-1.2,0.7-1.9c0.3-0.7,0.5-1.3,0.7-1.9c0.2-0.6,0.4-1,0.4-1.2c0.2-0.6,0.5-1.2,0.9-1.7c0.4-0.6,1-0.9,1.7-0.9
		c0.4,0,0.9,0.1,1.2,0.4c0.4,0.3,0.7,0.6,1,1.1c0.3,0.4,0.5,0.9,0.7,1.3c0.2,0.5,0.3,0.9,0.4,1.2l2.4,11.2l1.9,5.1c0,0,0,0.1,0,0.2
		s0,0.2,0,0.3c0,0.4-0.1,0.7-0.2,1.1c-0.2,0.3-0.5,0.5-0.9,0.5c-0.5,0-1-0.1-1.6-0.4C137.5,179.3,137.2,178.9,137,178.5z"/>
	<path fill="#555555" d="M155.6,178.5c-0.4-0.6-0.8-1.4-1.1-2.5c-0.3-1.1-0.6-2.2-0.8-3.4c-0.3-1.2-0.5-2.3-0.7-3.5
		c-0.2-1.1-0.4-2-0.7-2.7s-0.5-1.1-0.7-1.1s-0.6,0.3-0.9,1.2l-3.9,12c-0.2,0.4-0.3,0.7-0.5,0.9c-0.2,0.2-0.6,0.2-1,0.2
		c-0.2,0-0.5,0-0.8-0.1c-0.3-0.1-0.5-0.2-0.8-0.3c-0.2-0.1-0.4-0.3-0.6-0.5c-0.2-0.2-0.3-0.4-0.3-0.7c0.1-0.4,0.2-1,0.2-2
		c0.1-1,0.1-2.1,0.2-3.3c0-1.3,0.1-2.6,0.1-4c0-1.4,0-2.7,0-3.9c0-1.2,0-2.3-0.1-3.1c0-0.9-0.1-1.5-0.1-1.7c0-0.3,0-0.6,0-0.9
		c0-0.3,0.1-0.6,0.1-0.9c0.1-0.3,0.2-0.5,0.4-0.7c0.2-0.2,0.5-0.2,0.9-0.2c0.6,0,1.1,0.2,1.6,0.7c0.5,0.5,0.7,1,0.7,1.5
		c0,0.8,0,1.5-0.1,2.3c-0.1,0.8-0.1,1.5-0.1,2.3c0,0.5,0,0.9,0,1.2c0,0.3,0.1,0.7,0.2,1.2c0.1-0.2,0.2-0.7,0.4-1.3
		c0.2-0.6,0.4-1.2,0.7-1.9c0.3-0.7,0.5-1.3,0.7-1.9c0.2-0.6,0.4-1,0.4-1.2c0.2-0.6,0.5-1.2,0.9-1.7c0.4-0.6,1-0.9,1.7-0.9
		c0.4,0,0.9,0.1,1.2,0.4c0.4,0.3,0.7,0.6,1,1.1c0.3,0.4,0.5,0.9,0.7,1.3c0.2,0.5,0.3,0.9,0.4,1.2l2.4,11.2l1.9,5.1c0,0,0,0.1,0,0.2
		s0,0.2,0,0.3c0,0.4-0.1,0.7-0.2,1.1c-0.2,0.3-0.5,0.5-0.9,0.5c-0.5,0-1-0.1-1.6-0.4C156.1,179.3,155.8,178.9,155.6,178.5z"/>
	<path fill="#555555" d="M169.4,192.4c-0.1-0.6-0.1-1.4-0.1-2.3c0-0.9,0-1.8,0-2.8s0-2,0-3c0-1,0.1-1.9,0.1-2.8v-1.6
		c-0.2-0.2-0.3-0.4-0.5-0.7c-0.2-0.2-0.6-0.7-1.1-1.3c-0.5-0.7-1.3-1.7-2.2-3c-1-1.3-2.2-3.2-3.9-5.6c-0.6-0.7-1-1.2-1.2-1.6
		c-0.2-0.4-0.2-0.8-0.2-1.1c0.1-0.3,0.2-0.5,0.5-0.6c0.3-0.1,0.5-0.2,0.7-0.2c0.6,0,1.1,0.1,1.6,0.4c0.5,0.3,0.9,0.6,1.3,1
		c0.4,0.4,0.7,0.9,1.1,1.4s0.6,1,0.9,1.4c0.2,0.3,0.4,0.6,0.7,1c0.3,0.4,0.5,0.8,0.8,1.2s0.6,0.9,1,1.5l0.5,0.6v-4.7
		c0-1.5,0-3-0.1-4.4c-0.1-1.4-0.1-2.9-0.1-4.3c0-0.4,0.1-0.8,0.4-1c0.3-0.3,0.7-0.4,1.1-0.4c0.5,0.1,0.9,0.2,1.1,0.3
		c0.3,0.1,0.5,0.4,0.8,0.7c0.2,0.3,0.4,0.7,0.3,1.2c0,0.4,0,0.9,0,1.3c0.1,2.8,0.2,5.7,0.3,8.5c0.1,2.8,0.1,5.7,0.1,8.5
		c0,0.3,0,0.8,0,1.6c0,0.8,0,1.8,0,2.8c0,1,0,2.1,0,3.3c0,1.1,0,2.2,0,3.1c0,0.9,0,1.7,0,2.3c0,0.6,0,0.9,0.1,0.9
		c0,0.4-0.2,0.8-0.5,1c-0.3,0.2-0.7,0.3-1.1,0.3c-0.6,0-1-0.1-1.3-0.2c-0.3-0.2-0.5-0.4-0.7-0.7c-0.2-0.3-0.3-0.6-0.3-1
		C169.7,193.1,169.6,192.7,169.4,192.4z"/>
	<path fill="#555555" d="M177.2,168.6c0-0.5,0.2-0.9,0.5-1.1s0.7-0.4,1.2-0.5l11.3-1.1c0.5,0,1,0.1,1.4,0.3s0.7,0.6,0.7,1.2
		c0,0.2-0.1,0.3-0.3,0.5c-0.2,0.2-0.4,0.3-0.7,0.5c-0.2,0.2-0.5,0.3-0.8,0.4c-0.3,0.1-0.5,0.1-0.6,0.1l-11.1,1.2
		c-0.4,0-0.8-0.1-1.1-0.4C177.4,169.4,177.2,169.1,177.2,168.6z"/>
	<path fill="#555555" d="M194.7,168.8c0-0.3,0-0.5,0.1-0.7c0.1-0.2,0.2-0.4,0.3-0.5c0.1-0.2,0.2-0.3,0.3-0.5
		c0.1-0.2,0.1-0.4,0.1-0.6c0-0.9-0.1-1.8-0.2-2.7c-0.1-0.9-0.2-1.8-0.4-2.7s-0.3-1.8-0.4-2.7c-0.1-0.9-0.2-1.8-0.2-2.7
		c0-0.6,0.1-1.1,0.3-1.3c0.2-0.2,0.7-0.4,1.3-0.4c0.5,0,0.9,0.1,1.3,0.4c0.3,0.3,0.7,0.6,1,1h0.2c0.2-0.1,0.6-0.3,1.2-0.7
		c0.6-0.3,1.2-0.7,1.8-1c0.6-0.4,1.3-0.7,1.8-1s1-0.5,1.2-0.7c0.5-0.3,1-0.5,1.5-0.7c0.5-0.2,1-0.3,1.6-0.3c0.3,0,0.5,0,0.7,0.1
		c0.1,0.1,0.2,0.3,0.2,0.7v0.1c-0.1,0.6-0.3,1.1-0.6,1.5c-0.3,0.4-0.7,0.7-1.1,1s-0.8,0.5-1.3,0.7c-0.4,0.2-0.8,0.4-1.2,0.7
		c-0.9,0.6-1.7,1.1-2.3,1.5c-0.6,0.4-1.1,0.7-1.6,0.9c-0.4,0.2-0.8,0.4-1,0.6c-0.3,0.2-0.5,0.3-0.6,0.5c0,0.1,0,0.3,0,0.5
		c0,0.3,0,0.4,0,0.5c0,0.9,0,1.8,0,2.7c0,0.9,0.2,1.8,0.5,2.6l10.5-4.9c0.2-0.1,0.4-0.1,0.5-0.2c0.1,0,0.3,0,0.5,0
		c0.1,0,0.3,0,0.6,0.1s0.4,0.2,0.4,0.4c0,0.7-0.2,1.3-0.7,1.8c-0.5,0.5-1,1-1.7,1.5c-0.7,0.4-1.3,0.8-2.1,1.2
		c-0.7,0.3-1.3,0.6-1.9,0.9c-0.1,0.1-0.3,0.1-0.4,0.1c-0.2,0-0.3,0.1-0.3,0.2l-4.7,2.5c-0.2,0.1-0.2,0.2-0.2,0.2c0,0.1,0,0.2,0,0.3
		c0,0.1,0,0.1,0,0.2c0,0.1,0,0.2,0,0.2l0.9,7.4c0.1,0.7-0.1,1.3-0.5,1.7c-0.4,0.4-1,0.6-1.6,0.6c-0.1,0-0.3,0-0.4-0.1
		s-0.4-0.1-0.5-0.2c-0.2-0.1-0.3-0.2-0.5-0.3s-0.2-0.3-0.2-0.5l-1.1-8.8c0-0.1-0.1-0.2-0.2-0.3c-0.1-0.1-0.2-0.2-0.4-0.3
		s-0.3-0.2-0.4-0.3C194.7,169.1,194.7,169,194.7,168.8z"/>
	<path fill="#555555" d="M212.9,145.5c0-0.2,0.2-0.4,0.5-0.6c0.3-0.2,0.6-0.2,0.8-0.2c0.4,0,1,0.1,1.5,0.4c0.6,0.3,0.8,0.6,0.8,1.1
		c0,0.5-0.1,0.9-0.2,1s-0.5,0.3-1,0.3c-0.5,0-1.1-0.2-1.6-0.5C213.2,146.7,212.9,146.2,212.9,145.5z M215.5,178.3
		c-0.3-3-0.6-5.6-0.8-7.7c-0.2-2.1-0.4-3.9-0.5-5.3c-0.2-1.4-0.3-2.6-0.4-3.4c-0.1-0.9-0.2-1.5-0.2-1.9c-0.1-0.4-0.1-0.7-0.1-0.9
		c0-0.1,0-0.2,0-0.3v-0.2c0-0.3,0.1-0.6,0.4-0.8c0.3-0.2,0.6-0.3,0.9-0.3c0.4,0,0.9,0.1,1.5,0.2c0.5,0.2,0.9,0.5,1.1,0.9
		c0.3,1.5,0.5,3,0.6,4.4c0.1,1.5,0.2,3,0.3,4.5c0.1,1.5,0.2,3,0.3,4.5c0.1,1.5,0.4,3,0.7,4.4c0,0.1,0,0.2,0.1,0.4s0.1,0.4,0.1,0.6
		c0,0.2,0.1,0.4,0.1,0.6c0,0.2,0,0.3,0,0.4v0.1c0,0,0,0.1,0,0.1c0,0.4-0.2,0.7-0.5,1.1c-0.3,0.4-0.7,0.5-1,0.4
		c-0.1,0-0.3-0.1-0.7-0.2c-0.3-0.1-0.6-0.1-0.7-0.2c-0.1,0-0.2-0.1-0.4-0.2c-0.2-0.1-0.3-0.2-0.4-0.3c-0.1-0.1-0.2-0.3-0.3-0.4
		C215.4,178.5,215.4,178.4,215.5,178.3z"/>
	<path fill="#555555" d="M225.8,173.6l-4.9-12c0,0,0-0.1,0-0.1v-0.2c0-0.3,0.1-0.5,0.2-0.7c0.2-0.2,0.4-0.4,0.6-0.5
		c0.1,0,0.2,0,0.4,0c0.2,0,0.3,0,0.4,0c0.6,0,1,0.1,1.2,0.3c0.3,0.2,0.6,0.4,1,0.7c0.1,0.4,0.3,0.9,0.5,1.4c0.2,0.5,0.4,1.1,0.7,1.8
		c0.3,0.7,0.7,1.7,1.1,2.8c0.4,1.1,1,2.5,1.7,4.2l0.2,0.2c0.1-0.1,0.2-0.3,0.2-0.6c0.1-0.2,0.2-0.7,0.4-1.3c0.2-0.6,0.5-1.5,0.8-2.6
		c0.4-1.1,0.9-2.7,1.5-4.6c0.2-0.4,0.4-0.8,0.5-1.3c0.1-0.5,0.2-1,0.3-1.4c0.1-0.4,0.3-0.8,0.6-1.1c0.3-0.3,0.7-0.4,1.2-0.4
		c0.5,0,1,0.2,1.5,0.6c0.5,0.4,0.7,0.9,0.7,1.5c0,0.3-0.1,0.6-0.3,0.9s-0.4,0.6-0.5,0.8l-5.5,18.2h-0.3c-0.1,0-0.3,0-0.5,0
		c-0.2,0-0.5-0.1-0.7-0.2c-0.2-0.1-0.4-0.2-0.6-0.2s-0.3-0.2-0.3-0.3l-2.1-5.5V173.6z"/>
	<path fill="#555555" d="M257.3,167.2c-0.1,0.5-0.1,1-0.2,1.3c-0.1,0.3-0.2,0.6-0.4,0.8c-0.2,0.2-0.4,0.5-0.8,0.7
		c-0.3,0.3-0.8,0.6-1.3,1.1c-0.6,0.5-1.3,1.1-2.1,1.8c-0.8,0.7-1.9,1.7-3.1,2.9c-0.5,0.4-1,0.9-1.5,1.4c-0.5,0.5-1,0.9-1.6,1.3
		c-0.6,0.4-1.1,0.7-1.7,0.9c-0.6,0.2-1.2,0.4-1.9,0.4c-1.3,0-2.2-0.4-2.8-1.3c-0.6-0.9-0.9-1.9-0.9-3c0-0.7,0-1.4,0.1-1.9
		c0-0.5,0.2-1.2,0.3-2c-0.3-0.3-0.6-0.6-0.9-0.8c-0.2-0.2-0.4-0.5-0.4-0.9c0-0.4,0.1-0.6,0.2-0.7c0.2-0.1,0.4-0.2,0.6-0.2
		s0.4-0.1,0.7-0.2c0.2-0.1,0.4-0.2,0.4-0.4c0.1-0.2,0.2-0.5,0.3-1c0.2-0.5,0.3-1,0.5-1.5c0.2-0.5,0.4-1,0.5-1.5
		c0.2-0.5,0.3-0.8,0.3-1c0.2-0.5,0.4-1,0.7-1.5c0.3-0.5,0.6-1,0.9-1.4c0.3-0.4,0.7-0.8,1.2-1c0.5-0.3,1-0.4,1.6-0.4
		c0.4,0,0.8,0.2,1.3,0.5c0.5,0.3,1,0.7,1.5,1.2c0.5,0.5,0.9,1,1.2,1.5c0.3,0.5,0.5,0.9,0.5,1.3c0,0.4-0.1,0.9-0.3,1.2
		c-0.2,0.4-0.5,0.7-0.8,1s-0.7,0.6-1,0.9s-0.7,0.5-1,0.8c0,0-0.1,0-0.2,0.1c-0.1,0.1-0.2,0.1-0.2,0.1c0,0-0.1,0.1-0.2,0.2
		c-0.1,0.1-0.2,0.2-0.3,0.3c-0.1,0.1-0.2,0.2-0.3,0.4c-0.1,0.1-0.2,0.2-0.2,0.2c-0.1,0.1-0.3,0.2-0.5,0.4c-0.3,0.2-0.5,0.4-0.8,0.6
		c-0.3,0.2-0.6,0.4-0.8,0.6c-0.3,0.2-0.4,0.3-0.5,0.4l-0.2,0.4c-0.1,0.1-0.1,0.4-0.2,0.8s-0.1,0.9-0.2,1.4c-0.1,0.5-0.1,1-0.2,1.5
		c0,0.5-0.1,1-0.1,1.3c0,0,0,0.1,0,0.1c0.1,0.1,0.1,0.1,0.1,0.1c0.2,0,0.5-0.1,0.7-0.3c0.2-0.2,0.4-0.4,0.7-0.4l7.2-6.6l1.8-2.8
		c0.1-0.2,0.4-0.4,0.9-0.7c0.4-0.3,0.9-0.4,1.3-0.4c0.4,0,0.8,0.1,1.2,0.4C257.2,165.8,257.3,166.4,257.3,167.2z M247.4,163.7
		c0.1-0.1,0.2-0.3,0.2-0.5c0-0.2-0.1-0.4-0.2-0.6s-0.3-0.3-0.5-0.3c-0.2,0-0.4,0.1-0.6,0.3c-0.1,0.1-0.2,0.4-0.5,0.7
		s-0.4,0.7-0.7,1.1c-0.2,0.4-0.4,0.7-0.6,1c-0.2,0.3-0.2,0.4-0.1,0.3L247.4,163.7z"/>
</g>
<g>
	<path fill="#555555" d="M586.1,177.2c0-1.8,0.1-3.6,0.4-5.3c0.2-1.8,0.4-3.5,0.6-5.3c0-0.1,0-0.3,0-0.6c0-0.3,0.1-0.7,0.1-1
		s0.1-0.7,0.1-1s0.1-0.5,0.1-0.6v-0.2l1.9-14c-0.1-0.6,0-1.1,0.3-1.6c0.3-0.5,0.7-0.7,1.4-0.7c0.7-0.1,1.4,0,1.9,0.3
		c0.5,0.3,0.9,0.7,1.2,1.1c0.3,0.4,0.6,0.9,0.8,1.5c0.2,0.5,0.4,1,0.7,1.5c0.1,0.4,0.3,0.9,0.6,1.5c0.2,0.6,0.5,1.3,0.8,2.2
		c0.3,0.9,0.7,1.9,1.1,3.2c0.4,1.3,0.9,2.8,1.5,4.6l0.2,0.2c0.2-0.1,0.6-0.3,1.2-0.6s1.2-0.6,1.8-0.9c0.6-0.3,1.2-0.6,1.8-0.9
		c0.6-0.3,1-0.4,1.2-0.5c0-0.1,0.1-0.1,0.2-0.2s0.2-0.1,0.3-0.1h0.1c0.3,0,0.5,0.1,0.7,0.3c0.1,0.2,0.2,0.4,0.2,0.7
		c0,0.3-0.1,0.6-0.2,0.9c-0.2,0.2-0.3,0.5-0.5,0.7c-0.2,0.2-0.4,0.4-0.6,0.6s-0.4,0.4-0.5,0.6l-4.4,2.2c-0.1,0.2-0.2,0.3-0.2,0.4
		c0,0.2,0.1,0.6,0.4,1.1c0.3,0.5,0.5,0.9,0.6,1.2c0.1,0.2,0.2,0.5,0.4,1c0.2,0.5,0.4,1,0.7,1.5c0.2,0.5,0.5,1,0.7,1.5
		c0.2,0.5,0.4,0.8,0.5,1v0.1c0,1.1-0.5,1.6-1.6,1.6c-0.3,0-0.7,0-1-0.1c-0.4-0.1-0.6-0.3-0.8-0.7l-3-6.4h-0.4
		c-1.1,0.9-2.4,1.7-3.6,2.6c-1.3,0.8-2.6,1.6-4,2.2c-0.2,1.1-0.3,2.2-0.4,3.3c0,1.1,0,2.2,0,3.3c-0.2,0.3-0.5,0.6-0.7,0.7
		c-0.2,0.2-0.6,0.2-1,0.2c-0.4,0-0.7-0.1-0.9-0.3c-0.2-0.2-0.4-0.4-0.4-0.7c-0.1-0.3-0.1-0.6-0.1-0.9
		C586.1,177.7,586.1,177.4,586.1,177.2z M590.1,168.5c0.9-0.4,1.8-0.8,2.6-1.4c0.9-0.6,1.7-1.2,2.4-1.7c0.1-0.1,0.2-0.1,0.3-0.2
		c0.1-0.1,0.3-0.1,0.4-0.2c0.1-0.1,0.3-0.2,0.4-0.3v-0.4l-4.1-11.8l-0.2-0.2c-0.1,0.2-0.2,0.7-0.3,1.5c-0.1,0.8-0.3,1.9-0.4,3.3
		c-0.2,1.3-0.3,2.9-0.5,4.6c-0.2,1.7-0.4,3.6-0.6,5.6V168.5z"/>
	<path fill="#555555" d="M610.9,178.1c-0.1-1.1-0.2-2.5-0.3-4.3c-0.1-1.8-0.3-3.7-0.4-5.6c-0.2-1.9-0.3-3.8-0.5-5.5
		c-0.2-1.7-0.3-3.1-0.4-4c0-0.4,0.2-0.6,0.5-0.8c0.4-0.1,0.7-0.2,1-0.2c0.4,0,0.9,0.1,1.3,0.4c0.5,0.2,0.8,0.6,0.9,1
		c0,0.1,0,0.3,0,0.7c0,0.3,0.1,0.6,0.1,1c0,0.3,0,0.7,0.1,1c0,0.3,0,0.5,0,0.7c0,0.2,0,0.3,0,0.4s0,0.2,0,0.2c0,0.1,0,0.2,0,0.2
		c0,0.1,0.1,0.2,0.1,0.4c0.1-0.1,0.1-0.1,0.2-0.2c0.1-0.1,0.1-0.1,0.2-0.2c0.5-0.7,0.9-1.3,1.4-1.8c0.4-0.5,0.9-1,1.4-1.5
		c0.5-0.5,1-1,1.6-1.5c0.6-0.5,1.3-1.1,2-1.8c0.2-0.1,0.3-0.3,0.4-0.3c0.1-0.1,0.2-0.1,0.2-0.2c0.1,0,0.2-0.1,0.2-0.1
		c0.1,0,0.2,0,0.4,0c0.5,0,1,0.2,1.5,0.5c0.5,0.3,0.8,0.8,0.8,1.4c0,0.2-0.1,0.4-0.2,0.7c-0.2,0.2-0.3,0.4-0.5,0.6
		c-0.2,0.2-0.4,0.4-0.7,0.5c-0.2,0.2-0.4,0.3-0.6,0.3c-0.8,0.7-1.6,1.5-2.5,2.4c-0.9,0.9-1.7,1.8-2.4,2.9c-0.7,1-1.4,2.1-1.8,3.2
		c-0.5,1.1-0.7,2.2-0.7,3.3c0,1,0.1,2,0.2,3c0.1,1,0.2,2,0.2,3v1.6c-0.2,0.2-0.4,0.4-0.6,0.6c-0.2,0.2-0.4,0.2-0.8,0.2
		c-0.5,0-1-0.2-1.5-0.7C611.4,179,611.1,178.5,610.9,178.1z"/>
	<path fill="#555555" d="M633.9,172.9c0,0-0.2,0.3-0.6,1c-0.4,0.7-0.9,1.4-1.5,2.2c-0.6,0.8-1.4,1.5-2.2,2.2c-0.9,0.7-1.8,1-2.7,1
		c-1.3,0-2.4-0.4-3.3-1.2c-0.9-0.8-1.3-1.9-1.3-3.3c-0.1-0.7,0-1.6,0.3-2.6c0.3-1,0.6-2,1.1-3.1c0.5-1.1,1.1-2.1,1.8-3.1
		c0.7-1,1.5-1.9,2.3-2.6c0.8-0.7,1.7-1.3,2.5-1.6c0.9-0.4,1.8-0.4,2.7-0.2v-0.6c0-0.8,0-1.6-0.1-2.4c0-0.8-0.1-1.8-0.1-2.8
		c0-1.1-0.1-2.3-0.1-3.7s-0.1-3.1-0.1-5c0.1-0.3,0.2-0.5,0.5-0.7c0.2-0.1,0.5-0.2,0.7-0.2c0.7,0,1.2,0.2,1.6,0.7s0.7,1,0.7,1.7
		c-0.1,1-0.1,2.1-0.1,3.1c0,1.1,0.1,2.3,0.2,3.6s0.2,2.9,0.4,4.6c0.2,1.7,0.4,3.7,0.7,6c0.3,2.3,0.7,5,1.1,8c0.4,3,0.9,6.5,1.5,10.4
		v1.5c0,0.2-0.1,0.3-0.2,0.4s-0.3,0.2-0.5,0.2c-0.2,0-0.4,0.1-0.6,0.1c-0.2,0-0.3,0-0.4,0c-0.4,0-0.9-0.1-1.4-0.4
		c-0.5-0.3-0.8-0.6-0.9-1.1l-1.7-12c0-0.1,0-0.1-0.1-0.2C634,172.9,634,172.9,633.9,172.9z M626,173.9c0,0.1,0,0.2,0,0.5
		c0,0.2,0,0.5,0,0.7c0,0.2,0.1,0.4,0.1,0.6c0.1,0.2,0.2,0.3,0.4,0.3c0.7,0,1.5-0.3,2.3-0.9c0.8-0.6,1.5-1.3,2.2-2.2
		c0.7-0.9,1.2-1.8,1.6-2.9c0.4-1,0.7-1.9,0.7-2.7s-0.2-1.4-0.6-1.9c-0.4-0.4-1.2-0.5-2.2-0.3c-1.3,1.1-2.4,2.4-3.2,3.9
		C626.4,170.5,626,172.1,626,173.9z"/>
	<path fill="#555555" d="M651,175.7c-0.2,0.4-0.4,0.9-0.6,1.5c-0.2,0.5-0.4,1-0.7,1.4c-0.3,0.4-0.6,0.8-1,1.1
		c-0.4,0.3-0.9,0.4-1.5,0.4c-1,0-1.9-0.3-2.6-0.8c-0.7-0.5-1.3-1.2-1.7-2c-0.4-0.8-0.7-1.7-0.9-2.6c-0.2-0.9-0.3-1.8-0.3-2.6
		l0.4-10.9c0-0.2,0-0.4,0.2-0.7s0.3-0.4,0.5-0.6c0.2-0.2,0.5-0.4,0.8-0.5c0.3-0.1,0.5-0.2,0.8-0.2c0.7,0,1.3,0.2,1.8,0.7
		c0.5,0.4,0.7,1,0.7,1.7v0.4c-0.3,0.5-0.6,1.2-0.9,2.1c-0.2,0.9-0.4,1.8-0.6,2.8c-0.1,1-0.2,2-0.2,3.1c0,1,0,2,0.1,2.9
		c0.1,0.9,0.3,1.6,0.5,2.2c0.2,0.6,0.6,1,0.9,1.1c0.1,0,0.4-0.1,0.7-0.2c0.3-0.1,0.7-0.4,1-0.9c0.4-0.4,0.7-1,1.1-1.8
		c0.4-0.8,0.7-1.8,1-3c0.3-1.3,0.5-2.8,0.7-4.6c0.1-1.8,0.2-4,0.1-6.5c0.1-0.3,0.3-0.5,0.5-0.5c0.2,0,0.5,0,0.7,0c0.3,0,0.5,0,0.7,0
		c0.2,0,0.4,0.1,0.6,0.3c0.1,0.2,0.3,0.4,0.5,0.7c0.2,0.3,0.3,0.5,0.3,0.5l0.8,19.9c0,0.4-0.1,0.8-0.4,1.1c-0.2,0.3-0.6,0.4-1,0.4
		c-0.2,0-0.3,0-0.5,0c-0.2,0-0.4-0.1-0.6-0.2c-0.2-0.1-0.4-0.2-0.6-0.3c-0.2-0.1-0.3-0.3-0.3-0.5l-0.8-4.5L651,175.7z"/>
	<path fill="#555555" d="M657.4,145.5c0-0.2,0.2-0.4,0.5-0.6c0.3-0.2,0.6-0.2,0.8-0.2c0.4,0,1,0.1,1.5,0.4c0.6,0.3,0.8,0.6,0.8,1.1
		c0,0.5-0.1,0.9-0.2,1s-0.5,0.3-1,0.3c-0.5,0-1.1-0.2-1.6-0.5C657.7,146.7,657.4,146.2,657.4,145.5z M659.9,178.3
		c-0.3-3-0.6-5.6-0.8-7.7c-0.2-2.1-0.4-3.9-0.5-5.3c-0.2-1.4-0.3-2.6-0.4-3.4c-0.1-0.9-0.2-1.5-0.2-1.9c-0.1-0.4-0.1-0.7-0.1-0.9
		c0-0.1,0-0.2,0-0.3v-0.2c0-0.3,0.1-0.6,0.4-0.8c0.3-0.2,0.6-0.3,0.9-0.3c0.4,0,0.9,0.1,1.5,0.2c0.5,0.2,0.9,0.5,1.1,0.9
		c0.3,1.5,0.5,3,0.6,4.4c0.1,1.5,0.2,3,0.3,4.5c0.1,1.5,0.2,3,0.3,4.5c0.1,1.5,0.4,3,0.7,4.4c0,0.1,0,0.2,0.1,0.4s0.1,0.4,0.1,0.6
		c0,0.2,0.1,0.4,0.1,0.6c0,0.2,0,0.3,0,0.4v0.1c0,0,0,0.1,0,0.1c0,0.4-0.2,0.7-0.5,1.1c-0.3,0.4-0.7,0.5-1,0.4
		c-0.1,0-0.3-0.1-0.7-0.2c-0.3-0.1-0.6-0.1-0.7-0.2c-0.1,0-0.2-0.1-0.4-0.2c-0.2-0.1-0.3-0.2-0.4-0.3c-0.1-0.1-0.2-0.3-0.3-0.4
		C659.8,178.5,659.8,178.4,659.9,178.3z"/>
	<path fill="#555555" d="M678.4,178.5c-0.4-0.6-0.8-1.4-1.1-2.5c-0.3-1.1-0.6-2.2-0.8-3.4c-0.3-1.2-0.5-2.3-0.7-3.5
		c-0.2-1.1-0.4-2-0.7-2.7s-0.5-1.1-0.7-1.1s-0.6,0.3-0.9,1.2l-3.9,12c-0.2,0.4-0.3,0.7-0.5,0.9c-0.2,0.2-0.6,0.2-1,0.2
		c-0.2,0-0.5,0-0.8-0.1c-0.3-0.1-0.5-0.2-0.8-0.3c-0.2-0.1-0.4-0.3-0.6-0.5c-0.2-0.2-0.3-0.4-0.3-0.7c0.1-0.4,0.2-1,0.2-2
		c0.1-1,0.1-2.1,0.2-3.3c0-1.3,0.1-2.6,0.1-4c0-1.4,0-2.7,0-3.9c0-1.2,0-2.3-0.1-3.1c0-0.9-0.1-1.5-0.1-1.7c0-0.3,0-0.6,0-0.9
		c0-0.3,0.1-0.6,0.1-0.9c0.1-0.3,0.2-0.5,0.4-0.7c0.2-0.2,0.5-0.2,0.9-0.2c0.6,0,1.1,0.2,1.6,0.7c0.5,0.5,0.7,1,0.7,1.5
		c0,0.8,0,1.5-0.1,2.3c-0.1,0.8-0.1,1.5-0.1,2.3c0,0.5,0,0.9,0,1.2c0,0.3,0.1,0.7,0.2,1.2c0.1-0.2,0.2-0.7,0.4-1.3
		c0.2-0.6,0.4-1.2,0.7-1.9c0.3-0.7,0.5-1.3,0.7-1.9c0.2-0.6,0.4-1,0.4-1.2c0.2-0.6,0.5-1.2,0.9-1.7c0.4-0.6,1-0.9,1.7-0.9
		c0.4,0,0.9,0.1,1.2,0.4c0.4,0.3,0.7,0.6,1,1.1c0.3,0.4,0.5,0.9,0.7,1.3c0.2,0.5,0.3,0.9,0.4,1.2l2.4,11.2l1.9,5.1c0,0,0,0.1,0,0.2
		s0,0.2,0,0.3c0,0.4-0.1,0.7-0.2,1.1c-0.2,0.3-0.5,0.5-0.9,0.5c-0.5,0-1-0.1-1.6-0.4C678.9,179.3,678.6,178.9,678.4,178.5z"/>
	<path fill="#555555" d="M684.3,173.1l1.7-11.5c0.1-0.4,0.2-0.7,0.5-0.9c0.3-0.2,0.6-0.3,1-0.3c0.7,0,1.2,0.2,1.6,0.6
		c0.4,0.4,0.7,0.8,1,1.4h0c0.4,0,0.7-0.1,1-0.2c0.3-0.1,0.6-0.2,1.1-0.2c1,0,1.8,0.3,2.4,0.9c0.7,0.6,1.2,1.3,1.6,2.2
		c0.4,0.9,0.7,1.8,0.9,2.8c0.2,1,0.3,1.9,0.3,2.6c0,0.9-0.2,1.9-0.7,3c-0.5,1.1-1.1,2.2-1.8,3.1s-1.6,1.8-2.6,2.5
		c-1,0.7-1.9,1-2.9,1c-0.9,0-1.7-0.2-2.3-0.6c-0.6-0.4-1.2-1-1.6-1.6c-0.4-0.6-0.7-1.4-0.9-2.2s-0.3-1.6-0.3-2.4V173.1z
		 M688.1,173.4c0.1,0.3,0.1,0.6,0.2,1c0.1,0.4,0.1,0.7,0.3,1.1c0.1,0.3,0.3,0.6,0.5,0.7c0.2,0.2,0.5,0.2,1,0
		c0.4-0.4,0.8-0.8,1.3-1.2s0.9-0.9,1.3-1.4c0.4-0.5,0.7-1,1-1.6c0.3-0.6,0.4-1.2,0.4-1.8c0.1-1,0-2-0.2-2.8s-0.7-1.5-1.1-1.8
		c-0.5-0.4-1.1-0.4-1.7-0.1c-0.6,0.3-1.3,1.1-1.9,2.3c-0.4,0.8-0.6,1.7-0.7,2.7s-0.2,2-0.2,2.9V173.4z"/>
</g>
</svg>
